SplineFontDB: 3.0
FontName: DroidSerif-BoldItalic
FullName: Droid Serif Bold Italic
FamilyName: Droid Serif
Weight: Bold
Copyright: Digitized data copyright (c) 2007, Google Corporation.
Version: 1.00 build 112
ItalicAngle: -12
UnderlinePosition: -103
UnderlineWidth: 102
Ascent: 1638
Descent: 410
sfntRevision: 0x00010000
LayerCount: 2
Layer: 0 1 "Back"  1
Layer: 1 1 "Fore"  0
XUID: [1021 212 293451659 1683914]
FSType: 8
OS2Version: 3
OS2_WeightWidthSlopeOnly: 0
OS2_UseTypoMetrics: 1
CreationTime: 1172009241
ModificationTime: 1227708605
PfmFamily: 17
TTFWeight: 700
TTFWidth: 5
LineGap: 0
VLineGap: 0
Panose: 2 2 8 0 6 5 0 9 2 0
OS2TypoAscent: -61
OS2TypoAOffset: 1
OS2TypoDescent: -82
OS2TypoDOffset: 1
OS2TypoLinegap: 122
OS2WinAscent: -266
OS2WinAOffset: 1
OS2WinDescent: -88
OS2WinDOffset: 1
HheadAscent: -266
HheadAOffset: 1
HheadDescent: 88
HheadDOffset: 1
OS2SubXSize: 1434
OS2SubYSize: 1331
OS2SubXOff: 0
OS2SubYOff: 286
OS2SupXSize: 1434
OS2SupYSize: 1331
OS2SupXOff: 0
OS2SupYOff: 976
OS2StrikeYSize: 102
OS2StrikeYPos: 498
OS2FamilyClass: 512
OS2Vendor: '1ASC'
OS2CodePages: 2000019f.00000000
OS2UnicodeRanges: e00002ef.4000205b.00000028.00000000
Lookup: 258 8 0 "'kern' Horizontal Kerning in Latin lookup 0"  {"'kern' Horizontal Kerning in Latin lookup 0 subtable"  } ['kern' ('latn' <'dflt' > ) ]
DEI: 91125
TtTable: prep
NPUSHB
 119
 248
 0
 255
 31
 223
 51
 221
 85
 222
 51
 3
 85
 221
 1
 3
 85
 220
 3
 255
 31
 155
 150
 25
 31
 192
 150
 208
 150
 224
 150
 3
 26
 1
 24
 85
 25
 19
 255
 31
 7
 4
 255
 31
 6
 3
 255
 31
 19
 51
 18
 85
 5
 1
 3
 85
 4
 51
 3
 85
 15
 3
 127
 3
 239
 3
 3
 28
 27
 255
 31
 22
 51
 21
 85
 17
 1
 15
 85
 16
 51
 15
 85
 2
 1
 0
 85
 1
 71
 0
 85
 159
 15
 223
 15
 2
 63
 15
 207
 15
 239
 15
 3
 111
 0
 127
 0
 175
 0
 239
 0
 4
 16
 0
 1
 128
 22
 1
 5
 1
PUSHW_1
 400
PUSHB_2
 84
 83
CALL
CALL
MPPEM
PUSHW_1
 2047
GT
MPPEM
PUSHB_1
 7
LT
OR
PUSHB_1
 1
GETINFO
PUSHB_1
 37
GTEQ
PUSHB_1
 1
GETINFO
PUSHB_1
 64
LTEQ
AND
PUSHB_1
 6

StartChar: .notdef
Encoding: 65536 -1 0
Width: 1024
GlyphClass: 2
Flags: W
LayerCount: 2
Fore
SplineSet
102 0 m 1,0,-1
 102 1462 l 1,1,-1
 922 1462 l 1,2,-1
 922 0 l 1,3,-1
 102 0 l 1,0,-1
201 98 m 1,4,-1
 823 98 l 1,5,-1
 823 1364 l 1,6,-1
 201 1364 l 1,7,-1
 201 98 l 1,4,-1
EndSplineSet
EndChar

StartChar: exclam
Encoding: 33 33 4
Width: 809
GlyphClass: 2
Flags: W
LayerCount: 2
Fore
SplineSet
430 1462 m 1,0,-1
 786 1462 l 1,1,-1
 432 467 l 1,2,-1
 313 467 l 1,3,-1
 430 1462 l 1,0,-1
502 168 m 0,4,5
 502 117 502 117 486.5 81.5 c 128,-1,6
 471 46 471 46 445.5 24.5 c 128,-1,7
 420 3 420 3 388 -6.5 c 128,-1,8
 356 -16 356 -16 324 -16 c 0,9,10
 249 -16 249 -16 203.5 20 c 128,-1,11
 158 56 158 56 158 131 c 0,12,13
 158 173 158 173 170.5 207 c 128,-1,14
 183 241 183 241 206 265 c 128,-1,15
 229 289 229 289 262 302 c 128,-1,16
 295 315 295 315 336 315 c 0,17,18
 371 315 371 315 401.5 306 c 128,-1,19
 432 297 432 297 454.5 279 c 128,-1,20
 477 261 477 261 489.5 233 c 128,-1,21
 502 205 502 205 502 168 c 0,4,5
EndSplineSet
EndChar

StartChar: quotedbl
Encoding: 34 34 5
Width: 1040
GlyphClass: 2
Flags: W
LayerCount: 2
Fore
SplineSet
807 1462 m 1,0,-1
 1126 1462 l 1,1,-1
 913 899 l 1,2,-1
 778 899 l 1,3,-1
 807 1462 l 1,0,-1
360 1462 m 1,4,-1
 680 1462 l 1,5,-1
 446 899 l 1,6,-1
 311 899 l 1,7,-1
 360 1462 l 1,4,-1
EndSplineSet
EndChar

StartChar: numbersign
Encoding: 35 35 6
Width: 1145
GlyphClass: 2
Flags: W
LayerCount: 2
Fore
SplineSet
1036 551 m 1,0,-1
 1022 410 l 1,1,-1
 766 410 l 1,2,-1
 647 0 l 1,3,-1
 502 0 l 1,4,-1
 621 410 l 1,5,-1
 408 410 l 1,6,-1
 287 0 l 1,7,-1
 141 0 l 1,8,-1
 262 410 l 1,9,-1
 57 410 l 1,10,-1
 72 551 l 1,11,-1
 303 551 l 1,12,-1
 414 922 l 1,13,-1
 176 922 l 1,14,-1
 193 1065 l 1,15,-1
 457 1065 l 1,16,-1
 569 1462 l 1,17,-1
 717 1462 l 1,18,-1
 602 1065 l 1,19,-1
 815 1065 l 1,20,-1
 932 1462 l 1,21,-1
 1077 1462 l 1,22,-1
 961 1065 l 1,23,-1
 1157 1065 l 1,24,-1
 1141 922 l 1,25,-1
 918 922 l 1,26,-1
 809 551 l 1,27,-1
 1036 551 l 1,0,-1
449 551 m 1,28,-1
 664 551 l 1,29,-1
 774 922 l 1,30,-1
 559 922 l 1,31,-1
 449 551 l 1,28,-1
EndSplineSet
EndChar

StartChar: dollar
Encoding: 36 36 7
Width: 1145
GlyphClass: 2
Flags: W
LayerCount: 2
Fore
SplineSet
1030 481 m 0,0,1
 1030 386 1030 386 995.5 312 c 128,-1,2
 961 238 961 238 896.5 186 c 128,-1,3
 832 134 832 134 740.5 106 c 128,-1,4
 649 78 649 78 535 76 c 1,5,-1
 485 -162 l 1,6,-1
 371 -162 l 1,7,-1
 422 78 l 1,8,9
 235 93 235 93 143 165 c 128,-1,10
 51 237 51 237 51 352 c 0,11,12
 51 449 51 449 110.5 493 c 128,-1,13
 170 537 170 537 279 537 c 1,14,15
 279 465 279 465 291 410 c 128,-1,16
 303 355 303 355 325.5 315 c 128,-1,17
 348 275 348 275 379 249 c 128,-1,18
 410 223 410 223 449 209 c 1,19,-1
 541 645 l 1,20,21
 468 684 468 684 412 723.5 c 128,-1,22
 356 763 356 763 317.5 809.5 c 128,-1,23
 279 856 279 856 259.5 911.5 c 128,-1,24
 240 967 240 967 240 1038 c 0,25,26
 240 1123 240 1123 273.5 1190.5 c 128,-1,27
 307 1258 307 1258 368 1305 c 128,-1,28
 429 1352 429 1352 514.5 1378 c 128,-1,29
 600 1404 600 1404 705 1407 c 1,30,-1
 737 1556 l 1,31,-1
 852 1556 l 1,32,-1
 817 1403 l 1,33,34
 979 1390 979 1390 1060 1335 c 128,-1,35
 1141 1280 1141 1280 1141 1196 c 0,36,37
 1141 1154 1141 1154 1129 1121 c 128,-1,38
 1117 1088 1117 1088 1090 1065 c 128,-1,39
 1063 1042 1063 1042 1018.5 1030 c 128,-1,40
 974 1018 974 1018 909 1018 c 1,41,42
 909 1055 909 1055 902 1093.5 c 128,-1,43
 895 1132 895 1132 881 1167.5 c 128,-1,44
 867 1203 867 1203 844.5 1231.5 c 128,-1,45
 822 1260 822 1260 791 1276 c 1,46,-1
 705 872 l 1,47,-1
 752 848 l 1,48,49
 893 774 893 774 961.5 686 c 128,-1,50
 1030 598 1030 598 1030 481 c 0,0,1
768 389 m 0,51,52
 768 417 768 417 763 441.5 c 128,-1,53
 758 466 758 466 744 489 c 128,-1,54
 730 512 730 512 705.5 536 c 128,-1,55
 681 560 681 560 643 586 c 1,56,-1
 559 193 l 1,57,58
 607 194 607 194 645.5 208.5 c 128,-1,59
 684 223 684 223 711 249 c 128,-1,60
 738 275 738 275 753 311 c 128,-1,61
 768 347 768 347 768 389 c 0,51,52
504 1106 m 0,62,63
 504 1047 504 1047 528.5 1008 c 128,-1,64
 553 969 553 969 602 934 c 1,65,-1
 678 1290 l 1,66,67
 643 1285 643 1285 611.5 1272.5 c 128,-1,68
 580 1260 580 1260 556 1237.5 c 128,-1,69
 532 1215 532 1215 518 1182.5 c 128,-1,70
 504 1150 504 1150 504 1106 c 0,62,63
EndSplineSet
EndChar

StartChar: percent
Encoding: 37 37 8
Width: 1835
GlyphClass: 2
Flags: W
LayerCount: 2
Fore
SplineSet
526 0 m 1,0,-1
 367 0 l 1,1,-1
 1382 1462 l 1,2,-1
 1536 1462 l 1,3,-1
 526 0 l 1,0,-1
147 872 m 0,4,5
 147 936 147 936 159 1006 c 128,-1,6
 171 1076 171 1076 196.5 1144 c 128,-1,7
 222 1212 222 1212 260 1273.5 c 128,-1,8
 298 1335 298 1335 350.5 1381.5 c 128,-1,9
 403 1428 403 1428 469.5 1455.5 c 128,-1,10
 536 1483 536 1483 618 1483 c 0,11,12
 696 1483 696 1483 752 1460 c 128,-1,13
 808 1437 808 1437 844 1396 c 128,-1,14
 880 1355 880 1355 897.5 1299 c 128,-1,15
 915 1243 915 1243 915 1178 c 0,16,17
 915 1119 915 1119 902.5 1051 c 128,-1,18
 890 983 890 983 865 916 c 128,-1,19
 840 849 840 849 801 787 c 128,-1,20
 762 725 762 725 708.5 677.5 c 128,-1,21
 655 630 655 630 587 601.5 c 128,-1,22
 519 573 519 573 436 573 c 0,23,24
 370 573 370 573 316.5 592.5 c 128,-1,25
 263 612 263 612 225.5 650 c 128,-1,26
 188 688 188 688 167.5 743.5 c 128,-1,27
 147 799 147 799 147 872 c 0,4,5
612 1376 m 1,28,29
 572 1376 572 1376 538.5 1348.5 c 128,-1,30
 505 1321 505 1321 478 1277 c 128,-1,31
 451 1233 451 1233 430.5 1177 c 128,-1,32
 410 1121 410 1121 396.5 1063 c 128,-1,33
 383 1005 383 1005 376 950.5 c 128,-1,34
 369 896 369 896 369 856 c 0,35,36
 369 775 369 775 389 726.5 c 128,-1,37
 409 678 409 678 459 678 c 0,38,39
 499 678 499 678 532.5 705.5 c 128,-1,40
 566 733 566 733 593 777 c 128,-1,41
 620 821 620 821 640.5 877.5 c 128,-1,42
 661 934 661 934 674.5 992 c 128,-1,43
 688 1050 688 1050 695 1104.5 c 128,-1,44
 702 1159 702 1159 702 1200 c 0,45,46
 702 1282 702 1282 682.5 1328 c 128,-1,47
 663 1374 663 1374 612 1376 c 1,28,29
997 279 m 0,48,49
 997 343 997 343 1009 413 c 128,-1,50
 1021 483 1021 483 1046.5 551 c 128,-1,51
 1072 619 1072 619 1110 680 c 128,-1,52
 1148 741 1148 741 1200.5 787.5 c 128,-1,53
 1253 834 1253 834 1319.5 861.5 c 128,-1,54
 1386 889 1386 889 1468 889 c 0,55,56
 1546 889 1546 889 1602 866 c 128,-1,57
 1658 843 1658 843 1694 802 c 128,-1,58
 1730 761 1730 761 1747.5 705 c 128,-1,59
 1765 649 1765 649 1765 584 c 0,60,61
 1765 525 1765 525 1752.5 457.5 c 128,-1,62
 1740 390 1740 390 1715 322.5 c 128,-1,63
 1690 255 1690 255 1651 193.5 c 128,-1,64
 1612 132 1612 132 1558.5 84.5 c 128,-1,65
 1505 37 1505 37 1437 8.5 c 128,-1,66
 1369 -20 1369 -20 1286 -20 c 0,67,68
 1220 -20 1220 -20 1166.5 -0.5 c 128,-1,69
 1113 19 1113 19 1075.5 56.5 c 128,-1,70
 1038 94 1038 94 1017.5 150 c 128,-1,71
 997 206 997 206 997 279 c 0,48,49
1462 782 m 1,72,73
 1422 782 1422 782 1388.5 754.5 c 128,-1,74
 1355 727 1355 727 1328 683 c 128,-1,75
 1301 639 1301 639 1280.5 583 c 128,-1,76
 1260 527 1260 527 1246.5 469 c 128,-1,77
 1233 411 1233 411 1226 356.5 c 128,-1,78
 1219 302 1219 302 1219 262 c 0,79,80
 1219 181 1219 181 1239 132.5 c 128,-1,81
 1259 84 1259 84 1309 84 c 0,82,83
 1349 84 1349 84 1382.5 111.5 c 128,-1,84
 1416 139 1416 139 1443 183 c 128,-1,85
 1470 227 1470 227 1490.5 283.5 c 128,-1,86
 1511 340 1511 340 1524.5 398 c 128,-1,87
 1538 456 1538 456 1545 510.5 c 128,-1,88
 1552 565 1552 565 1552 606 c 0,89,90
 1552 688 1552 688 1532.5 734 c 128,-1,91
 1513 780 1513 780 1462 782 c 1,72,73
EndSplineSet
EndChar

StartChar: ampersand
Encoding: 38 38 9
Width: 1640
GlyphClass: 2
Flags: W
LayerCount: 2
Fore
SplineSet
1110 0 m 1,0,-1
 1008 141 l 1,1,2
 923 69 923 69 810.5 24.5 c 128,-1,3
 698 -20 698 -20 549 -20 c 0,4,5
 425 -20 425 -20 335 9 c 128,-1,6
 245 38 245 38 186 90 c 128,-1,7
 127 142 127 142 98.5 212 c 128,-1,8
 70 282 70 282 70 365 c 0,9,10
 70 467 70 467 106 539.5 c 128,-1,11
 142 612 142 612 203 665 c 128,-1,12
 264 718 264 718 345 756 c 128,-1,13
 426 794 426 794 516 827 c 1,14,15
 470 906 470 906 445 982 c 128,-1,16
 420 1058 420 1058 420 1130 c 0,17,18
 420 1218 420 1218 451 1284 c 128,-1,19
 482 1350 482 1350 540.5 1394 c 128,-1,20
 599 1438 599 1438 684.5 1460.5 c 128,-1,21
 770 1483 770 1483 879 1483 c 0,22,23
 973 1483 973 1483 1041.5 1462.5 c 128,-1,24
 1110 1442 1110 1442 1155 1406 c 128,-1,25
 1200 1370 1200 1370 1221.5 1321.5 c 128,-1,26
 1243 1273 1243 1273 1243 1217 c 0,27,28
 1243 1146 1243 1146 1222 1092.5 c 128,-1,29
 1201 1039 1201 1039 1153.5 994 c 128,-1,30
 1106 949 1106 949 1030 908.5 c 128,-1,31
 954 868 954 868 844 823 c 1,32,-1
 1096 492 l 1,33,34
 1131 566 1131 566 1156 643 c 128,-1,35
 1181 720 1181 720 1196 795 c 2,36,-1
 1212 872 l 1,37,-1
 1622 872 l 1,38,-1
 1599 764 l 1,39,-1
 1581 764 l 2,40,41
 1546 764 1546 764 1513 760 c 128,-1,42
 1480 756 1480 756 1448.5 741.5 c 128,-1,43
 1417 727 1417 727 1389 700 c 128,-1,44
 1361 673 1361 673 1337 627 c 0,45,46
 1306 567 1306 567 1271.5 499.5 c 128,-1,47
 1237 432 1237 432 1192 362 c 1,48,-1
 1321 193 l 2,49,50
 1352 151 1352 151 1398.5 130 c 128,-1,51
 1445 109 1445 109 1511 109 c 2,52,-1
 1526 109 l 1,53,-1
 1503 0 l 1,54,-1
 1110 0 l 1,0,-1
371 381 m 0,55,56
 371 324 371 324 387 275.5 c 128,-1,57
 403 227 403 227 434 192 c 128,-1,58
 465 157 465 157 510 137 c 128,-1,59
 555 117 555 117 612 117 c 0,60,61
 708 117 708 117 786.5 153.5 c 128,-1,62
 865 190 865 190 928 252 c 1,63,-1
 594 715 l 1,64,65
 533 681 533 681 490.5 645 c 128,-1,66
 448 609 448 609 421.5 568.5 c 128,-1,67
 395 528 395 528 383 481.5 c 128,-1,68
 371 435 371 435 371 381 c 0,55,56
1010 1188 m 0,69,70
 1010 1269 1010 1269 973.5 1314.5 c 128,-1,71
 937 1360 937 1360 864 1360 c 0,72,73
 828 1360 828 1360 797 1346 c 128,-1,74
 766 1332 766 1332 743.5 1305 c 128,-1,75
 721 1278 721 1278 708.5 1238 c 128,-1,76
 696 1198 696 1198 696 1147 c 0,77,78
 696 1088 696 1088 716 1035 c 128,-1,79
 736 982 736 982 776 922 c 1,80,81
 839 949 839 949 883.5 976 c 128,-1,82
 928 1003 928 1003 956 1034 c 128,-1,83
 984 1065 984 1065 997 1102.5 c 128,-1,84
 1010 1140 1010 1140 1010 1188 c 0,69,70
EndSplineSet
EndChar

StartChar: quotesingle
Encoding: 39 39 10
Width: 594
GlyphClass: 2
Flags: W
LayerCount: 2
Fore
SplineSet
340 1462 m 1,0,-1
 659 1462 l 1,1,-1
 446 899 l 1,2,-1
 311 899 l 1,3,-1
 340 1462 l 1,0,-1
EndSplineSet
EndChar

StartChar: parenleft
Encoding: 40 40 11
Width: 819
GlyphClass: 2
Flags: W
LayerCount: 2
Fore
SplineSet
401 285 m 0,0,1
 401 222 401 222 410 159 c 128,-1,2
 419 96 419 96 440 38.5 c 128,-1,3
 461 -19 461 -19 495.5 -68.5 c 128,-1,4
 530 -118 530 -118 580 -154 c 1,5,-1
 553 -285 l 1,6,7
 429 -242 429 -242 340.5 -174 c 128,-1,8
 252 -106 252 -106 195.5 -19.5 c 128,-1,9
 139 67 139 67 112.5 168.5 c 128,-1,10
 86 270 86 270 86 381 c 0,11,12
 86 508 86 508 109.5 637 c 128,-1,13
 133 766 133 766 180 888 c 128,-1,14
 227 1010 227 1010 298 1121 c 128,-1,15
 369 1232 369 1232 464.5 1323 c 128,-1,16
 560 1414 560 1414 679.5 1480.5 c 128,-1,17
 799 1547 799 1547 944 1581 c 1,18,-1
 924 1452 l 1,19,20
 847 1410 847 1410 786.5 1355 c 128,-1,21
 726 1300 726 1300 679 1238 c 128,-1,22
 632 1176 632 1176 597 1109 c 128,-1,23
 562 1042 562 1042 536.5 976 c 128,-1,24
 511 910 511 910 493.5 848 c 128,-1,25
 476 786 476 786 463 733 c 0,26,27
 425 579 425 579 413 468.5 c 128,-1,28
 401 358 401 358 401 285 c 0,0,1
EndSplineSet
EndChar

StartChar: parenright
Encoding: 41 41 12
Width: 819
GlyphClass: 2
Flags: W
LayerCount: 2
Fore
SplineSet
453 1014 m 0,0,1
 453 1077 453 1077 444 1140 c 128,-1,2
 435 1203 435 1203 414 1260 c 128,-1,3
 393 1317 393 1317 358.5 1366.5 c 128,-1,4
 324 1416 324 1416 274 1452 c 1,5,-1
 301 1583 l 1,6,7
 425 1540 425 1540 513.5 1472 c 128,-1,8
 602 1404 602 1404 658.5 1317.5 c 128,-1,9
 715 1231 715 1231 741.5 1129.5 c 128,-1,10
 768 1028 768 1028 768 918 c 0,11,12
 768 791 768 791 744.5 662 c 128,-1,13
 721 533 721 533 674 411 c 128,-1,14
 627 289 627 289 556 178 c 128,-1,15
 485 67 485 67 389.5 -24 c 128,-1,16
 294 -115 294 -115 174.5 -182 c 128,-1,17
 55 -249 55 -249 -90 -285 c 1,18,-1
 -70 -154 l 1,19,20
 7 -112 7 -112 67.5 -57 c 128,-1,21
 128 -2 128 -2 175 60 c 128,-1,22
 222 122 222 122 257 189 c 128,-1,23
 292 256 292 256 317.5 322 c 128,-1,24
 343 388 343 388 360.5 450 c 128,-1,25
 378 512 378 512 391 565 c 0,26,27
 429 720 429 720 441 829.5 c 128,-1,28
 453 939 453 939 453 1014 c 0,0,1
EndSplineSet
EndChar

StartChar: asterisk
Encoding: 42 42 13
Width: 1266
GlyphClass: 2
Flags: W
LayerCount: 2
Fore
SplineSet
295 1323 m 1,0,-1
 428 1507 l 1,1,-1
 680 1227 l 1,2,-1
 684 1567 l 1,3,-1
 909 1520 l 1,4,-1
 768 1212 l 1,5,-1
 1112 1358 l 1,6,-1
 1159 1139 l 1,7,-1
 831 1126 l 1,8,-1
 1126 979 l 1,9,-1
 993 801 l 1,10,-1
 737 1073 l 1,11,-1
 739 733 l 1,12,-1
 516 780 l 1,13,-1
 651 1094 l 1,14,-1
 309 944 l 1,15,-1
 260 1161 l 1,16,-1
 590 1178 l 1,17,-1
 295 1323 l 1,0,-1
EndSplineSet
EndChar

StartChar: plus
Encoding: 43 43 14
Width: 1145
GlyphClass: 2
Flags: W
LayerCount: 2
Fore
SplineSet
678 659 m 1,0,-1
 678 293 l 1,1,-1
 530 293 l 1,2,-1
 530 659 l 1,3,-1
 166 659 l 1,4,-1
 166 805 l 1,5,-1
 530 805 l 1,6,-1
 530 1171 l 1,7,-1
 678 1171 l 1,8,-1
 678 805 l 1,9,-1
 1044 805 l 1,10,-1
 1044 659 l 1,11,-1
 678 659 l 1,0,-1
EndSplineSet
EndChar

StartChar: comma
Encoding: 44 44 15
Width: 602
GlyphClass: 2
Flags: W
LayerCount: 2
Fore
SplineSet
428 127 m 0,0,1
 428 49 428 49 399.5 -21 c 128,-1,2
 371 -91 371 -91 314.5 -148 c 128,-1,3
 258 -205 258 -205 173.5 -246.5 c 128,-1,4
 89 -288 89 -288 -23 -309 c 1,5,-1
 0 -201 l 1,6,7
 211 -151 211 -151 211 -31 c 0,8,9
 211 -10 211 -10 202.5 5.5 c 128,-1,10
 194 21 194 21 181 33.5 c 128,-1,11
 168 46 168 46 153.5 58 c 128,-1,12
 139 70 139 70 126 85.5 c 128,-1,13
 113 101 113 101 104.5 121.5 c 128,-1,14
 96 142 96 142 96 172 c 0,15,16
 96 205 96 205 108.5 231 c 128,-1,17
 121 257 121 257 142 275.5 c 128,-1,18
 163 294 163 294 191 303.5 c 128,-1,19
 219 313 219 313 250 313 c 0,20,21
 287 313 287 313 319.5 300.5 c 128,-1,22
 352 288 352 288 376 264.5 c 128,-1,23
 400 241 400 241 414 206.5 c 128,-1,24
 428 172 428 172 428 127 c 0,0,1
EndSplineSet
EndChar

StartChar: hyphen
Encoding: 45 45 16
Width: 635
GlyphClass: 2
Flags: W
LayerCount: 2
Fore
SplineSet
20 451 m 1,0,-1
 68 666 l 1,1,-1
 600 666 l 1,2,-1
 553 451 l 1,3,-1
 20 451 l 1,0,-1
EndSplineSet
EndChar

StartChar: period
Encoding: 46 46 17
Width: 623
GlyphClass: 2
Flags: W
LayerCount: 2
Fore
SplineSet
434 168 m 0,0,1
 434 117 434 117 418.5 81.5 c 128,-1,2
 403 46 403 46 377.5 24.5 c 128,-1,3
 352 3 352 3 320 -6.5 c 128,-1,4
 288 -16 288 -16 256 -16 c 0,5,6
 182 -16 182 -16 136 20 c 128,-1,7
 90 56 90 56 90 131 c 0,8,9
 90 173 90 173 102.5 207 c 128,-1,10
 115 241 115 241 138.5 265 c 128,-1,11
 162 289 162 289 194.5 302 c 128,-1,12
 227 315 227 315 268 315 c 0,13,14
 303 315 303 315 333.5 306 c 128,-1,15
 364 297 364 297 386.5 279 c 128,-1,16
 409 261 409 261 421.5 233 c 128,-1,17
 434 205 434 205 434 168 c 0,0,1
EndSplineSet
EndChar

StartChar: slash
Encoding: 47 47 18
Width: 590
GlyphClass: 2
Flags: W
LayerCount: 2
Fore
SplineSet
-51 -248 m 1,0,-1
 -211 -248 l 1,1,-1
 662 1556 l 1,2,-1
 821 1556 l 1,3,-1
 -51 -248 l 1,0,-1
EndSplineSet
EndChar

StartChar: zero
Encoding: 48 48 19
Width: 1145
GlyphClass: 2
Flags: W
LayerCount: 2
Fore
SplineSet
76 473 m 0,0,1
 76 579 76 579 93.5 695 c 128,-1,2
 111 811 111 811 146.5 923.5 c 128,-1,3
 182 1036 182 1036 236 1138 c 128,-1,4
 290 1240 290 1240 363.5 1317 c 128,-1,5
 437 1394 437 1394 530 1439.5 c 128,-1,6
 623 1485 623 1485 737 1485 c 0,7,8
 825 1485 825 1485 901 1457.5 c 128,-1,9
 977 1430 977 1430 1033.5 1372.5 c 128,-1,10
 1090 1315 1090 1315 1122.5 1226.5 c 128,-1,11
 1155 1138 1155 1138 1155 1016 c 0,12,13
 1155 913 1155 913 1138 795.5 c 128,-1,14
 1121 678 1121 678 1086.5 562.5 c 128,-1,15
 1052 447 1052 447 999 341 c 128,-1,16
 946 235 946 235 873.5 154 c 128,-1,17
 801 73 801 73 708 25 c 128,-1,18
 615 -23 615 -23 502 -23 c 0,19,20
 407 -23 407 -23 328.5 9 c 128,-1,21
 250 41 250 41 194 104 c 128,-1,22
 138 167 138 167 107 259.5 c 128,-1,23
 76 352 76 352 76 473 c 0,0,1
356 385 m 0,24,25
 356 248 356 248 399 182.5 c 128,-1,26
 442 117 442 117 514 117 c 0,27,28
 574 117 574 117 625 164.5 c 128,-1,29
 676 212 676 212 717 291 c 128,-1,30
 758 370 758 370 789.5 471 c 128,-1,31
 821 572 821 572 842 679.5 c 128,-1,32
 863 787 863 787 874 892 c 128,-1,33
 885 997 885 997 885 1083 c 0,34,35
 885 1218 885 1218 843.5 1283 c 128,-1,36
 802 1348 802 1348 727 1348 c 0,37,38
 669 1348 669 1348 619 1301 c 128,-1,39
 569 1254 569 1254 528 1176 c 128,-1,40
 487 1098 487 1098 455 997 c 128,-1,41
 423 896 423 896 401 789 c 128,-1,42
 379 682 379 682 367.5 577 c 128,-1,43
 356 472 356 472 356 385 c 0,24,25
EndSplineSet
EndChar

StartChar: one
Encoding: 49 49 20
Width: 1145
GlyphClass: 2
Flags: W
LayerCount: 2
Fore
SplineSet
969 1470 m 1,0,-1
 709 248 l 2,1,2
 706 235 706 235 701 212 c 128,-1,3
 696 189 696 189 696 176 c 0,4,5
 696 154 696 154 707.5 140.5 c 128,-1,6
 719 127 719 127 740 120 c 128,-1,7
 761 113 761 113 789 111 c 128,-1,8
 817 109 817 109 850 109 c 2,9,-1
 950 109 l 1,10,-1
 928 0 l 1,11,-1
 82 0 l 1,12,-1
 104 109 l 1,13,-1
 225 109 l 2,14,15
 298 109 298 109 343 138.5 c 128,-1,16
 388 168 388 168 403 242 c 2,17,-1
 561 987 l 2,18,19
 574 1049 574 1049 586 1100 c 128,-1,20
 598 1151 598 1151 608 1189 c 0,21,22
 619 1233 619 1233 629 1268 c 1,23,-1
 621 1268 l 1,24,25
 573 1218 573 1218 532.5 1178.5 c 128,-1,26
 492 1139 492 1139 457 1111.5 c 128,-1,27
 422 1084 422 1084 389.5 1069.5 c 128,-1,28
 357 1055 357 1055 324 1055 c 0,29,30
 280 1055 280 1055 252.5 1094.5 c 128,-1,31
 225 1134 225 1134 225 1206 c 1,32,33
 260 1215 260 1215 297 1227 c 128,-1,34
 334 1239 334 1239 376 1257 c 128,-1,35
 418 1275 418 1275 466.5 1300.5 c 128,-1,36
 515 1326 515 1326 573 1364 c 2,37,-1
 739 1470 l 1,38,-1
 969 1470 l 1,0,-1
EndSplineSet
EndChar

StartChar: two
Encoding: 50 50 21
Width: 1145
GlyphClass: 2
Flags: W
LayerCount: 2
Fore
SplineSet
-29 0 m 1,0,-1
 14 211 l 1,1,-1
 492 614 l 2,2,3
 596 702 596 702 663 775 c 128,-1,4
 730 848 730 848 769 912.5 c 128,-1,5
 808 977 808 977 823 1037.5 c 128,-1,6
 838 1098 838 1098 838 1163 c 0,7,8
 838 1205 838 1205 828.5 1240.5 c 128,-1,9
 819 1276 819 1276 800.5 1301.5 c 128,-1,10
 782 1327 782 1327 755 1341.5 c 128,-1,11
 728 1356 728 1356 694 1356 c 0,12,13
 643 1356 643 1356 603.5 1329 c 128,-1,14
 564 1302 564 1302 536 1255.5 c 128,-1,15
 508 1209 508 1209 491.5 1146 c 128,-1,16
 475 1083 475 1083 471 1010 c 1,17,18
 420 1010 420 1010 377 1020.5 c 128,-1,19
 334 1031 334 1031 302.5 1052.5 c 128,-1,20
 271 1074 271 1074 253.5 1107.5 c 128,-1,21
 236 1141 236 1141 236 1186 c 0,22,23
 236 1247 236 1247 267.5 1301 c 128,-1,24
 299 1355 299 1355 359.5 1395.5 c 128,-1,25
 420 1436 420 1436 509.5 1459.5 c 128,-1,26
 599 1483 599 1483 715 1483 c 0,27,28
 820 1483 820 1483 901 1463 c 128,-1,29
 982 1443 982 1443 1037 1406.5 c 128,-1,30
 1092 1370 1092 1370 1120.5 1317 c 128,-1,31
 1149 1264 1149 1264 1149 1198 c 0,32,33
 1149 1130 1149 1130 1121 1064.5 c 128,-1,34
 1093 999 1093 999 1037.5 930 c 128,-1,35
 982 861 982 861 899 785.5 c 128,-1,36
 816 710 816 710 707 621 c 2,37,-1
 215 225 l 1,38,-1
 692 225 l 2,39,40
 741 225 741 225 775.5 239.5 c 128,-1,41
 810 254 810 254 834 277.5 c 128,-1,42
 858 301 858 301 874.5 331 c 128,-1,43
 891 361 891 361 905 393 c 2,44,-1
 920 430 l 1,45,-1
 1040 430 l 1,46,-1
 940 0 l 1,47,-1
 -29 0 l 1,0,-1
EndSplineSet
EndChar

StartChar: three
Encoding: 51 51 22
Width: 1145
GlyphClass: 2
Flags: W
LayerCount: 2
Fore
SplineSet
457 125 m 0,0,1
 508 125 508 125 556 145 c 128,-1,2
 604 165 604 165 641 205.5 c 128,-1,3
 678 246 678 246 700.5 306 c 128,-1,4
 723 366 723 366 723 446 c 0,5,6
 723 564 723 564 647 628 c 128,-1,7
 571 692 571 692 434 692 c 2,8,-1
 346 692 l 1,9,-1
 367 819 l 1,10,-1
 432 819 l 2,11,12
 518 819 518 819 591 845 c 128,-1,13
 664 871 664 871 717.5 919 c 128,-1,14
 771 967 771 967 801 1034 c 128,-1,15
 831 1101 831 1101 831 1182 c 0,16,17
 831 1220 831 1220 822.5 1252.5 c 128,-1,18
 814 1285 814 1285 797 1308.5 c 128,-1,19
 780 1332 780 1332 753.5 1345 c 128,-1,20
 727 1358 727 1358 690 1358 c 0,21,22
 634 1358 634 1358 594.5 1333 c 128,-1,23
 555 1308 555 1308 528 1266 c 128,-1,24
 501 1224 501 1224 484 1168.5 c 128,-1,25
 467 1113 467 1113 457 1053 c 1,26,27
 408 1053 408 1053 365.5 1059.5 c 128,-1,28
 323 1066 323 1066 292 1081 c 128,-1,29
 261 1096 261 1096 243 1121 c 128,-1,30
 225 1146 225 1146 225 1184 c 0,31,32
 225 1247 225 1247 264.5 1301.5 c 128,-1,33
 304 1356 304 1356 372 1396.5 c 128,-1,34
 440 1437 440 1437 531.5 1460 c 128,-1,35
 623 1483 623 1483 727 1483 c 0,36,37
 821 1483 821 1483 898.5 1463.5 c 128,-1,38
 976 1444 976 1444 1031.5 1406.5 c 128,-1,39
 1087 1369 1087 1369 1117 1314.5 c 128,-1,40
 1147 1260 1147 1260 1147 1190 c 0,41,42
 1147 1118 1147 1118 1121.5 1049 c 128,-1,43
 1096 980 1096 980 1044.5 922.5 c 128,-1,44
 993 865 993 865 915.5 822.5 c 128,-1,45
 838 780 838 780 735 762 c 1,46,47
 806 754 806 754 863 731 c 128,-1,48
 920 708 920 708 959.5 670 c 128,-1,49
 999 632 999 632 1020.5 579.5 c 128,-1,50
 1042 527 1042 527 1042 461 c 0,51,52
 1042 370 1042 370 1016 299 c 128,-1,53
 990 228 990 228 945 175 c 128,-1,54
 900 122 900 122 840 84.5 c 128,-1,55
 780 47 780 47 712 24 c 128,-1,56
 644 1 644 1 571.5 -9.5 c 128,-1,57
 499 -20 499 -20 430 -20 c 0,58,59
 310 -20 310 -20 227.5 2.5 c 128,-1,60
 145 25 145 25 94 60.5 c 128,-1,61
 43 96 43 96 20.5 140 c 128,-1,62
 -2 184 -2 184 -2 227 c 0,63,64
 -2 308 -2 308 57.5 354.5 c 128,-1,65
 117 401 117 401 223 401 c 1,66,67
 223 341 223 341 237 290.5 c 128,-1,68
 251 240 251 240 280 203.5 c 128,-1,69
 309 167 309 167 353 146 c 128,-1,70
 397 125 397 125 457 125 c 0,0,1
EndSplineSet
EndChar

StartChar: four
Encoding: 52 52 23
Width: 1145
GlyphClass: 2
Flags: W
LayerCount: 2
Fore
SplineSet
674 874 m 2,0,1
 682 915 682 915 693 963.5 c 128,-1,2
 704 1012 704 1012 716.5 1064 c 128,-1,3
 729 1116 729 1116 743 1168 c 128,-1,4
 757 1220 757 1220 772 1268 c 1,5,6
 750 1233 750 1233 721 1191 c 128,-1,7
 692 1149 692 1149 661.5 1106.5 c 128,-1,8
 631 1064 631 1064 602 1026 c 128,-1,9
 573 988 573 988 551 961 c 2,10,-1
 188 516 l 1,11,-1
 598 516 l 1,12,-1
 674 874 l 2,0,1
264 0 m 1,13,-1
 285 109 l 1,14,-1
 344 109 l 2,15,16
 374 109 374 109 405 112.5 c 128,-1,17
 436 116 436 116 463 130.5 c 128,-1,18
 490 145 490 145 511 174.5 c 128,-1,19
 532 204 532 204 543 256 c 2,20,-1
 569 381 l 1,21,-1
 0 381 l 1,22,-1
 29 508 l 1,23,-1
 813 1462 l 1,24,-1
 1100 1462 l 1,25,-1
 897 516 l 1,26,-1
 1110 516 l 1,27,-1
 1081 381 l 1,28,-1
 868 381 l 1,29,-1
 842 254 l 2,30,31
 839 242 839 242 836.5 221 c 128,-1,32
 834 200 834 200 834 190 c 0,33,34
 834 164 834 164 843.5 148 c 128,-1,35
 853 132 853 132 870.5 123.5 c 128,-1,36
 888 115 888 115 913 112 c 128,-1,37
 938 109 938 109 969 109 c 2,38,-1
 1006 109 l 1,39,-1
 983 0 l 1,40,-1
 264 0 l 1,13,-1
EndSplineSet
EndChar

StartChar: five
Encoding: 53 53 24
Width: 1145
GlyphClass: 2
Flags: W
LayerCount: 2
Fore
SplineSet
434 123 m 0,0,1
 501 123 501 123 555.5 146 c 128,-1,2
 610 169 610 169 648.5 215 c 128,-1,3
 687 261 687 261 708 330.5 c 128,-1,4
 729 400 729 400 729 492 c 0,5,6
 729 558 729 558 710 607 c 128,-1,7
 691 656 691 656 658 689 c 128,-1,8
 625 722 625 722 579.5 738 c 128,-1,9
 534 754 534 754 481 754 c 0,10,11
 444 754 444 754 414 750 c 128,-1,12
 384 746 384 746 359 739.5 c 128,-1,13
 334 733 334 733 312 725 c 128,-1,14
 290 717 290 717 270 709 c 1,15,-1
 184 752 l 1,16,-1
 393 1462 l 1,17,-1
 1167 1462 l 1,18,-1
 1108 1090 l 1,19,-1
 983 1090 l 1,20,21
 985 1116 985 1116 987 1145.5 c 128,-1,22
 989 1175 989 1175 989 1188 c 0,23,24
 989 1211 989 1211 968 1225 c 128,-1,25
 947 1239 947 1239 889 1239 c 2,26,-1
 477 1239 l 1,27,-1
 356 856 l 1,28,29
 394 867 394 867 444 878 c 128,-1,30
 494 889 494 889 569 889 c 0,31,32
 675 889 675 889 761 864 c 128,-1,33
 847 839 847 839 907.5 790.5 c 128,-1,34
 968 742 968 742 1001 670.5 c 128,-1,35
 1034 599 1034 599 1034 506 c 0,36,37
 1034 394 1034 394 991 297.5 c 128,-1,38
 948 201 948 201 867.5 130.5 c 128,-1,39
 787 60 787 60 671 20 c 128,-1,40
 555 -20 555 -20 408 -20 c 0,41,42
 301 -20 301 -20 227 -1 c 128,-1,43
 153 18 153 18 107 50.5 c 128,-1,44
 61 83 61 83 40.5 126.5 c 128,-1,45
 20 170 20 170 20 219 c 0,46,47
 20 253 20 253 31.5 282.5 c 128,-1,48
 43 312 43 312 66.5 334.5 c 128,-1,49
 90 357 90 357 126 370 c 128,-1,50
 162 383 162 383 211 383 c 1,51,52
 212 339 212 339 221.5 293 c 128,-1,53
 231 247 231 247 255.5 209 c 128,-1,54
 280 171 280 171 323 147 c 128,-1,55
 366 123 366 123 434 123 c 0,0,1
EndSplineSet
EndChar

StartChar: six
Encoding: 54 54 25
Width: 1145
GlyphClass: 2
Flags: W
LayerCount: 2
Fore
SplineSet
829 1362 m 0,0,1
 697 1362 697 1362 598 1221.5 c 128,-1,2
 499 1081 499 1081 436 795 c 1,3,4
 459 813 459 813 489 831 c 128,-1,5
 519 849 519 849 556.5 863.5 c 128,-1,6
 594 878 594 878 638.5 887.5 c 128,-1,7
 683 897 683 897 735 897 c 0,8,9
 824 897 824 897 889.5 868 c 128,-1,10
 955 839 955 839 997.5 789.5 c 128,-1,11
 1040 740 1040 740 1060.5 674 c 128,-1,12
 1081 608 1081 608 1081 535 c 0,13,14
 1081 427 1081 427 1047.5 327 c 128,-1,15
 1014 227 1014 227 945.5 150 c 128,-1,16
 877 73 877 73 773.5 26.5 c 128,-1,17
 670 -20 670 -20 530 -20 c 0,18,19
 442 -20 442 -20 364.5 10.5 c 128,-1,20
 287 41 287 41 229 103 c 128,-1,21
 171 165 171 165 137.5 257.5 c 128,-1,22
 104 350 104 350 104 475 c 0,23,24
 104 603 104 603 127.5 727 c 128,-1,25
 151 851 151 851 196.5 963 c 128,-1,26
 242 1075 242 1075 308 1170 c 128,-1,27
 374 1265 374 1265 458.5 1335 c 128,-1,28
 543 1405 543 1405 645.5 1444 c 128,-1,29
 748 1483 748 1483 866 1483 c 0,30,31
 950 1483 950 1483 1013.5 1466 c 128,-1,32
 1077 1449 1077 1449 1120 1419.5 c 128,-1,33
 1163 1390 1163 1390 1184.5 1352 c 128,-1,34
 1206 1314 1206 1314 1206 1272 c 0,35,36
 1206 1190 1206 1190 1139 1144 c 128,-1,37
 1072 1098 1072 1098 950 1098 c 1,38,39
 950 1148 950 1148 946.5 1195.5 c 128,-1,40
 943 1243 943 1243 930.5 1280 c 128,-1,41
 918 1317 918 1317 894 1339.5 c 128,-1,42
 870 1362 870 1362 829 1362 c 0,0,1
641 772 m 0,43,44
 608 772 608 772 575.5 762.5 c 128,-1,45
 543 753 543 753 513 738 c 128,-1,46
 483 723 483 723 457 704 c 128,-1,47
 431 685 431 685 410 666 c 1,48,49
 385 517 385 517 385 410 c 0,50,51
 385 255 385 255 432 184 c 128,-1,52
 479 113 479 113 559 113 c 0,53,54
 611 113 611 113 654 144 c 128,-1,55
 697 175 697 175 728 229.5 c 128,-1,56
 759 284 759 284 776 358 c 128,-1,57
 793 432 793 432 793 518 c 0,58,59
 793 642 793 642 754.5 707 c 128,-1,60
 716 772 716 772 641 772 c 0,43,44
EndSplineSet
EndChar

StartChar: seven
Encoding: 55 55 26
Width: 1145
GlyphClass: 2
Flags: W
LayerCount: 2
Fore
SplineSet
213 0 m 1,0,-1
 1022 1239 l 1,1,-1
 496 1239 l 2,2,3
 440 1239 440 1239 404 1212.5 c 128,-1,4
 368 1186 368 1186 354 1135 c 2,5,-1
 326 1032 l 1,6,-1
 201 1032 l 1,7,-1
 285 1462 l 1,8,-1
 1262 1462 l 1,9,-1
 1239 1341 l 1,10,-1
 387 0 l 1,11,-1
 213 0 l 1,0,-1
EndSplineSet
EndChar

StartChar: eight
Encoding: 56 56 27
Width: 1145
GlyphClass: 2
Flags: W
LayerCount: 2
Fore
SplineSet
506 -20 m 0,0,1
 398 -20 398 -20 310 6 c 128,-1,2
 222 32 222 32 159 79 c 128,-1,3
 96 126 96 126 61.5 190.5 c 128,-1,4
 27 255 27 255 27 332 c 0,5,6
 27 418 27 418 58 480 c 128,-1,7
 89 542 89 542 143 589 c 128,-1,8
 197 636 197 636 270.5 672 c 128,-1,9
 344 708 344 708 430 741 c 1,10,11
 386 774 386 774 350 814.5 c 128,-1,12
 314 855 314 855 288 901 c 128,-1,13
 262 947 262 947 247.5 998 c 128,-1,14
 233 1049 233 1049 233 1104 c 0,15,16
 233 1181 233 1181 261.5 1250 c 128,-1,17
 290 1319 290 1319 352.5 1370.5 c 128,-1,18
 415 1422 415 1422 513.5 1452.5 c 128,-1,19
 612 1483 612 1483 752 1483 c 0,20,21
 849 1483 849 1483 925 1460.5 c 128,-1,22
 1001 1438 1001 1438 1053.5 1398 c 128,-1,23
 1106 1358 1106 1358 1133.5 1303 c 128,-1,24
 1161 1248 1161 1248 1161 1184 c 0,25,26
 1161 1106 1161 1106 1136 1046.5 c 128,-1,27
 1111 987 1111 987 1065.5 940 c 128,-1,28
 1020 893 1020 893 956.5 855.5 c 128,-1,29
 893 818 893 818 817 784 c 1,30,31
 870 750 870 750 915.5 711.5 c 128,-1,32
 961 673 961 673 994 627.5 c 128,-1,33
 1027 582 1027 582 1046 529 c 128,-1,34
 1065 476 1065 476 1065 414 c 0,35,36
 1065 302 1065 302 1024 220 c 128,-1,37
 983 138 983 138 908.5 85 c 128,-1,38
 834 32 834 32 731.5 6 c 128,-1,39
 629 -20 629 -20 506 -20 c 0,0,1
522 98 m 0,40,41
 576 98 576 98 624 114 c 128,-1,42
 672 130 672 130 708 162.5 c 128,-1,43
 744 195 744 195 765 243 c 128,-1,44
 786 291 786 291 786 356 c 0,45,46
 786 406 786 406 771 448 c 128,-1,47
 756 490 756 490 727 527.5 c 128,-1,48
 698 565 698 565 654.5 598.5 c 128,-1,49
 611 632 611 632 553 664 c 1,50,51
 436 616 436 616 369.5 533 c 128,-1,52
 303 450 303 450 303 324 c 0,53,54
 303 218 303 218 361 158 c 128,-1,55
 419 98 419 98 522 98 c 0,40,41
903 1169 m 0,56,57
 903 1211 903 1211 893.5 1246.5 c 128,-1,58
 884 1282 884 1282 864 1308 c 128,-1,59
 844 1334 844 1334 813.5 1349 c 128,-1,60
 783 1364 783 1364 741 1364 c 0,61,62
 693 1364 693 1364 652 1346.5 c 128,-1,63
 611 1329 611 1329 581 1296.5 c 128,-1,64
 551 1264 551 1264 533.5 1218 c 128,-1,65
 516 1172 516 1172 516 1114 c 0,66,67
 516 954 516 954 690 848 c 1,68,69
 749 879 749 879 790 914.5 c 128,-1,70
 831 950 831 950 856 990 c 128,-1,71
 881 1030 881 1030 892 1075 c 128,-1,72
 903 1120 903 1120 903 1169 c 0,56,57
EndSplineSet
EndChar

StartChar: nine
Encoding: 57 57 28
Width: 1145
GlyphClass: 2
Flags: W
LayerCount: 2
Fore
SplineSet
391 109 m 0,0,1
 466 109 466 109 526.5 148 c 128,-1,2
 587 187 587 187 637.5 262 c 128,-1,3
 688 337 688 337 730 447.5 c 128,-1,4
 772 558 772 558 811 702 c 1,5,6
 785 675 785 675 753 650 c 128,-1,7
 721 625 721 625 683 605.5 c 128,-1,8
 645 586 645 586 600 574.5 c 128,-1,9
 555 563 555 563 502 563 c 0,10,11
 420 563 420 563 356 588.5 c 128,-1,12
 292 614 292 614 248.5 659 c 128,-1,13
 205 704 205 704 182.5 766.5 c 128,-1,14
 160 829 160 829 160 903 c 0,15,16
 160 1031 160 1031 206.5 1138 c 128,-1,17
 253 1245 253 1245 332 1321.5 c 128,-1,18
 411 1398 411 1398 515.5 1440.5 c 128,-1,19
 620 1483 620 1483 737 1483 c 0,20,21
 829 1483 829 1483 903.5 1456 c 128,-1,22
 978 1429 978 1429 1030.5 1377.5 c 128,-1,23
 1083 1326 1083 1326 1111 1251 c 128,-1,24
 1139 1176 1139 1176 1139 1079 c 0,25,26
 1139 1055 1139 1055 1137 1019 c 128,-1,27
 1135 983 1135 983 1130.5 941 c 128,-1,28
 1126 899 1126 899 1118.5 852.5 c 128,-1,29
 1111 806 1111 806 1100 760 c 0,30,31
 1078 661 1078 661 1044.5 565 c 128,-1,32
 1011 469 1011 469 964.5 382.5 c 128,-1,33
 918 296 918 296 858.5 222 c 128,-1,34
 799 148 799 148 725 94.5 c 128,-1,35
 651 41 651 41 562.5 10.5 c 128,-1,36
 474 -20 474 -20 369 -20 c 0,37,38
 287 -20 287 -20 228 -3 c 128,-1,39
 169 14 169 14 131 42.5 c 128,-1,40
 93 71 93 71 75 109 c 128,-1,41
 57 147 57 147 57 190 c 0,42,43
 57 259 57 259 99.5 295.5 c 128,-1,44
 142 332 142 332 217 332 c 1,45,46
 218 293 218 293 228 253 c 128,-1,47
 238 213 238 213 259 181 c 128,-1,48
 280 149 280 149 312.5 129 c 128,-1,49
 345 109 345 109 391 109 c 0,0,1
606 711 m 1,50,51
 646 712 646 712 680.5 726 c 128,-1,52
 715 740 715 740 744.5 762.5 c 128,-1,53
 774 785 774 785 798 813 c 128,-1,54
 822 841 822 841 840 870 c 1,55,56
 846 895 846 895 851.5 925 c 128,-1,57
 857 955 857 955 861 985 c 128,-1,58
 865 1015 865 1015 867.5 1043 c 128,-1,59
 870 1071 870 1071 870 1092 c 0,60,61
 870 1159 870 1159 859 1207.5 c 128,-1,62
 848 1256 848 1256 827.5 1286.5 c 128,-1,63
 807 1317 807 1317 779.5 1331.5 c 128,-1,64
 752 1346 752 1346 719 1346 c 0,65,66
 661 1346 661 1346 612.5 1308 c 128,-1,67
 564 1270 564 1270 529 1208.5 c 128,-1,68
 494 1147 494 1147 474.5 1069.5 c 128,-1,69
 455 992 455 992 455 913 c 0,70,71
 455 813 455 813 496 762 c 128,-1,72
 537 711 537 711 606 711 c 1,50,51
EndSplineSet
EndChar

StartChar: colon
Encoding: 58 58 29
Width: 733
GlyphClass: 2
Flags: W
LayerCount: 2
Fore
SplineSet
434 168 m 0,0,1
 434 117 434 117 418.5 81.5 c 128,-1,2
 403 46 403 46 377.5 24.5 c 128,-1,3
 352 3 352 3 320 -6.5 c 128,-1,4
 288 -16 288 -16 256 -16 c 0,5,6
 182 -16 182 -16 136 20 c 128,-1,7
 90 56 90 56 90 131 c 0,8,9
 90 173 90 173 102.5 207 c 128,-1,10
 115 241 115 241 138.5 265 c 128,-1,11
 162 289 162 289 194.5 302 c 128,-1,12
 227 315 227 315 268 315 c 0,13,14
 303 315 303 315 333.5 306 c 128,-1,15
 364 297 364 297 386.5 279 c 128,-1,16
 409 261 409 261 421.5 233 c 128,-1,17
 434 205 434 205 434 168 c 0,0,1
614 961 m 0,18,19
 614 909 614 909 598.5 873.5 c 128,-1,20
 583 838 583 838 557.5 816.5 c 128,-1,21
 532 795 532 795 500 785.5 c 128,-1,22
 468 776 468 776 436 776 c 0,23,24
 362 776 362 776 316 812 c 128,-1,25
 270 848 270 848 270 924 c 0,26,27
 270 965 270 965 282.5 999 c 128,-1,28
 295 1033 295 1033 318.5 1057 c 128,-1,29
 342 1081 342 1081 375 1094.5 c 128,-1,30
 408 1108 408 1108 449 1108 c 0,31,32
 484 1108 484 1108 514.5 1099 c 128,-1,33
 545 1090 545 1090 567 1072 c 128,-1,34
 589 1054 589 1054 601.5 1026 c 128,-1,35
 614 998 614 998 614 961 c 0,18,19
EndSplineSet
EndChar

StartChar: semicolon
Encoding: 59 59 30
Width: 733
GlyphClass: 2
Flags: W
LayerCount: 2
Fore
SplineSet
428 127 m 0,0,1
 428 49 428 49 399.5 -21 c 128,-1,2
 371 -91 371 -91 314.5 -148 c 128,-1,3
 258 -205 258 -205 173.5 -246.5 c 128,-1,4
 89 -288 89 -288 -23 -309 c 1,5,-1
 0 -201 l 1,6,7
 211 -151 211 -151 211 -31 c 0,8,9
 211 -10 211 -10 202.5 5.5 c 128,-1,10
 194 21 194 21 181 33.5 c 128,-1,11
 168 46 168 46 153.5 58 c 128,-1,12
 139 70 139 70 126 85.5 c 128,-1,13
 113 101 113 101 104.5 121.5 c 128,-1,14
 96 142 96 142 96 172 c 0,15,16
 96 205 96 205 108.5 231 c 128,-1,17
 121 257 121 257 142 275.5 c 128,-1,18
 163 294 163 294 191 303.5 c 128,-1,19
 219 313 219 313 250 313 c 0,20,21
 287 313 287 313 319.5 300.5 c 128,-1,22
 352 288 352 288 376 264.5 c 128,-1,23
 400 241 400 241 414 206.5 c 128,-1,24
 428 172 428 172 428 127 c 0,0,1
614 961 m 0,25,26
 614 909 614 909 598.5 873.5 c 128,-1,27
 583 838 583 838 557.5 816.5 c 128,-1,28
 532 795 532 795 500 785.5 c 128,-1,29
 468 776 468 776 436 776 c 0,30,31
 362 776 362 776 316 812 c 128,-1,32
 270 848 270 848 270 924 c 0,33,34
 270 965 270 965 282.5 999 c 128,-1,35
 295 1033 295 1033 318.5 1057 c 128,-1,36
 342 1081 342 1081 375 1094.5 c 128,-1,37
 408 1108 408 1108 449 1108 c 0,38,39
 484 1108 484 1108 514.5 1099 c 128,-1,40
 545 1090 545 1090 567 1072 c 128,-1,41
 589 1054 589 1054 601.5 1026 c 128,-1,42
 614 998 614 998 614 961 c 0,25,26
EndSplineSet
EndChar

StartChar: less
Encoding: 60 60 31
Width: 1145
GlyphClass: 2
Flags: W
LayerCount: 2
Fore
SplineSet
166 690 m 1,0,-1
 166 774 l 1,1,-1
 1044 1253 l 1,2,-1
 1044 1092 l 1,3,-1
 385 731 l 1,4,-1
 1044 375 l 1,5,-1
 1044 213 l 1,6,-1
 166 690 l 1,0,-1
EndSplineSet
EndChar

StartChar: equal
Encoding: 61 61 32
Width: 1145
GlyphClass: 2
Flags: W
LayerCount: 2
Fore
SplineSet
1053 604 m 1,0,-1
 1053 461 l 1,1,-1
 166 461 l 1,2,-1
 166 604 l 1,3,-1
 1053 604 l 1,0,-1
1053 1001 m 1,4,-1
 1053 858 l 1,5,-1
 166 858 l 1,6,-1
 166 1001 l 1,7,-1
 1053 1001 l 1,4,-1
EndSplineSet
EndChar

StartChar: greater
Encoding: 62 62 33
Width: 1145
GlyphClass: 2
Flags: W
LayerCount: 2
Fore
SplineSet
166 213 m 1,0,-1
 166 375 l 1,1,-1
 825 731 l 1,2,-1
 166 1092 l 1,3,-1
 166 1253 l 1,4,-1
 1044 774 l 1,5,-1
 1044 690 l 1,6,-1
 166 213 l 1,0,-1
EndSplineSet
EndChar

StartChar: question
Encoding: 63 63 34
Width: 1096
GlyphClass: 2
Flags: W
LayerCount: 2
Fore
SplineSet
1122 1143 m 0,0,1
 1122 1054 1122 1054 1083 980.5 c 128,-1,2
 1044 907 1044 907 976 846.5 c 128,-1,3
 908 786 908 786 814.5 737 c 128,-1,4
 721 688 721 688 612 649 c 1,5,-1
 539 467 l 1,6,-1
 408 467 l 1,7,-1
 403 721 l 1,8,9
 494 754 494 754 567.5 793.5 c 128,-1,10
 641 833 641 833 693.5 883.5 c 128,-1,11
 746 934 746 934 774.5 998.5 c 128,-1,12
 803 1063 803 1063 803 1147 c 0,13,14
 803 1198 803 1198 791.5 1237 c 128,-1,15
 780 1276 780 1276 760.5 1303 c 128,-1,16
 741 1330 741 1330 713.5 1344 c 128,-1,17
 686 1358 686 1358 655 1358 c 0,18,19
 607 1358 607 1358 572.5 1333 c 128,-1,20
 538 1308 538 1308 515 1266.5 c 128,-1,21
 492 1225 492 1225 479 1171 c 128,-1,22
 466 1117 466 1117 459 1059 c 1,23,24
 207 1059 207 1059 207 1217 c 0,25,26
 207 1272 207 1272 240 1320.5 c 128,-1,27
 273 1369 273 1369 334.5 1405 c 128,-1,28
 396 1441 396 1441 483.5 1462 c 128,-1,29
 571 1483 571 1483 680 1483 c 0,30,31
 782 1483 782 1483 864 1463 c 128,-1,32
 946 1443 946 1443 1003 1401 c 128,-1,33
 1060 1359 1060 1359 1091 1295 c 128,-1,34
 1122 1231 1122 1231 1122 1143 c 0,0,1
602 168 m 0,35,36
 602 117 602 117 586.5 81.5 c 128,-1,37
 571 46 571 46 545.5 24.5 c 128,-1,38
 520 3 520 3 488 -6.5 c 128,-1,39
 456 -16 456 -16 424 -16 c 0,40,41
 350 -16 350 -16 304 20 c 128,-1,42
 258 56 258 56 258 131 c 0,43,44
 258 173 258 173 270.5 207 c 128,-1,45
 283 241 283 241 306.5 265 c 128,-1,46
 330 289 330 289 362.5 302 c 128,-1,47
 395 315 395 315 436 315 c 0,48,49
 471 315 471 315 501.5 306 c 128,-1,50
 532 297 532 297 554.5 279 c 128,-1,51
 577 261 577 261 589.5 233 c 128,-1,52
 602 205 602 205 602 168 c 0,35,36
EndSplineSet
EndChar

StartChar: at
Encoding: 64 64 35
Width: 1886
GlyphClass: 2
Flags: W
LayerCount: 2
Fore
SplineSet
1790 803 m 0,0,1
 1790 650 1790 650 1753 530 c 128,-1,2
 1716 410 1716 410 1656 327.5 c 128,-1,3
 1596 245 1596 245 1520.5 201.5 c 128,-1,4
 1445 158 1445 158 1368 158 c 0,5,6
 1277 158 1277 158 1213.5 202.5 c 128,-1,7
 1150 247 1150 247 1116 350 c 1,8,-1
 1104 350 l 1,9,10
 1083 310 1083 310 1056 275 c 128,-1,11
 1029 240 1029 240 995 214 c 128,-1,12
 961 188 961 188 918 173 c 128,-1,13
 875 158 875 158 821 158 c 0,14,15
 756 158 756 158 698 179 c 128,-1,16
 640 200 640 200 596 243 c 128,-1,17
 552 286 552 286 526 352 c 128,-1,18
 500 418 500 418 500 508 c 0,19,20
 500 563 500 563 513 627 c 128,-1,21
 526 691 526 691 554 754.5 c 128,-1,22
 582 818 582 818 626 877.5 c 128,-1,23
 670 937 670 937 731 982.5 c 128,-1,24
 792 1028 792 1028 871.5 1055.5 c 128,-1,25
 951 1083 951 1083 1051 1083 c 0,26,27
 1122 1083 1122 1083 1172.5 1065 c 128,-1,28
 1223 1047 1223 1047 1255 1022 c 1,29,-1
 1341 1065 l 1,30,-1
 1391 1065 l 1,31,-1
 1305 553 l 2,32,33
 1302 541 1302 541 1299.5 522 c 128,-1,34
 1297 503 1297 503 1295 483 c 128,-1,35
 1293 463 1293 463 1291.5 444.5 c 128,-1,36
 1290 426 1290 426 1290 414 c 0,37,38
 1290 372 1290 372 1299 345 c 128,-1,39
 1308 318 1308 318 1322 302.5 c 128,-1,40
 1336 287 1336 287 1354 281.5 c 128,-1,41
 1372 276 1372 276 1389 276 c 0,42,43
 1429 276 1429 276 1471 310 c 128,-1,44
 1513 344 1513 344 1547 409.5 c 128,-1,45
 1581 475 1581 475 1602.5 572 c 128,-1,46
 1624 669 1624 669 1624 795 c 0,47,48
 1624 935 1624 935 1581.5 1040.5 c 128,-1,49
 1539 1146 1539 1146 1463 1216.5 c 128,-1,50
 1387 1287 1387 1287 1282.5 1322.5 c 128,-1,51
 1178 1358 1178 1358 1055 1358 c 0,52,53
 958 1358 958 1358 863.5 1331 c 128,-1,54
 769 1304 769 1304 683.5 1252 c 128,-1,55
 598 1200 598 1200 526 1124.5 c 128,-1,56
 454 1049 454 1049 401 952.5 c 128,-1,57
 348 856 348 856 318.5 739 c 128,-1,58
 289 622 289 622 289 487 c 0,59,60
 289 306 289 306 343 178 c 128,-1,61
 397 50 397 50 489.5 -31 c 128,-1,62
 582 -112 582 -112 705.5 -149 c 128,-1,63
 829 -186 829 -186 967 -186 c 0,64,65
 1050 -186 1050 -186 1129 -171 c 128,-1,66
 1208 -156 1208 -156 1279 -132 c 128,-1,67
 1350 -108 1350 -108 1411 -77 c 128,-1,68
 1472 -46 1472 -46 1520 -14 c 1,69,-1
 1569 -92 l 1,70,71
 1515 -133 1515 -133 1446 -169 c 128,-1,72
 1377 -205 1377 -205 1297 -232 c 128,-1,73
 1217 -259 1217 -259 1126 -275 c 128,-1,74
 1035 -291 1035 -291 938 -291 c 0,75,76
 821 -291 821 -291 713 -269.5 c 128,-1,77
 605 -248 605 -248 510.5 -204 c 128,-1,78
 416 -160 416 -160 338 -94.5 c 128,-1,79
 260 -29 260 -29 204.5 59 c 128,-1,80
 149 147 149 147 118.5 257 c 128,-1,81
 88 367 88 367 88 500 c 0,82,83
 88 637 88 637 121.5 762 c 128,-1,84
 155 887 155 887 216.5 993.5 c 128,-1,85
 278 1100 278 1100 366 1186.5 c 128,-1,86
 454 1273 454 1273 563 1334.5 c 128,-1,87
 672 1396 672 1396 799.5 1429 c 128,-1,88
 927 1462 927 1462 1069 1462 c 0,89,90
 1246 1462 1246 1462 1381 1411 c 128,-1,91
 1516 1360 1516 1360 1607 1271.5 c 128,-1,92
 1698 1183 1698 1183 1744 1062.5 c 128,-1,93
 1790 942 1790 942 1790 803 c 0,0,1
752 487 m 0,94,95
 752 385 752 385 788 330.5 c 128,-1,96
 824 276 824 276 883 276 c 0,97,98
 926 276 926 276 957.5 297 c 128,-1,99
 989 318 989 318 1011 352.5 c 128,-1,100
 1033 387 1033 387 1047 430 c 128,-1,101
 1061 473 1061 473 1069 518 c 2,102,-1
 1151 936 l 1,103,104
 1145 950 1145 950 1133.5 960.5 c 128,-1,105
 1122 971 1122 971 1107 978.5 c 128,-1,106
 1092 986 1092 986 1075 989.5 c 128,-1,107
 1058 993 1058 993 1042 993 c 0,108,109
 990 993 990 993 948.5 967 c 128,-1,110
 907 941 907 941 875 898.5 c 128,-1,111
 843 856 843 856 819.5 801.5 c 128,-1,112
 796 747 796 747 781 691 c 128,-1,113
 766 635 766 635 759 581.5 c 128,-1,114
 752 528 752 528 752 487 c 0,94,95
EndSplineSet
EndChar

StartChar: A
Encoding: 65 65 36
Width: 1542
GlyphClass: 2
Flags: W
LayerCount: 2
Fore
SplineSet
438 481 m 1,0,-1
 338 297 l 2,1,2
 318 260 318 260 308.5 232 c 128,-1,3
 299 204 299 204 299 182 c 0,4,5
 299 144 299 144 327 126.5 c 128,-1,6
 355 109 355 109 414 109 c 2,7,-1
 455 109 l 1,8,-1
 432 0 l 1,9,-1
 -100 0 l 1,10,-1
 -78 109 l 1,11,-1
 -35 109 l 2,12,13
 -7 109 -7 109 14.5 115.5 c 128,-1,14
 36 122 36 122 56 140 c 128,-1,15
 76 158 76 158 97.5 189 c 128,-1,16
 119 220 119 220 147 268 c 2,17,-1
 842 1462 l 1,18,-1
 1122 1462 l 1,19,-1
 1294 256 l 2,20,21
 1299 224 1299 224 1307.5 197 c 128,-1,22
 1316 170 1316 170 1330 150.5 c 128,-1,23
 1344 131 1344 131 1365.5 120 c 128,-1,24
 1387 109 1387 109 1419 109 c 2,25,-1
 1456 109 l 1,26,-1
 1434 0 l 1,27,-1
 758 0 l 1,28,-1
 780 109 l 1,29,-1
 827 109 l 2,30,31
 893 109 893 109 932 129.5 c 128,-1,32
 971 150 971 150 971 195 c 0,33,34
 971 212 971 212 970 228.5 c 128,-1,35
 969 245 969 245 967 260 c 2,36,-1
 936 481 l 1,37,-1
 438 481 l 1,0,-1
885 950 m 2,38,39
 880 995 880 995 875.5 1034.5 c 128,-1,40
 871 1074 871 1074 867.5 1111 c 128,-1,41
 864 1148 864 1148 861.5 1183 c 128,-1,42
 859 1218 859 1218 858 1255 c 1,43,44
 843 1218 843 1218 828 1186.5 c 128,-1,45
 813 1155 813 1155 796 1122.5 c 128,-1,46
 779 1090 779 1090 758.5 1053.5 c 128,-1,47
 738 1017 738 1017 711 969 c 2,48,-1
 508 606 l 1,49,-1
 922 606 l 1,50,-1
 885 950 l 2,38,39
EndSplineSet
EndChar

StartChar: B
Encoding: 66 66 37
Width: 1376
GlyphClass: 2
Flags: W
LayerCount: 2
Fore
SplineSet
-25 109 m 1,0,-1
 2 109 l 2,1,2
 34 109 34 109 64.5 113 c 128,-1,3
 95 117 95 117 120 130 c 128,-1,4
 145 143 145 143 163.5 167 c 128,-1,5
 182 191 182 191 190 231 c 2,6,-1
 399 1217 l 2,7,8
 404 1237 404 1237 408 1256.5 c 128,-1,9
 412 1276 412 1276 412 1284 c 0,10,11
 412 1306 412 1306 401 1320 c 128,-1,12
 390 1334 390 1334 370.5 1341.5 c 128,-1,13
 351 1349 351 1349 323.5 1351.5 c 128,-1,14
 296 1354 296 1354 264 1354 c 2,15,-1
 238 1354 l 1,16,-1
 260 1462 l 1,17,-1
 895 1462 l 2,18,19
 1133 1462 1133 1462 1253.5 1384.5 c 128,-1,20
 1374 1307 1374 1307 1374 1155 c 0,21,22
 1374 1071 1374 1071 1348.5 1007 c 128,-1,23
 1323 943 1323 943 1278 896.5 c 128,-1,24
 1233 850 1233 850 1172 820 c 128,-1,25
 1111 790 1111 790 1040 774 c 1,26,-1
 1038 766 l 1,27,28
 1093 756 1093 756 1139 732 c 128,-1,29
 1185 708 1185 708 1218 670.5 c 128,-1,30
 1251 633 1251 633 1269.5 582 c 128,-1,31
 1288 531 1288 531 1288 467 c 0,32,33
 1288 355 1288 355 1250 268 c 128,-1,34
 1212 181 1212 181 1138 121.5 c 128,-1,35
 1064 62 1064 62 953.5 31 c 128,-1,36
 843 0 843 0 698 0 c 2,37,-1
 -47 0 l 1,38,-1
 -25 109 l 1,0,-1
489 125 m 1,39,-1
 631 125 l 2,40,41
 718 125 718 125 778.5 148 c 128,-1,42
 839 171 839 171 877 216 c 128,-1,43
 915 261 915 261 932.5 327.5 c 128,-1,44
 950 394 950 394 950 481 c 0,45,46
 950 593 950 593 899 647.5 c 128,-1,47
 848 702 848 702 741 702 c 2,48,-1
 612 702 l 1,49,-1
 489 125 l 1,39,-1
639 829 m 1,50,-1
 754 829 l 2,51,52
 899 829 899 829 963.5 904.5 c 128,-1,53
 1028 980 1028 980 1028 1120 c 0,54,55
 1028 1229 1028 1229 979 1283 c 128,-1,56
 930 1337 930 1337 836 1337 c 2,57,-1
 745 1337 l 1,58,-1
 639 829 l 1,50,-1
EndSplineSet
EndChar

StartChar: C
Encoding: 67 67 38
Width: 1368
GlyphClass: 2
Flags: W
LayerCount: 2
Fore
SplineSet
823 152 m 0,0,1
 894 152 894 152 951 168 c 128,-1,2
 1008 184 1008 184 1053 210.5 c 128,-1,3
 1098 237 1098 237 1132 270 c 128,-1,4
 1166 303 1166 303 1192 338 c 1,5,6
 1204 329 1204 329 1215.5 310 c 128,-1,7
 1227 291 1227 291 1227 268 c 0,8,9
 1227 217 1227 217 1196 165.5 c 128,-1,10
 1165 114 1165 114 1104.5 72.5 c 128,-1,11
 1044 31 1044 31 955 5.5 c 128,-1,12
 866 -20 866 -20 750 -20 c 0,13,14
 603 -20 603 -20 487.5 16.5 c 128,-1,15
 372 53 372 53 292.5 123.5 c 128,-1,16
 213 194 213 194 171 296.5 c 128,-1,17
 129 399 129 399 129 530 c 0,18,19
 129 653 129 653 158 772 c 128,-1,20
 187 891 187 891 242 998 c 128,-1,21
 297 1105 297 1105 376.5 1195 c 128,-1,22
 456 1285 456 1285 556.5 1351 c 128,-1,23
 657 1417 657 1417 777 1454 c 128,-1,24
 897 1491 897 1491 1034 1491 c 0,25,26
 1136 1491 1136 1491 1212.5 1473.5 c 128,-1,27
 1289 1456 1289 1456 1339.5 1424.5 c 128,-1,28
 1390 1393 1390 1393 1415 1347.5 c 128,-1,29
 1440 1302 1440 1302 1440 1247 c 0,30,31
 1440 1202 1440 1202 1418 1168 c 128,-1,32
 1396 1134 1396 1134 1357.5 1110.5 c 128,-1,33
 1319 1087 1319 1087 1266 1075 c 128,-1,34
 1213 1063 1213 1063 1151 1063 c 1,35,36
 1151 1106 1151 1106 1145 1158 c 128,-1,37
 1139 1210 1139 1210 1120.5 1255 c 128,-1,38
 1102 1300 1102 1300 1068 1330 c 128,-1,39
 1034 1360 1034 1360 977 1360 c 0,40,41
 896 1360 896 1360 827.5 1323 c 128,-1,42
 759 1286 759 1286 702.5 1222.5 c 128,-1,43
 646 1159 646 1159 602.5 1075 c 128,-1,44
 559 991 559 991 529.5 897.5 c 128,-1,45
 500 804 500 804 484.5 706.5 c 128,-1,46
 469 609 469 609 469 518 c 0,47,48
 469 343 469 343 558 247.5 c 128,-1,49
 647 152 647 152 823 152 c 0,0,1
EndSplineSet
EndChar

StartChar: D
Encoding: 68 68 39
Width: 1573
GlyphClass: 2
Flags: W
LayerCount: 2
Fore
SplineSet
-27 109 m 1,0,-1
 2 109 l 2,1,2
 34 109 34 109 64.5 113 c 128,-1,3
 95 117 95 117 120 130 c 128,-1,4
 145 143 145 143 163.5 167 c 128,-1,5
 182 191 182 191 190 231 c 2,6,-1
 403 1237 l 1,7,8
 407 1248 407 1248 409.5 1262 c 128,-1,9
 412 1276 412 1276 412 1284 c 0,10,11
 412 1306 412 1306 401 1320 c 128,-1,12
 390 1334 390 1334 370.5 1341.5 c 128,-1,13
 351 1349 351 1349 323.5 1351.5 c 128,-1,14
 296 1354 296 1354 264 1354 c 2,15,-1
 238 1354 l 1,16,-1
 260 1462 l 1,17,-1
 915 1462 l 2,18,19
 1062 1462 1062 1462 1177.5 1426 c 128,-1,20
 1293 1390 1293 1390 1372.5 1319.5 c 128,-1,21
 1452 1249 1452 1249 1494 1145 c 128,-1,22
 1536 1041 1536 1041 1536 905 c 0,23,24
 1536 783 1536 783 1510.5 668.5 c 128,-1,25
 1485 554 1485 554 1435.5 453.5 c 128,-1,26
 1386 353 1386 353 1313 269.5 c 128,-1,27
 1240 186 1240 186 1144 126 c 128,-1,28
 1048 66 1048 66 929.5 33 c 128,-1,29
 811 0 811 0 672 0 c 2,30,-1
 -49 0 l 1,31,-1
 -27 109 l 1,0,-1
584 127 m 2,32,33
 728 127 728 127 841 185.5 c 128,-1,34
 954 244 954 244 1032 349.5 c 128,-1,35
 1110 455 1110 455 1151 601 c 128,-1,36
 1192 747 1192 747 1192 922 c 0,37,38
 1192 1029 1192 1029 1167 1107.5 c 128,-1,39
 1142 1186 1142 1186 1095.5 1237 c 128,-1,40
 1049 1288 1049 1288 982.5 1312.5 c 128,-1,41
 916 1337 916 1337 834 1337 c 2,42,-1
 748 1337 l 1,43,-1
 492 127 l 1,44,-1
 584 127 l 2,32,33
EndSplineSet
EndChar

StartChar: E
Encoding: 69 69 40
Width: 1296
GlyphClass: 2
Flags: W
LayerCount: 2
Fore
SplineSet
-25 109 m 1,0,-1
 2 109 l 2,1,2
 34 109 34 109 64.5 113 c 128,-1,3
 95 117 95 117 120 130 c 128,-1,4
 145 143 145 143 163.5 167 c 128,-1,5
 182 191 182 191 190 231 c 2,6,-1
 403 1237 l 1,7,8
 407 1248 407 1248 409.5 1262 c 128,-1,9
 412 1276 412 1276 412 1284 c 0,10,11
 412 1306 412 1306 401 1320 c 128,-1,12
 390 1334 390 1334 370.5 1341.5 c 128,-1,13
 351 1349 351 1349 323.5 1351.5 c 128,-1,14
 296 1354 296 1354 264 1354 c 2,15,-1
 238 1354 l 1,16,-1
 260 1462 l 1,17,-1
 1372 1462 l 1,18,-1
 1300 1081 l 1,19,-1
 1155 1081 l 1,20,21
 1156 1088 1156 1088 1157.5 1106 c 128,-1,22
 1159 1124 1159 1124 1160.5 1143.5 c 128,-1,23
 1162 1163 1162 1163 1163.5 1179.5 c 128,-1,24
 1165 1196 1165 1196 1165 1200 c 0,25,26
 1165 1228 1165 1228 1157 1253 c 128,-1,27
 1149 1278 1149 1278 1132 1297 c 128,-1,28
 1115 1316 1115 1316 1087.5 1326.5 c 128,-1,29
 1060 1337 1060 1337 1020 1337 c 2,30,-1
 748 1337 l 1,31,-1
 639 825 l 1,32,-1
 1104 825 l 1,33,-1
 1077 702 l 1,34,-1
 612 702 l 1,35,-1
 489 125 l 1,36,-1
 813 125 l 2,37,38
 861 125 861 125 899 138.5 c 128,-1,39
 937 152 937 152 965 175 c 128,-1,40
 993 198 993 198 1012.5 228.5 c 128,-1,41
 1032 259 1032 259 1044 293 c 2,42,-1
 1077 381 l 1,43,-1
 1223 381 l 1,44,-1
 1128 0 l 1,45,-1
 -47 0 l 1,46,-1
 -25 109 l 1,0,-1
EndSplineSet
EndChar

StartChar: F
Encoding: 70 70 41
Width: 1272
GlyphClass: 2
Flags: W
LayerCount: 2
Fore
SplineSet
514 242 m 2,0,1
 509 219 509 219 506.5 202.5 c 128,-1,2
 504 186 504 186 504 178 c 0,3,4
 504 156 504 156 515 142.5 c 128,-1,5
 526 129 526 129 546 121.5 c 128,-1,6
 566 114 566 114 593.5 111.5 c 128,-1,7
 621 109 621 109 653 109 c 2,8,-1
 680 109 l 1,9,-1
 657 0 l 1,10,-1
 -47 0 l 1,11,-1
 -25 109 l 1,12,-1
 2 109 l 2,13,14
 34 109 34 109 64.5 113 c 128,-1,15
 95 117 95 117 120 130 c 128,-1,16
 145 143 145 143 163.5 167 c 128,-1,17
 182 191 182 191 190 231 c 2,18,-1
 399 1214 l 1,19,20
 412 1267 412 1267 412 1284 c 0,21,22
 412 1306 412 1306 401 1320 c 128,-1,23
 390 1334 390 1334 370.5 1341.5 c 128,-1,24
 351 1349 351 1349 323.5 1351.5 c 128,-1,25
 296 1354 296 1354 264 1354 c 2,26,-1
 238 1354 l 1,27,-1
 260 1462 l 1,28,-1
 1386 1462 l 1,29,-1
 1315 1081 l 1,30,-1
 1169 1081 l 1,31,32
 1171 1098 1171 1098 1173 1117 c 128,-1,33
 1175 1136 1175 1136 1176.5 1153.5 c 128,-1,34
 1178 1171 1178 1171 1179 1183.5 c 128,-1,35
 1180 1196 1180 1196 1180 1200 c 0,36,37
 1180 1229 1180 1229 1172 1254 c 128,-1,38
 1164 1279 1164 1279 1146 1297.5 c 128,-1,39
 1128 1316 1128 1316 1098.5 1326.5 c 128,-1,40
 1069 1337 1069 1337 1026 1337 c 2,41,-1
 748 1337 l 1,42,-1
 629 778 l 1,43,-1
 1114 778 l 1,44,-1
 1090 657 l 1,45,-1
 604 657 l 1,46,-1
 514 242 l 2,0,1
EndSplineSet
EndChar

StartChar: G
Encoding: 71 71 42
Width: 1630
GlyphClass: 2
Flags: W
LayerCount: 2
Fore
SplineSet
1544 590 m 1,0,-1
 1542 590 l 2,1,2
 1508 590 1508 590 1476.5 585.5 c 128,-1,3
 1445 581 1445 581 1419.5 568 c 128,-1,4
 1394 555 1394 555 1375 530 c 128,-1,5
 1356 505 1356 505 1348 465 c 2,6,-1
 1270 74 l 1,7,8
 1208 50 1208 50 1148.5 32.5 c 128,-1,9
 1089 15 1089 15 1027.5 3 c 128,-1,10
 966 -9 966 -9 901 -14.5 c 128,-1,11
 836 -20 836 -20 764 -20 c 0,12,13
 606 -20 606 -20 487.5 18 c 128,-1,14
 369 56 369 56 289 127 c 128,-1,15
 209 198 209 198 169 299.5 c 128,-1,16
 129 401 129 401 129 528 c 0,17,18
 129 660 129 660 160 782.5 c 128,-1,19
 191 905 191 905 249 1011 c 128,-1,20
 307 1117 307 1117 391 1204 c 128,-1,21
 475 1291 475 1291 580 1353 c 128,-1,22
 685 1415 685 1415 810.5 1449 c 128,-1,23
 936 1483 936 1483 1077 1483 c 0,24,25
 1195 1483 1195 1483 1282 1462 c 128,-1,26
 1369 1441 1369 1441 1427 1407 c 128,-1,27
 1485 1373 1485 1373 1513.5 1329 c 128,-1,28
 1542 1285 1542 1285 1542 1239 c 0,29,30
 1542 1199 1542 1199 1518.5 1164.5 c 128,-1,31
 1495 1130 1495 1130 1455 1104.5 c 128,-1,32
 1415 1079 1415 1079 1360.5 1064 c 128,-1,33
 1306 1049 1306 1049 1245 1049 c 1,34,35
 1245 1113 1245 1113 1231.5 1168.5 c 128,-1,36
 1218 1224 1218 1224 1189.5 1265 c 128,-1,37
 1161 1306 1161 1306 1117.5 1329 c 128,-1,38
 1074 1352 1074 1352 1014 1352 c 0,39,40
 936 1352 936 1352 865 1320 c 128,-1,41
 794 1288 794 1288 733 1231 c 128,-1,42
 672 1174 672 1174 622.5 1095 c 128,-1,43
 573 1016 573 1016 538 922 c 128,-1,44
 503 828 503 828 484 721.5 c 128,-1,45
 465 615 465 615 465 504 c 0,46,47
 465 418 465 418 482 347.5 c 128,-1,48
 499 277 499 277 536.5 226 c 128,-1,49
 574 175 574 175 632.5 147 c 128,-1,50
 691 119 691 119 774 119 c 0,51,52
 821 119 821 119 870 127 c 128,-1,53
 919 135 919 135 956 147 c 1,54,-1
 1024 451 l 2,55,56
 1036 505 1036 505 1036 520 c 0,57,58
 1036 542 1036 542 1025 556 c 128,-1,59
 1014 570 1014 570 994.5 577.5 c 128,-1,60
 975 585 975 585 948 587.5 c 128,-1,61
 921 590 921 590 889 590 c 2,62,-1
 862 590 l 1,63,-1
 885 698 l 1,64,-1
 1567 698 l 1,65,-1
 1544 590 l 1,0,-1
EndSplineSet
EndChar

StartChar: H
Encoding: 72 72 43
Width: 1677
GlyphClass: 2
Flags: W
LayerCount: 2
Fore
SplineSet
807 0 m 1,0,-1
 829 109 l 1,1,-1
 856 109 l 2,2,3
 889 109 889 109 920 113 c 128,-1,4
 951 117 951 117 977 130.5 c 128,-1,5
 1003 144 1003 144 1021.5 168 c 128,-1,6
 1040 192 1040 192 1049 233 c 2,7,-1
 1147 700 l 1,8,-1
 612 700 l 1,9,-1
 512 225 l 2,10,11
 509 214 509 214 506.5 200 c 128,-1,12
 504 186 504 186 504 178 c 0,13,14
 504 156 504 156 515 142.5 c 128,-1,15
 526 129 526 129 546 121.5 c 128,-1,16
 566 114 566 114 593.5 111.5 c 128,-1,17
 621 109 621 109 653 109 c 2,18,-1
 680 109 l 1,19,-1
 657 0 l 1,20,-1
 -47 0 l 1,21,-1
 -25 109 l 1,22,-1
 2 109 l 2,23,24
 34 109 34 109 64.5 113 c 128,-1,25
 95 117 95 117 120 130 c 128,-1,26
 145 143 145 143 163.5 167 c 128,-1,27
 182 191 182 191 190 231 c 2,28,-1
 399 1214 l 1,29,30
 412 1267 412 1267 412 1284 c 0,31,32
 412 1306 412 1306 401 1320 c 128,-1,33
 390 1334 390 1334 370.5 1341.5 c 128,-1,34
 351 1349 351 1349 323.5 1351.5 c 128,-1,35
 296 1354 296 1354 264 1354 c 2,36,-1
 238 1354 l 1,37,-1
 260 1462 l 1,38,-1
 967 1462 l 1,39,-1
 944 1354 l 1,40,-1
 918 1354 l 2,41,42
 884 1354 884 1354 852.5 1349.5 c 128,-1,43
 821 1345 821 1345 795 1332 c 128,-1,44
 769 1319 769 1319 750 1294 c 128,-1,45
 731 1269 731 1269 723 1229 c 2,46,-1
 639 825 l 1,47,-1
 1174 825 l 1,48,-1
 1260 1223 l 2,49,50
 1265 1244 1265 1244 1267.5 1260 c 128,-1,51
 1270 1276 1270 1276 1270 1284 c 0,52,53
 1270 1306 1270 1306 1258.5 1320 c 128,-1,54
 1247 1334 1247 1334 1227 1341.5 c 128,-1,55
 1207 1349 1207 1349 1179.5 1351.5 c 128,-1,56
 1152 1354 1152 1354 1120 1354 c 2,57,-1
 1094 1354 l 1,58,-1
 1116 1462 l 1,59,-1
 1823 1462 l 1,60,-1
 1800 1354 l 1,61,-1
 1774 1354 l 2,62,63
 1741 1354 1741 1354 1710 1349.5 c 128,-1,64
 1679 1345 1679 1345 1653 1332 c 128,-1,65
 1627 1319 1627 1319 1608.5 1294 c 128,-1,66
 1590 1269 1590 1269 1581 1229 c 2,67,-1
 1370 225 l 2,68,69
 1367 214 1367 214 1364.5 200 c 128,-1,70
 1362 186 1362 186 1362 178 c 0,71,72
 1362 156 1362 156 1373 142.5 c 128,-1,73
 1384 129 1384 129 1403.5 121.5 c 128,-1,74
 1423 114 1423 114 1450 111.5 c 128,-1,75
 1477 109 1477 109 1509 109 c 2,76,-1
 1536 109 l 1,77,-1
 1513 0 l 1,78,-1
 807 0 l 1,0,-1
EndSplineSet
EndChar

StartChar: I
Encoding: 73 73 44
Width: 821
GlyphClass: 2
Flags: W
LayerCount: 2
Fore
SplineSet
-47 0 m 1,0,-1
 -25 109 l 1,1,-1
 2 109 l 2,2,3
 34 109 34 109 64.5 113 c 128,-1,4
 95 117 95 117 120 130 c 128,-1,5
 145 143 145 143 163.5 167 c 128,-1,6
 182 191 182 191 190 231 c 2,7,-1
 403 1237 l 1,8,9
 407 1248 407 1248 409.5 1262 c 128,-1,10
 412 1276 412 1276 412 1284 c 0,11,12
 412 1306 412 1306 401 1320 c 128,-1,13
 390 1334 390 1334 370.5 1341.5 c 128,-1,14
 351 1349 351 1349 323.5 1351.5 c 128,-1,15
 296 1354 296 1354 264 1354 c 2,16,-1
 238 1354 l 1,17,-1
 260 1462 l 1,18,-1
 967 1462 l 1,19,-1
 944 1354 l 1,20,-1
 918 1354 l 2,21,22
 884 1354 884 1354 852.5 1349.5 c 128,-1,23
 821 1345 821 1345 795 1332 c 128,-1,24
 769 1319 769 1319 750 1294 c 128,-1,25
 731 1269 731 1269 723 1229 c 2,26,-1
 512 225 l 2,27,28
 510 214 510 214 507 200 c 128,-1,29
 504 186 504 186 504 178 c 0,30,31
 504 156 504 156 515 142.5 c 128,-1,32
 526 129 526 129 546 121.5 c 128,-1,33
 566 114 566 114 593.5 111.5 c 128,-1,34
 621 109 621 109 653 109 c 2,35,-1
 680 109 l 1,36,-1
 657 0 l 1,37,-1
 -47 0 l 1,0,-1
EndSplineSet
EndChar

StartChar: J
Encoding: 74 74 45
Width: 821
GlyphClass: 2
Flags: W
LayerCount: 2
Fore
SplineSet
463 -6 m 2,0,1
 437 -131 437 -131 376 -222.5 c 128,-1,2
 315 -314 315 -314 232 -374 c 128,-1,3
 149 -434 149 -434 49 -463 c 128,-1,4
 -51 -492 -51 -492 -156 -492 c 0,5,6
 -211 -492 -211 -492 -248.5 -486 c 128,-1,7
 -286 -480 -286 -480 -324 -469 c 1,8,-1
 -295 -356 l 1,9,10
 -282 -361 -282 -361 -265.5 -364.5 c 128,-1,11
 -249 -368 -249 -368 -231 -370.5 c 128,-1,12
 -213 -373 -213 -373 -195 -374 c 128,-1,13
 -177 -375 -177 -375 -162 -375 c 0,14,15
 -109 -375 -109 -375 -63.5 -356 c 128,-1,16
 -18 -337 -18 -337 19.5 -293.5 c 128,-1,17
 57 -250 57 -250 87 -179.5 c 128,-1,18
 117 -109 117 -109 139 -6 c 2,19,-1
 403 1237 l 1,20,21
 407 1248 407 1248 409.5 1262 c 128,-1,22
 412 1276 412 1276 412 1284 c 0,23,24
 412 1306 412 1306 401 1320 c 128,-1,25
 390 1334 390 1334 370.5 1341.5 c 128,-1,26
 351 1349 351 1349 323.5 1351.5 c 128,-1,27
 296 1354 296 1354 264 1354 c 2,28,-1
 238 1354 l 1,29,-1
 260 1462 l 1,30,-1
 967 1462 l 1,31,-1
 944 1354 l 1,32,-1
 918 1354 l 2,33,34
 884 1354 884 1354 852.5 1349.5 c 128,-1,35
 821 1345 821 1345 795 1332 c 128,-1,36
 769 1319 769 1319 750 1294 c 128,-1,37
 731 1269 731 1269 723 1229 c 2,38,-1
 463 -6 l 2,0,1
EndSplineSet
EndChar

StartChar: K
Encoding: 75 75 46
Width: 1518
GlyphClass: 2
Flags: W
LayerCount: 2
Fore
SplineSet
1036 1110 m 2,0,1
 1078 1147 1078 1147 1104.5 1176.5 c 128,-1,2
 1131 1206 1131 1206 1146.5 1229.5 c 128,-1,3
 1162 1253 1162 1253 1168 1271 c 128,-1,4
 1174 1289 1174 1289 1174 1303 c 0,5,6
 1174 1329 1174 1329 1154 1342.5 c 128,-1,7
 1134 1356 1134 1356 1083 1356 c 1,8,-1
 1106 1462 l 1,9,-1
 1659 1462 l 1,10,-1
 1636 1356 l 1,11,12
 1595 1356 1595 1356 1557 1346 c 128,-1,13
 1519 1336 1519 1336 1480 1315 c 128,-1,14
 1441 1294 1441 1294 1398.5 1262 c 128,-1,15
 1356 1230 1356 1230 1307 1186 c 2,16,-1
 975 893 l 1,17,-1
 1214 317 l 1,18,19
 1239 260 1239 260 1259.5 220 c 128,-1,20
 1280 180 1280 180 1301.5 155.5 c 128,-1,21
 1323 131 1323 131 1348.5 120 c 128,-1,22
 1374 109 1374 109 1409 109 c 2,23,-1
 1415 109 l 1,24,-1
 1395 0 l 1,25,-1
 1288 0 l 2,26,27
 1186 0 1186 0 1118.5 12.5 c 128,-1,28
 1051 25 1051 25 1004.5 57 c 128,-1,29
 958 89 958 89 925.5 143.5 c 128,-1,30
 893 198 893 198 860 283 c 2,31,-1
 709 674 l 1,32,-1
 588 588 l 1,33,-1
 512 225 l 2,34,35
 510 214 510 214 507 200 c 128,-1,36
 504 186 504 186 504 178 c 0,37,38
 504 156 504 156 515 142.5 c 128,-1,39
 526 129 526 129 546 121.5 c 128,-1,40
 566 114 566 114 593.5 111.5 c 128,-1,41
 621 109 621 109 653 109 c 2,42,-1
 680 109 l 1,43,-1
 657 0 l 1,44,-1
 -47 0 l 1,45,-1
 -25 109 l 1,46,-1
 2 109 l 2,47,48
 34 109 34 109 64.5 113 c 128,-1,49
 95 117 95 117 120 130 c 128,-1,50
 145 143 145 143 163.5 167 c 128,-1,51
 182 191 182 191 190 231 c 2,52,-1
 399 1214 l 1,53,54
 412 1267 412 1267 412 1284 c 0,55,56
 412 1306 412 1306 401 1320 c 128,-1,57
 390 1334 390 1334 370.5 1341.5 c 128,-1,58
 351 1349 351 1349 323.5 1351.5 c 128,-1,59
 296 1354 296 1354 264 1354 c 2,60,-1
 238 1354 l 1,61,-1
 260 1462 l 1,62,-1
 967 1462 l 1,63,-1
 944 1354 l 1,64,-1
 918 1354 l 2,65,66
 884 1354 884 1354 852.5 1349.5 c 128,-1,67
 821 1345 821 1345 795 1332 c 128,-1,68
 769 1319 769 1319 750 1294 c 128,-1,69
 731 1269 731 1269 723 1229 c 2,70,-1
 621 743 l 1,71,-1
 1036 1110 l 2,0,1
EndSplineSet
EndChar

StartChar: L
Encoding: 76 76 47
Width: 1339
GlyphClass: 2
Flags: W
LayerCount: 2
Fore
SplineSet
834 125 m 2,0,1
 890 125 890 125 931 139 c 128,-1,2
 972 153 972 153 1002.5 180.5 c 128,-1,3
 1033 208 1033 208 1056 250 c 128,-1,4
 1079 292 1079 292 1098 348 c 2,5,-1
 1135 457 l 1,6,-1
 1266 457 l 1,7,-1
 1153 0 l 1,8,-1
 -47 0 l 1,9,-1
 -25 109 l 1,10,-1
 2 109 l 2,11,12
 34 109 34 109 64.5 113 c 128,-1,13
 95 117 95 117 120 130 c 128,-1,14
 145 143 145 143 163.5 167 c 128,-1,15
 182 191 182 191 190 231 c 2,16,-1
 399 1214 l 1,17,18
 412 1267 412 1267 412 1284 c 0,19,20
 412 1306 412 1306 401 1320 c 128,-1,21
 390 1334 390 1334 370.5 1341.5 c 128,-1,22
 351 1349 351 1349 323.5 1351.5 c 128,-1,23
 296 1354 296 1354 264 1354 c 2,24,-1
 238 1354 l 1,25,-1
 260 1462 l 1,26,-1
 967 1462 l 1,27,-1
 944 1354 l 1,28,-1
 918 1354 l 2,29,30
 884 1354 884 1354 852.5 1349.5 c 128,-1,31
 821 1345 821 1345 795 1332 c 128,-1,32
 769 1319 769 1319 750 1294 c 128,-1,33
 731 1269 731 1269 723 1229 c 2,34,-1
 492 125 l 1,35,-1
 834 125 l 2,0,1
EndSplineSet
EndChar

StartChar: M
Encoding: 77 77 48
Width: 1950
GlyphClass: 2
Flags: W
LayerCount: 2
Fore
SplineSet
2097 1462 m 1,0,-1
 2075 1354 l 1,1,-1
 2048 1354 l 2,2,3
 2015 1354 2015 1354 1984 1349.5 c 128,-1,4
 1953 1345 1953 1345 1927 1332 c 128,-1,5
 1901 1319 1901 1319 1882.5 1294 c 128,-1,6
 1864 1269 1864 1269 1855 1229 c 2,7,-1
 1645 225 l 1,8,9
 1641 214 1641 214 1638.5 200 c 128,-1,10
 1636 186 1636 186 1636 178 c 0,11,12
 1636 156 1636 156 1647 142.5 c 128,-1,13
 1658 129 1658 129 1677.5 121.5 c 128,-1,14
 1697 114 1697 114 1724.5 111.5 c 128,-1,15
 1752 109 1752 109 1784 109 c 2,16,-1
 1810 109 l 1,17,-1
 1788 0 l 1,18,-1
 1090 0 l 1,19,-1
 1112 109 l 1,20,-1
 1139 109 l 2,21,22
 1172 109 1172 109 1203 113 c 128,-1,23
 1234 117 1234 117 1259.5 130.5 c 128,-1,24
 1285 144 1285 144 1304 168 c 128,-1,25
 1323 192 1323 192 1331 233 c 2,26,-1
 1548 1260 l 1,27,-1
 870 0 l 1,28,-1
 729 0 l 1,29,-1
 563 1260 l 1,30,-1
 346 242 l 2,31,32
 341 219 341 219 338.5 202.5 c 128,-1,33
 336 186 336 186 336 178 c 0,34,35
 336 156 336 156 347 142.5 c 128,-1,36
 358 129 358 129 378 121.5 c 128,-1,37
 398 114 398 114 425.5 111.5 c 128,-1,38
 453 109 453 109 485 109 c 2,39,-1
 492 109 l 1,40,-1
 469 0 l 1,41,-1
 -47 0 l 1,42,-1
 -25 109 l 1,43,-1
 2 109 l 2,44,45
 34 109 34 109 64.5 113 c 128,-1,46
 95 117 95 117 120 130 c 128,-1,47
 145 143 145 143 163.5 167 c 128,-1,48
 182 191 182 191 190 231 c 2,49,-1
 399 1214 l 1,50,51
 412 1267 412 1267 412 1284 c 0,52,53
 412 1306 412 1306 401 1320 c 128,-1,54
 390 1334 390 1334 370.5 1341.5 c 128,-1,55
 351 1349 351 1349 323.5 1351.5 c 128,-1,56
 296 1354 296 1354 264 1354 c 2,57,-1
 238 1354 l 1,58,-1
 260 1462 l 1,59,-1
 831 1462 l 1,60,-1
 969 467 l 1,61,-1
 1505 1462 l 1,62,-1
 2097 1462 l 1,0,-1
EndSplineSet
EndChar

StartChar: N
Encoding: 78 78 49
Width: 1614
GlyphClass: 2
Flags: W
LayerCount: 2
Fore
SplineSet
1094 0 m 1,0,-1
 539 1159 l 1,1,-1
 346 242 l 2,2,3
 341 219 341 219 338.5 202.5 c 128,-1,4
 336 186 336 186 336 178 c 0,5,6
 336 156 336 156 347 142.5 c 128,-1,7
 358 129 358 129 378 121.5 c 128,-1,8
 398 114 398 114 425.5 111.5 c 128,-1,9
 453 109 453 109 485 109 c 2,10,-1
 492 109 l 1,11,-1
 469 0 l 1,12,-1
 -47 0 l 1,13,-1
 -25 109 l 1,14,-1
 2 109 l 2,15,16
 34 109 34 109 64.5 113 c 128,-1,17
 95 117 95 117 120 130 c 128,-1,18
 145 143 145 143 163.5 167 c 128,-1,19
 182 191 182 191 190 231 c 2,20,-1
 399 1214 l 1,21,22
 412 1267 412 1267 412 1284 c 0,23,24
 412 1306 412 1306 401 1320 c 128,-1,25
 390 1334 390 1334 370.5 1341.5 c 128,-1,26
 351 1349 351 1349 323.5 1351.5 c 128,-1,27
 296 1354 296 1354 264 1354 c 2,28,-1
 238 1354 l 1,29,-1
 260 1462 l 1,30,-1
 715 1462 l 1,31,-1
 1214 412 l 1,32,-1
 1386 1221 l 2,33,34
 1397 1268 1397 1268 1397 1284 c 0,35,36
 1397 1306 1397 1306 1385.5 1320 c 128,-1,37
 1374 1334 1374 1334 1354 1341.5 c 128,-1,38
 1334 1349 1334 1349 1306.5 1351.5 c 128,-1,39
 1279 1354 1279 1354 1247 1354 c 2,40,-1
 1241 1354 l 1,41,-1
 1264 1462 l 1,42,-1
 1780 1462 l 1,43,-1
 1757 1354 l 1,44,-1
 1731 1354 l 2,45,46
 1699 1354 1699 1354 1668.5 1349.5 c 128,-1,47
 1638 1345 1638 1345 1613 1332 c 128,-1,48
 1588 1319 1588 1319 1569.5 1295 c 128,-1,49
 1551 1271 1551 1271 1542 1231 c 2,50,-1
 1282 0 l 1,51,-1
 1094 0 l 1,0,-1
EndSplineSet
EndChar

StartChar: O
Encoding: 79 79 50
Width: 1622
GlyphClass: 2
Flags: W
LayerCount: 2
Fore
SplineSet
129 545 m 0,0,1
 129 643 129 643 153.5 751 c 128,-1,2
 178 859 178 859 227 963.5 c 128,-1,3
 276 1068 276 1068 349 1162.5 c 128,-1,4
 422 1257 422 1257 518.5 1328.5 c 128,-1,5
 615 1400 615 1400 736 1442.5 c 128,-1,6
 857 1485 857 1485 1001 1485 c 0,7,8
 1114 1485 1114 1485 1216.5 1452 c 128,-1,9
 1319 1419 1319 1419 1397 1350 c 128,-1,10
 1475 1281 1475 1281 1521 1175 c 128,-1,11
 1567 1069 1567 1069 1567 922 c 0,12,13
 1567 828 1567 828 1543.5 721 c 128,-1,14
 1520 614 1520 614 1472.5 509 c 128,-1,15
 1425 404 1425 404 1353.5 308 c 128,-1,16
 1282 212 1282 212 1185.5 138.5 c 128,-1,17
 1089 65 1089 65 967.5 21 c 128,-1,18
 846 -23 846 -23 700 -23 c 0,19,20
 579 -23 579 -23 474.5 13.5 c 128,-1,21
 370 50 370 50 293.5 122 c 128,-1,22
 217 194 217 194 173 300 c 128,-1,23
 129 406 129 406 129 545 c 0,0,1
463 496 m 0,24,25
 463 395 463 395 484.5 322.5 c 128,-1,26
 506 250 506 250 543.5 203.5 c 128,-1,27
 581 157 581 157 632 135 c 128,-1,28
 683 113 683 113 741 113 c 0,29,30
 826 113 826 113 895.5 154 c 128,-1,31
 965 195 965 195 1020 263.5 c 128,-1,32
 1075 332 1075 332 1115.5 420.5 c 128,-1,33
 1156 509 1156 509 1182.5 604 c 128,-1,34
 1209 699 1209 699 1222 793.5 c 128,-1,35
 1235 888 1235 888 1235 969 c 0,36,37
 1235 1069 1235 1069 1214 1141 c 128,-1,38
 1193 1213 1193 1213 1156.5 1260 c 128,-1,39
 1120 1307 1120 1307 1069 1329.5 c 128,-1,40
 1018 1352 1018 1352 958 1352 c 0,41,42
 873 1352 873 1352 803.5 1311 c 128,-1,43
 734 1270 734 1270 679 1201.5 c 128,-1,44
 624 1133 624 1133 583 1044.5 c 128,-1,45
 542 956 542 956 515.5 860.5 c 128,-1,46
 489 765 489 765 476 670.5 c 128,-1,47
 463 576 463 576 463 496 c 0,24,25
EndSplineSet
EndChar

StartChar: P
Encoding: 80 80 51
Width: 1358
GlyphClass: 2
Flags: W
LayerCount: 2
Fore
SplineSet
610 678 m 1,0,-1
 696 678 l 2,1,2
 789 678 789 678 853.5 706 c 128,-1,3
 918 734 918 734 958 784.5 c 128,-1,4
 998 835 998 835 1016 904.5 c 128,-1,5
 1034 974 1034 974 1034 1057 c 0,6,7
 1034 1134 1034 1134 1016.5 1188 c 128,-1,8
 999 1242 999 1242 968 1276 c 128,-1,9
 937 1310 937 1310 893.5 1325.5 c 128,-1,10
 850 1341 850 1341 799 1341 c 2,11,-1
 754 1341 l 1,12,-1
 610 678 l 1,0,-1
512 225 m 2,13,14
 509 214 509 214 506.5 200 c 128,-1,15
 504 186 504 186 504 178 c 0,16,17
 504 156 504 156 515 142.5 c 128,-1,18
 526 129 526 129 546 121.5 c 128,-1,19
 566 114 566 114 593.5 111.5 c 128,-1,20
 621 109 621 109 653 109 c 2,21,-1
 721 109 l 1,22,-1
 698 0 l 1,23,-1
 -47 0 l 1,24,-1
 -25 109 l 1,25,-1
 2 109 l 2,26,27
 34 109 34 109 64.5 113 c 128,-1,28
 95 117 95 117 120 130 c 128,-1,29
 145 143 145 143 163.5 167 c 128,-1,30
 182 191 182 191 190 231 c 2,31,-1
 399 1214 l 1,32,33
 412 1267 412 1267 412 1284 c 0,34,35
 412 1306 412 1306 401 1320 c 128,-1,36
 390 1334 390 1334 370.5 1341.5 c 128,-1,37
 351 1349 351 1349 323.5 1351.5 c 128,-1,38
 296 1354 296 1354 264 1354 c 2,39,-1
 238 1354 l 1,40,-1
 260 1462 l 1,41,-1
 846 1462 l 2,42,43
 966 1462 966 1462 1063 1436.5 c 128,-1,44
 1160 1411 1160 1411 1227.5 1360.5 c 128,-1,45
 1295 1310 1295 1310 1331.5 1235.5 c 128,-1,46
 1368 1161 1368 1161 1368 1063 c 0,47,48
 1368 1011 1368 1011 1358 953 c 128,-1,49
 1348 895 1348 895 1322.5 839 c 128,-1,50
 1297 783 1297 783 1252 732.5 c 128,-1,51
 1207 682 1207 682 1137.5 643.5 c 128,-1,52
 1068 605 1068 605 970.5 582 c 128,-1,53
 873 559 873 559 741 559 c 2,54,-1
 586 559 l 1,55,-1
 512 225 l 2,13,14
EndSplineSet
EndChar

StartChar: Q
Encoding: 81 81 52
Width: 1612
GlyphClass: 2
Flags: W
LayerCount: 2
Fore
SplineSet
127 545 m 0,0,1
 127 643 127 643 151.5 751 c 128,-1,2
 176 859 176 859 225 963.5 c 128,-1,3
 274 1068 274 1068 347 1162.5 c 128,-1,4
 420 1257 420 1257 516.5 1328.5 c 128,-1,5
 613 1400 613 1400 734 1442.5 c 128,-1,6
 855 1485 855 1485 999 1485 c 0,7,8
 1112 1485 1112 1485 1214.5 1452 c 128,-1,9
 1317 1419 1317 1419 1395 1350 c 128,-1,10
 1473 1281 1473 1281 1519 1175 c 128,-1,11
 1565 1069 1565 1069 1565 922 c 0,12,13
 1565 838 1565 838 1546.5 745 c 128,-1,14
 1528 652 1528 652 1491.5 558.5 c 128,-1,15
 1455 465 1455 465 1399 376.5 c 128,-1,16
 1343 288 1343 288 1268.5 213.5 c 128,-1,17
 1194 139 1194 139 1100 83 c 128,-1,18
 1006 27 1006 27 893 0 c 1,19,20
 896 -113 896 -113 914 -185.5 c 128,-1,21
 932 -258 932 -258 963 -299.5 c 128,-1,22
 994 -341 994 -341 1035.5 -357 c 128,-1,23
 1077 -373 1077 -373 1128 -373 c 2,24,-1
 1161 -373 l 1,25,-1
 1135 -492 l 1,26,-1
 987 -492 l 2,27,28
 895 -492 895 -492 816 -464.5 c 128,-1,29
 737 -437 737 -437 678.5 -378.5 c 128,-1,30
 620 -320 620 -320 586 -228 c 128,-1,31
 552 -136 552 -136 549 -6 c 1,32,33
 456 13 456 13 378.5 57.5 c 128,-1,34
 301 102 301 102 245 171.5 c 128,-1,35
 189 241 189 241 158 334.5 c 128,-1,36
 127 428 127 428 127 545 c 0,0,1
461 496 m 0,37,38
 461 395 461 395 482.5 322.5 c 128,-1,39
 504 250 504 250 541.5 203.5 c 128,-1,40
 579 157 579 157 630 135 c 128,-1,41
 681 113 681 113 739 113 c 0,42,43
 824 113 824 113 893.5 154 c 128,-1,44
 963 195 963 195 1018 263.5 c 128,-1,45
 1073 332 1073 332 1113.5 420.5 c 128,-1,46
 1154 509 1154 509 1180.5 604 c 128,-1,47
 1207 699 1207 699 1220 793.5 c 128,-1,48
 1233 888 1233 888 1233 969 c 0,49,50
 1233 1069 1233 1069 1212 1141 c 128,-1,51
 1191 1213 1191 1213 1154.5 1260 c 128,-1,52
 1118 1307 1118 1307 1067 1329.5 c 128,-1,53
 1016 1352 1016 1352 956 1352 c 0,54,55
 871 1352 871 1352 801.5 1311 c 128,-1,56
 732 1270 732 1270 677 1201.5 c 128,-1,57
 622 1133 622 1133 581 1044.5 c 128,-1,58
 540 956 540 956 513.5 860.5 c 128,-1,59
 487 765 487 765 474 670.5 c 128,-1,60
 461 576 461 576 461 496 c 0,37,38
700 -23 m 0,61,-1
EndSplineSet
EndChar

StartChar: R
Encoding: 82 82 53
Width: 1448
GlyphClass: 2
Flags: W
LayerCount: 2
Fore
SplineSet
621 754 m 1,0,-1
 748 754 l 2,1,2
 813 754 813 754 869.5 773 c 128,-1,3
 926 792 926 792 967.5 832.5 c 128,-1,4
 1009 873 1009 873 1033 937.5 c 128,-1,5
 1057 1002 1057 1002 1057 1094 c 0,6,7
 1057 1163 1057 1163 1045 1210 c 128,-1,8
 1033 1257 1033 1257 1008 1286.5 c 128,-1,9
 983 1316 983 1316 945 1328.5 c 128,-1,10
 907 1341 907 1341 856 1341 c 2,11,-1
 752 1341 l 1,12,-1
 621 754 l 1,0,-1
918 1462 m 2,13,14
 1163 1462 1163 1462 1284 1377 c 128,-1,15
 1405 1292 1405 1292 1405 1120 c 0,16,17
 1405 1016 1405 1016 1371.5 943 c 128,-1,18
 1338 870 1338 870 1285.5 820.5 c 128,-1,19
 1233 771 1233 771 1168 742 c 128,-1,20
 1103 713 1103 713 1040 698 c 1,21,-1
 1182 317 l 2,22,23
 1203 259 1203 259 1223 219 c 128,-1,24
 1243 179 1243 179 1265.5 154.5 c 128,-1,25
 1288 130 1288 130 1314.5 119.5 c 128,-1,26
 1341 109 1341 109 1376 109 c 2,27,-1
 1384 109 l 1,28,-1
 1362 0 l 1,29,-1
 1341 0 l 2,30,31
 1234 0 1234 0 1155.5 9 c 128,-1,32
 1077 18 1077 18 1021 43.5 c 128,-1,33
 965 69 965 69 928 114.5 c 128,-1,34
 891 160 891 160 868 233 c 2,35,-1
 739 635 l 1,36,-1
 598 635 l 1,37,-1
 518 260 l 2,38,39
 510 223 510 223 507 204.5 c 128,-1,40
 504 186 504 186 504 178 c 0,41,42
 504 156 504 156 515 142.5 c 128,-1,43
 526 129 526 129 546 121.5 c 128,-1,44
 566 114 566 114 593.5 111.5 c 128,-1,45
 621 109 621 109 653 109 c 2,46,-1
 721 109 l 1,47,-1
 698 0 l 1,48,-1
 -47 0 l 1,49,-1
 -25 109 l 1,50,-1
 2 109 l 2,51,52
 34 109 34 109 64.5 113 c 128,-1,53
 95 117 95 117 120 130 c 128,-1,54
 145 143 145 143 163.5 167 c 128,-1,55
 182 191 182 191 190 231 c 2,56,-1
 399 1214 l 1,57,58
 412 1267 412 1267 412 1284 c 0,59,60
 412 1306 412 1306 401 1320 c 128,-1,61
 390 1334 390 1334 370.5 1341.5 c 128,-1,62
 351 1349 351 1349 323.5 1351.5 c 128,-1,63
 296 1354 296 1354 264 1354 c 2,64,-1
 238 1354 l 1,65,-1
 260 1462 l 1,66,-1
 918 1462 l 2,13,14
EndSplineSet
EndChar

StartChar: S
Encoding: 83 83 54
Width: 1200
GlyphClass: 2
Flags: W
LayerCount: 2
Fore
SplineSet
535 -20 m 0,0,1
 408 -20 408 -20 313 3 c 128,-1,2
 218 26 218 26 155 66 c 128,-1,3
 92 106 92 106 60.5 160.5 c 128,-1,4
 29 215 29 215 29 279 c 0,5,6
 29 327 29 327 48.5 363 c 128,-1,7
 68 399 68 399 103.5 423 c 128,-1,8
 139 447 139 447 187.5 459 c 128,-1,9
 236 471 236 471 295 471 c 1,10,11
 295 377 295 377 315 308 c 128,-1,12
 335 239 335 239 371 193.5 c 128,-1,13
 407 148 407 148 457 126 c 128,-1,14
 507 104 507 104 567 104 c 0,15,16
 625 104 625 104 670 120.5 c 128,-1,17
 715 137 715 137 746.5 165.5 c 128,-1,18
 778 194 778 194 794.5 232.5 c 128,-1,19
 811 271 811 271 811 315 c 0,20,21
 811 358 811 358 800.5 394 c 128,-1,22
 790 430 790 430 762 464 c 128,-1,23
 734 498 734 498 685 533 c 128,-1,24
 636 568 636 568 559 610 c 0,25,26
 479 654 479 654 418.5 700.5 c 128,-1,27
 358 747 358 747 317.5 801 c 128,-1,28
 277 855 277 855 256.5 919.5 c 128,-1,29
 236 984 236 984 236 1065 c 0,30,31
 236 1157 236 1157 273 1234 c 128,-1,32
 310 1311 310 1311 379 1366.5 c 128,-1,33
 448 1422 448 1422 546 1452.5 c 128,-1,34
 644 1483 644 1483 766 1483 c 0,35,36
 880 1483 880 1483 965 1465 c 128,-1,37
 1050 1447 1050 1447 1106.5 1416 c 128,-1,38
 1163 1385 1163 1385 1191 1343 c 128,-1,39
 1219 1301 1219 1301 1219 1253 c 0,40,41
 1219 1170 1219 1170 1156 1122.5 c 128,-1,42
 1093 1075 1093 1075 950 1075 c 1,43,44
 950 1121 950 1121 941 1171 c 128,-1,45
 932 1221 932 1221 909 1262.5 c 128,-1,46
 886 1304 886 1304 847 1331 c 128,-1,47
 808 1358 808 1358 748 1358 c 0,48,49
 707 1358 707 1358 666.5 1345 c 128,-1,50
 626 1332 626 1332 594 1306 c 128,-1,51
 562 1280 562 1280 542 1240.5 c 128,-1,52
 522 1201 522 1201 522 1147 c 256,53,54
 522 1093 522 1093 539 1055 c 128,-1,55
 556 1017 556 1017 590 984.5 c 128,-1,56
 624 952 624 952 675 921.5 c 128,-1,57
 726 891 726 891 795 854 c 0,58,59
 950 770 950 770 1024 668.5 c 128,-1,60
 1098 567 1098 567 1098 436 c 0,61,62
 1098 327 1098 327 1058.5 242 c 128,-1,63
 1019 157 1019 157 945.5 99 c 128,-1,64
 872 41 872 41 768 10.5 c 128,-1,65
 664 -20 664 -20 535 -20 c 0,0,1
EndSplineSet
EndChar

StartChar: T
Encoding: 84 84 55
Width: 1337
GlyphClass: 2
Flags: W
LayerCount: 2
Fore
SplineSet
213 0 m 1,0,-1
 236 109 l 1,1,-1
 262 109 l 2,2,3
 294 109 294 109 324.5 113 c 128,-1,4
 355 117 355 117 380 130 c 128,-1,5
 405 143 405 143 423.5 167 c 128,-1,6
 442 191 442 191 451 231 c 2,7,-1
 682 1337 l 1,8,-1
 518 1337 l 2,9,10
 470 1337 470 1337 436.5 1325 c 128,-1,11
 403 1313 403 1313 378.5 1289.5 c 128,-1,12
 354 1266 354 1266 337 1232 c 128,-1,13
 320 1198 320 1198 305 1153 c 2,14,-1
 276 1065 l 1,15,-1
 139 1065 l 1,16,-1
 233 1462 l 1,17,-1
 1507 1462 l 1,18,-1
 1436 1065 l 1,19,-1
 1298 1065 l 1,20,21
 1299 1072 1299 1072 1301.5 1096.5 c 128,-1,22
 1304 1121 1304 1121 1307 1149 c 128,-1,23
 1310 1177 1310 1177 1312.5 1200.5 c 128,-1,24
 1315 1224 1315 1224 1315 1229 c 0,25,26
 1315 1283 1315 1283 1282.5 1310 c 128,-1,27
 1250 1337 1250 1337 1171 1337 c 2,28,-1
 1008 1337 l 1,29,-1
 772 225 l 2,30,31
 770 214 770 214 767 200 c 128,-1,32
 764 186 764 186 764 178 c 0,33,34
 764 156 764 156 775 142.5 c 128,-1,35
 786 129 786 129 806 121.5 c 128,-1,36
 826 114 826 114 853.5 111.5 c 128,-1,37
 881 109 881 109 913 109 c 2,38,-1
 940 109 l 1,39,-1
 918 0 l 1,40,-1
 213 0 l 1,0,-1
EndSplineSet
EndChar

StartChar: U
Encoding: 85 85 56
Width: 1530
GlyphClass: 2
Flags: W
LayerCount: 2
Fore
SplineSet
772 125 m 0,0,1
 865 125 865 125 929 152 c 128,-1,2
 993 179 993 179 1036 226.5 c 128,-1,3
 1079 274 1079 274 1105 339.5 c 128,-1,4
 1131 405 1131 405 1147 483 c 2,5,-1
 1305 1223 l 2,6,7
 1308 1240 1308 1240 1310.5 1258 c 128,-1,8
 1313 1276 1313 1276 1313 1284 c 0,9,10
 1313 1306 1313 1306 1302 1320 c 128,-1,11
 1291 1334 1291 1334 1271.5 1341.5 c 128,-1,12
 1252 1349 1252 1349 1224.5 1351.5 c 128,-1,13
 1197 1354 1197 1354 1165 1354 c 2,14,-1
 1139 1354 l 1,15,-1
 1161 1462 l 1,16,-1
 1700 1462 l 1,17,-1
 1677 1354 l 1,18,-1
 1651 1354 l 2,19,20
 1618 1354 1618 1354 1587 1349.5 c 128,-1,21
 1556 1345 1556 1345 1530 1332 c 128,-1,22
 1504 1319 1504 1319 1485.5 1294 c 128,-1,23
 1467 1269 1467 1269 1458 1229 c 2,24,-1
 1294 451 l 2,25,26
 1270 336 1270 336 1222.5 248 c 128,-1,27
 1175 160 1175 160 1101.5 100.5 c 128,-1,28
 1028 41 1028 41 928 10.5 c 128,-1,29
 828 -20 828 -20 698 -20 c 0,30,31
 578 -20 578 -20 486 3.5 c 128,-1,32
 394 27 394 27 331 72.5 c 128,-1,33
 268 118 268 118 235.5 184 c 128,-1,34
 203 250 203 250 203 334 c 0,35,36
 203 350 203 350 205 374 c 128,-1,37
 207 398 207 398 210 423.5 c 128,-1,38
 213 449 213 449 217 473.5 c 128,-1,39
 221 498 221 498 225 516 c 2,40,-1
 375 1214 l 2,41,42
 387 1269 387 1269 387 1284 c 0,43,44
 387 1306 387 1306 376 1320 c 128,-1,45
 365 1334 365 1334 345.5 1341.5 c 128,-1,46
 326 1349 326 1349 299 1351.5 c 128,-1,47
 272 1354 272 1354 240 1354 c 2,48,-1
 213 1354 l 1,49,-1
 236 1462 l 1,50,-1
 944 1462 l 1,51,-1
 922 1354 l 1,52,-1
 895 1354 l 2,53,54
 861 1354 861 1354 829.5 1349.5 c 128,-1,55
 798 1345 798 1345 772 1332.5 c 128,-1,56
 746 1320 746 1320 727.5 1296 c 128,-1,57
 709 1272 709 1272 700 1233 c 2,58,-1
 545 512 l 2,59,60
 541 494 541 494 536.5 472 c 128,-1,61
 532 450 532 450 528.5 426.5 c 128,-1,62
 525 403 525 403 522.5 379 c 128,-1,63
 520 355 520 355 520 334 c 0,64,65
 520 231 520 231 584 178 c 128,-1,66
 648 125 648 125 772 125 c 0,0,1
EndSplineSet
EndChar

StartChar: V
Encoding: 86 86 57
Width: 1430
GlyphClass: 2
Flags: W
LayerCount: 2
Fore
SplineSet
659 1272 m 0,0,1
 659 1255 659 1255 660.5 1235.5 c 128,-1,2
 662 1216 662 1216 664 1202 c 2,3,-1
 729 662 l 2,4,5
 733 626 733 626 736.5 578.5 c 128,-1,6
 740 531 740 531 741.5 482.5 c 128,-1,7
 743 434 743 434 744 390.5 c 128,-1,8
 745 347 745 347 745 319 c 1,9,10
 757 347 757 347 770.5 378 c 128,-1,11
 784 409 784 409 796.5 438 c 128,-1,12
 809 467 809 467 820 492 c 128,-1,13
 831 517 831 517 840 532 c 2,14,-1
 1208 1194 l 2,15,16
 1228 1229 1228 1229 1236.5 1255 c 128,-1,17
 1245 1281 1245 1281 1245 1303 c 0,18,19
 1245 1333 1245 1333 1215 1343.5 c 128,-1,20
 1185 1354 1185 1354 1126 1354 c 2,21,-1
 1079 1354 l 1,22,-1
 1100 1462 l 1,23,-1
 1634 1462 l 1,24,-1
 1612 1354 l 1,25,-1
 1563 1354 l 2,26,27
 1533 1354 1533 1354 1511.5 1349 c 128,-1,28
 1490 1344 1490 1344 1471 1329.5 c 128,-1,29
 1452 1315 1452 1315 1433 1288 c 128,-1,30
 1414 1261 1414 1261 1389 1217 c 2,31,-1
 707 0 l 1,32,-1
 502 0 l 1,33,-1
 330 1255 l 2,34,35
 325 1286 325 1286 313.5 1305.5 c 128,-1,36
 302 1325 302 1325 285.5 1336 c 128,-1,37
 269 1347 269 1347 247.5 1350.5 c 128,-1,38
 226 1354 226 1354 201 1354 c 2,39,-1
 174 1354 l 1,40,-1
 197 1462 l 1,41,-1
 872 1462 l 1,42,-1
 850 1354 l 1,43,-1
 803 1354 l 2,44,45
 737 1354 737 1354 698 1337.5 c 128,-1,46
 659 1321 659 1321 659 1272 c 0,0,1
EndSplineSet
EndChar

StartChar: W
Encoding: 87 87 58
Width: 2185
GlyphClass: 2
Flags: W
LayerCount: 2
Fore
SplineSet
2367 1354 m 1,0,-1
 2318 1354 l 2,1,2
 2288 1354 2288 1354 2265 1348 c 128,-1,3
 2242 1342 2242 1342 2222.5 1325.5 c 128,-1,4
 2203 1309 2203 1309 2183.5 1279.5 c 128,-1,5
 2164 1250 2164 1250 2142 1204 c 2,6,-1
 1569 0 l 1,7,-1
 1335 0 l 1,8,-1
 1194 977 l 1,9,-1
 696 0 l 1,10,-1
 442 0 l 1,11,-1
 332 1255 l 2,12,13
 329 1286 329 1286 318 1305.5 c 128,-1,14
 307 1325 307 1325 289.5 1336 c 128,-1,15
 272 1347 272 1347 250 1350.5 c 128,-1,16
 228 1354 228 1354 203 1354 c 2,17,-1
 176 1354 l 1,18,-1
 199 1462 l 1,19,-1
 868 1462 l 1,20,-1
 846 1354 l 1,21,-1
 799 1354 l 2,22,23
 733 1354 733 1354 694 1337.5 c 128,-1,24
 655 1321 655 1321 655 1272 c 0,25,26
 655 1255 655 1255 656 1233 c 128,-1,27
 657 1211 657 1211 659 1182 c 2,28,-1
 698 672 l 2,29,30
 701 645 701 645 704 600.5 c 128,-1,31
 707 556 707 556 709.5 507 c 128,-1,32
 712 458 712 458 713.5 410.5 c 128,-1,33
 715 363 715 363 715 330 c 1,34,35
 736 390 736 390 764 450.5 c 128,-1,36
 792 511 792 511 823 571 c 2,37,-1
 1280 1448 l 1,38,-1
 1430 1448 l 1,39,-1
 1546 666 l 2,40,41
 1560 569 1560 569 1570.5 480.5 c 128,-1,42
 1581 392 1581 392 1581 326 c 1,43,44
 1593 360 1593 360 1610 405 c 128,-1,45
 1627 450 1627 450 1647.5 500.5 c 128,-1,46
 1668 551 1668 551 1691 603 c 128,-1,47
 1714 655 1714 655 1737 705 c 2,48,-1
 1964 1194 l 2,49,50
 1978 1223 1978 1223 1986.5 1252 c 128,-1,51
 1995 1281 1995 1281 1995 1303 c 0,52,53
 1995 1333 1995 1333 1968 1343.5 c 128,-1,54
 1941 1354 1941 1354 1882 1354 c 2,55,-1
 1835 1354 l 1,56,-1
 1855 1462 l 1,57,-1
 2390 1462 l 1,58,-1
 2367 1354 l 1,0,-1
EndSplineSet
EndChar

StartChar: X
Encoding: 88 88 59
Width: 1499
GlyphClass: 2
Flags: W
LayerCount: 2
Fore
SplineSet
1610 1354 m 1,0,-1
 1591 1354 l 2,1,2
 1561 1354 1561 1354 1536 1347 c 128,-1,3
 1511 1340 1511 1340 1484.5 1323 c 128,-1,4
 1458 1306 1458 1306 1428.5 1278 c 128,-1,5
 1399 1250 1399 1250 1360 1208 c 2,6,-1
 975 803 l 1,7,-1
 1227 217 l 2,8,9
 1255 154 1255 154 1292.5 131.5 c 128,-1,10
 1330 109 1330 109 1368 109 c 2,11,-1
 1395 109 l 1,12,-1
 1372 0 l 1,13,-1
 696 0 l 1,14,-1
 719 109 l 1,15,-1
 750 109 l 2,16,17
 811 109 811 109 838.5 127.5 c 128,-1,18
 866 146 866 146 866 180 c 0,19,20
 866 209 866 209 856 244.5 c 128,-1,21
 846 280 846 280 827 322 c 2,22,-1
 702 604 l 1,23,-1
 416 307 l 2,24,25
 379 269 379 269 356.5 234 c 128,-1,26
 334 199 334 199 334 170 c 0,27,28
 334 155 334 155 339 144 c 128,-1,29
 344 133 344 133 356.5 125 c 128,-1,30
 369 117 369 117 390.5 113 c 128,-1,31
 412 109 412 109 446 109 c 2,32,-1
 453 109 l 1,33,-1
 430 0 l 1,34,-1
 -86 0 l 1,35,-1
 -63 109 l 1,36,-1
 -43 109 l 2,37,38
 -12 109 -12 109 14.5 116.5 c 128,-1,39
 41 124 41 124 68.5 141 c 128,-1,40
 96 158 96 158 127.5 186 c 128,-1,41
 159 214 159 214 199 256 c 2,42,-1
 651 723 l 1,43,-1
 422 1249 l 2,44,45
 407 1283 407 1283 391.5 1304 c 128,-1,46
 376 1325 376 1325 357 1336 c 128,-1,47
 338 1347 338 1347 314.5 1350.5 c 128,-1,48
 291 1354 291 1354 262 1354 c 2,49,-1
 244 1354 l 1,50,-1
 266 1462 l 1,51,-1
 944 1462 l 1,52,-1
 922 1354 l 1,53,-1
 874 1354 l 2,54,55
 823 1354 823 1354 800.5 1339 c 128,-1,56
 778 1324 778 1324 778 1296 c 0,57,58
 778 1276 778 1276 787.5 1246.5 c 128,-1,59
 797 1217 797 1217 815 1174 c 2,60,-1
 924 920 l 1,61,-1
 1165 1178 l 2,62,63
 1193 1207 1193 1207 1215 1241 c 128,-1,64
 1237 1275 1237 1275 1237 1303 c 0,65,66
 1237 1329 1237 1329 1212 1341.5 c 128,-1,67
 1187 1354 1187 1354 1139 1354 c 2,68,-1
 1133 1354 l 1,69,-1
 1155 1462 l 1,70,-1
 1632 1462 l 1,71,-1
 1610 1354 l 1,0,-1
EndSplineSet
EndChar

StartChar: Y
Encoding: 89 89 60
Width: 1419
GlyphClass: 2
Flags: W
LayerCount: 2
Fore
SplineSet
227 0 m 1,0,-1
 250 109 l 1,1,-1
 305 109 l 2,2,3
 337 109 337 109 367 113.5 c 128,-1,4
 397 118 397 118 422 131.5 c 128,-1,5
 447 145 447 145 465 169 c 128,-1,6
 483 193 483 193 492 233 c 2,7,-1
 551 518 l 1,8,-1
 330 1245 l 2,9,10
 321 1275 321 1275 311.5 1296 c 128,-1,11
 302 1317 302 1317 289 1329.5 c 128,-1,12
 276 1342 276 1342 256.5 1348 c 128,-1,13
 237 1354 237 1354 207 1354 c 2,14,-1
 180 1354 l 1,15,-1
 203 1462 l 1,16,-1
 868 1462 l 1,17,-1
 846 1354 l 1,18,-1
 754 1354 l 2,19,20
 707 1354 707 1354 687.5 1338 c 128,-1,21
 668 1322 668 1322 668 1294 c 0,22,23
 668 1276 668 1276 674 1242 c 128,-1,24
 680 1208 680 1208 692 1161 c 2,25,-1
 766 872 l 2,26,27
 773 842 773 842 781 808 c 128,-1,28
 789 774 789 774 795.5 740 c 128,-1,29
 802 706 802 706 806.5 673.5 c 128,-1,30
 811 641 811 641 813 616 c 1,31,32
 832 657 832 657 871 720 c 128,-1,33
 910 783 910 783 963 858 c 2,34,-1
 1165 1147 l 2,35,36
 1190 1182 1190 1182 1208.5 1223 c 128,-1,37
 1227 1264 1227 1264 1227 1298 c 0,38,39
 1227 1326 1227 1326 1198.5 1340 c 128,-1,40
 1170 1354 1170 1354 1102 1354 c 2,41,-1
 1059 1354 l 1,42,-1
 1083 1462 l 1,43,-1
 1620 1462 l 1,44,-1
 1597 1354 l 1,45,-1
 1559 1354 l 2,46,47
 1536 1354 1536 1354 1516.5 1348 c 128,-1,48
 1497 1342 1497 1342 1477 1326.5 c 128,-1,49
 1457 1311 1457 1311 1434.5 1285.5 c 128,-1,50
 1412 1260 1412 1260 1384 1221 c 2,51,-1
 877 516 l 1,52,-1
 815 225 l 2,53,54
 813 214 813 214 810 200 c 128,-1,55
 807 186 807 186 807 178 c 0,56,57
 807 156 807 156 818 142.5 c 128,-1,58
 829 129 829 129 849 121.5 c 128,-1,59
 869 114 869 114 896.5 111.5 c 128,-1,60
 924 109 924 109 956 109 c 2,61,-1
 1006 109 l 1,62,-1
 983 0 l 1,63,-1
 227 0 l 1,0,-1
EndSplineSet
EndChar

StartChar: Z
Encoding: 90 90 61
Width: 1364
GlyphClass: 2
Flags: W
LayerCount: 2
Fore
SplineSet
1423 1358 m 1,0,-1
 412 125 l 1,1,-1
 834 125 l 2,2,3
 880 125 880 125 921 137 c 128,-1,4
 962 149 962 149 996 175 c 128,-1,5
 1030 201 1030 201 1057 243.5 c 128,-1,6
 1084 286 1084 286 1102 348 c 2,7,-1
 1124 422 l 1,8,-1
 1272 422 l 1,9,-1
 1174 0 l 1,10,-1
 -4 0 l 1,11,-1
 14 102 l 1,12,-1
 1024 1337 l 1,13,-1
 668 1337 l 2,14,15
 575 1337 575 1337 518.5 1295 c 128,-1,16
 462 1253 462 1253 436 1159 c 1,17,-1
 401 1040 l 1,18,-1
 254 1040 l 1,19,-1
 354 1462 l 1,20,-1
 1444 1462 l 1,21,-1
 1423 1358 l 1,0,-1
EndSplineSet
EndChar

StartChar: bracketleft
Encoding: 91 91 62
Width: 848
GlyphClass: 2
Flags: W
LayerCount: 2
Fore
SplineSet
43 -262 m 1,0,-1
 430 1556 l 1,1,-1
 997 1556 l 1,2,-1
 975 1448 l 1,3,-1
 887 1448 l 2,4,5
 853 1448 853 1448 821.5 1443 c 128,-1,6
 790 1438 790 1438 763 1422.5 c 128,-1,7
 736 1407 736 1407 716 1378 c 128,-1,8
 696 1349 696 1349 686 1300 c 2,9,-1
 410 -6 l 2,10,11
 407 -22 407 -22 405 -34 c 128,-1,12
 403 -46 403 -46 403 -57 c 0,13,14
 403 -89 403 -89 414 -108 c 128,-1,15
 425 -127 425 -127 444.5 -137 c 128,-1,16
 464 -147 464 -147 490 -150.5 c 128,-1,17
 516 -154 516 -154 545 -154 c 2,18,-1
 633 -154 l 1,19,-1
 610 -262 l 1,20,-1
 43 -262 l 1,0,-1
EndSplineSet
EndChar

StartChar: backslash
Encoding: 92 92 63
Width: 590
GlyphClass: 2
Flags: W
LayerCount: 2
Fore
SplineSet
221 1556 m 1,0,-1
 365 1556 l 1,1,-1
 475 -248 l 1,2,-1
 332 -248 l 1,3,-1
 221 1556 l 1,0,-1
EndSplineSet
EndChar

StartChar: bracketright
Encoding: 93 93 64
Width: 848
GlyphClass: 2
Flags: W
LayerCount: 2
Fore
SplineSet
844 1556 m 1,0,-1
 457 -262 l 1,1,-1
 -109 -262 l 1,2,-1
 -86 -154 l 1,3,-1
 2 -154 l 2,4,5
 36 -154 36 -154 67.5 -149 c 128,-1,6
 99 -144 99 -144 125 -128.5 c 128,-1,7
 151 -113 151 -113 171 -83.5 c 128,-1,8
 191 -54 191 -54 201 -6 c 2,9,-1
 477 1300 l 2,10,11
 483 1331 483 1331 483 1352 c 0,12,13
 483 1383 483 1383 472 1402 c 128,-1,14
 461 1421 461 1421 442 1431.5 c 128,-1,15
 423 1442 423 1442 397 1445 c 128,-1,16
 371 1448 371 1448 342 1448 c 2,17,-1
 254 1448 l 1,18,-1
 276 1556 l 1,19,-1
 844 1556 l 1,0,-1
EndSplineSet
EndChar

StartChar: asciicircum
Encoding: 94 94 65
Width: 1145
GlyphClass: 2
Flags: W
LayerCount: 2
Fore
SplineSet
569 1462 m 1,0,-1
 657 1462 l 1,1,-1
 1092 537 l 1,2,-1
 932 537 l 1,3,-1
 612 1239 l 1,4,-1
 297 537 l 1,5,-1
 137 537 l 1,6,-1
 569 1462 l 1,0,-1
EndSplineSet
EndChar

StartChar: underscore
Encoding: 95 95 66
Width: 940
GlyphClass: 2
Flags: W
LayerCount: 2
Fore
SplineSet
772 -291 m 1,0,-1
 -186 -291 l 1,1,-1
 -160 -170 l 1,2,-1
 799 -170 l 1,3,-1
 772 -291 l 1,0,-1
EndSplineSet
EndChar

StartChar: grave
Encoding: 96 96 67
Width: 1182
GlyphClass: 2
Flags: W
LayerCount: 2
Fore
SplineSet
831 1241 m 1,0,1
 787 1267 787 1267 737.5 1307 c 128,-1,2
 688 1347 688 1347 642 1390.5 c 128,-1,3
 596 1434 596 1434 557.5 1476 c 128,-1,4
 519 1518 519 1518 498 1548 c 1,5,-1
 504 1569 l 1,6,-1
 805 1569 l 1,7,8
 817 1532 817 1532 836.5 1489 c 128,-1,9
 856 1446 856 1446 877 1405 c 128,-1,10
 898 1364 898 1364 919.5 1328 c 128,-1,11
 941 1292 941 1292 958 1268 c 1,12,-1
 952 1241 l 1,13,-1
 831 1241 l 1,0,1
EndSplineSet
EndChar

StartChar: a
Encoding: 97 97 68
Width: 1362
GlyphClass: 2
Flags: W
LayerCount: 2
Fore
SplineSet
969 -20 m 0,0,1
 878 -20 878 -20 823 21.5 c 128,-1,2
 768 63 768 63 768 143 c 0,3,4
 768 175 768 175 771 205.5 c 128,-1,5
 774 236 774 236 782 276 c 1,6,-1
 768 276 l 1,7,8
 730 205 730 205 692.5 149.5 c 128,-1,9
 655 94 655 94 609 56.5 c 128,-1,10
 563 19 563 19 506.5 -0.5 c 128,-1,11
 450 -20 450 -20 375 -20 c 0,12,13
 302 -20 302 -20 247 8.5 c 128,-1,14
 192 37 192 37 155.5 87 c 128,-1,15
 119 137 119 137 100.5 205.5 c 128,-1,16
 82 274 82 274 82 354 c 256,17,18
 82 434 82 434 100.5 521.5 c 128,-1,19
 119 609 119 609 156 694 c 128,-1,20
 193 779 193 779 247.5 856 c 128,-1,21
 302 933 302 933 373.5 991 c 128,-1,22
 445 1049 445 1049 533 1083.5 c 128,-1,23
 621 1118 621 1118 725 1118 c 0,24,25
 765 1118 765 1118 806.5 1111.5 c 128,-1,26
 848 1105 848 1105 886 1095 c 128,-1,27
 924 1085 924 1085 957.5 1072.5 c 128,-1,28
 991 1060 991 1060 1014 1047 c 1,29,-1
 1122 1096 l 1,30,-1
 1231 1096 l 1,31,-1
 1096 457 l 2,32,33
 1092 440 1092 440 1086 412 c 128,-1,34
 1080 384 1080 384 1074.5 352.5 c 128,-1,35
 1069 321 1069 321 1065 291.5 c 128,-1,36
 1061 262 1061 262 1061 242 c 0,37,38
 1061 191 1061 191 1081 166 c 128,-1,39
 1101 141 1101 141 1133 141 c 0,40,41
 1162 141 1162 141 1188.5 153.5 c 128,-1,42
 1215 166 1215 166 1247 184 c 1,43,-1
 1292 102 l 1,44,45
 1266 82 1266 82 1233 60.5 c 128,-1,46
 1200 39 1200 39 1159.5 21 c 128,-1,47
 1119 3 1119 3 1071.5 -8.5 c 128,-1,48
 1024 -20 1024 -20 969 -20 c 0,0,1
393 352 m 0,49,50
 393 293 393 293 401.5 253 c 128,-1,51
 410 213 410 213 424.5 188.5 c 128,-1,52
 439 164 439 164 459.5 153.5 c 128,-1,53
 480 143 480 143 504 143 c 0,54,55
 549 143 549 143 597 182 c 128,-1,56
 645 221 645 221 687 284.5 c 128,-1,57
 729 348 729 348 762.5 428 c 128,-1,58
 796 508 796 508 813 590 c 2,59,-1
 885 930 l 1,60,61
 865 959 865 959 829.5 973 c 128,-1,62
 794 987 794 987 754 987 c 0,63,64
 694 987 694 987 644.5 956 c 128,-1,65
 595 925 595 925 555 873 c 128,-1,66
 515 821 515 821 484.5 755 c 128,-1,67
 454 689 454 689 433.5 618 c 128,-1,68
 413 547 413 547 403 478 c 128,-1,69
 393 409 393 409 393 352 c 0,49,50
EndSplineSet
EndChar

StartChar: b
Encoding: 98 98 69
Width: 1276
GlyphClass: 2
Flags: W
LayerCount: 2
Fore
SplineSet
315 1274 m 2,0,1
 318 1287 318 1287 321 1301 c 128,-1,2
 324 1315 324 1315 326 1327.5 c 128,-1,3
 328 1340 328 1340 329 1349 c 128,-1,4
 330 1358 330 1358 330 1362 c 0,5,6
 330 1390 330 1390 324 1407 c 128,-1,7
 318 1424 318 1424 305 1433 c 128,-1,8
 292 1442 292 1442 271 1445 c 128,-1,9
 250 1448 250 1448 221 1448 c 2,10,-1
 174 1448 l 1,11,-1
 193 1556 l 1,12,-1
 690 1556 l 1,13,-1
 608 1167 l 2,14,15
 604 1148 604 1148 595.5 1119 c 128,-1,16
 587 1090 587 1090 576.5 1056 c 128,-1,17
 566 1022 566 1022 553.5 986.5 c 128,-1,18
 541 951 541 951 530 919 c 128,-1,19
 519 887 519 887 510 861 c 128,-1,20
 501 835 501 835 496 821 c 1,21,-1
 506 821 l 1,22,23
 543 896 543 896 583 951.5 c 128,-1,24
 623 1007 623 1007 670 1044 c 128,-1,25
 717 1081 717 1081 772 1099.5 c 128,-1,26
 827 1118 827 1118 895 1118 c 0,27,28
 960 1118 960 1118 1015 1094 c 128,-1,29
 1070 1070 1070 1070 1109.5 1023.5 c 128,-1,30
 1149 977 1149 977 1171.5 907.5 c 128,-1,31
 1194 838 1194 838 1194 748 c 0,32,33
 1194 665 1194 665 1174 576 c 128,-1,34
 1154 487 1154 487 1115 401.5 c 128,-1,35
 1076 316 1076 316 1019.5 239.5 c 128,-1,36
 963 163 963 163 889.5 105.5 c 128,-1,37
 816 48 816 48 727 14 c 128,-1,38
 638 -20 638 -20 535 -20 c 0,39,40
 493 -20 493 -20 454 -14 c 128,-1,41
 415 -8 415 -8 381.5 2 c 128,-1,42
 348 12 348 12 320.5 25 c 128,-1,43
 293 38 293 38 274 53 c 1,44,-1
 158 -6 l 1,45,-1
 43 -6 l 1,46,-1
 315 1274 l 2,0,1
883 733 m 0,47,48
 883 794 883 794 874.5 836 c 128,-1,49
 866 878 866 878 851 904 c 128,-1,50
 836 930 836 930 816 942 c 128,-1,51
 796 954 796 954 774 954 c 0,52,53
 736 954 736 954 701 931.5 c 128,-1,54
 666 909 666 909 634.5 873 c 128,-1,55
 603 837 603 837 576.5 792.5 c 128,-1,56
 550 748 550 748 529.5 703.5 c 128,-1,57
 509 659 509 659 495 619.5 c 128,-1,58
 481 580 481 580 475 555 c 2,59,-1
 391 168 l 1,60,61
 413 143 413 143 447 127 c 128,-1,62
 481 111 481 111 524 111 c 0,63,64
 584 111 584 111 634 142.5 c 128,-1,65
 684 174 684 174 724 225.5 c 128,-1,66
 764 277 764 277 793.5 343 c 128,-1,67
 823 409 823 409 843 478 c 128,-1,68
 863 547 863 547 873 613.5 c 128,-1,69
 883 680 883 680 883 733 c 0,47,48
EndSplineSet
EndChar

StartChar: c
Encoding: 99 99 70
Width: 1081
GlyphClass: 2
Flags: W
LayerCount: 2
Fore
SplineSet
621 135 m 0,0,1
 675 135 675 135 718.5 149.5 c 128,-1,2
 762 164 762 164 797 188 c 128,-1,3
 832 212 832 212 859 242 c 128,-1,4
 886 272 886 272 907 303 c 1,5,6
 920 291 920 291 929 267.5 c 128,-1,7
 938 244 938 244 938 213 c 0,8,9
 938 173 938 173 914.5 131.5 c 128,-1,10
 891 90 891 90 841.5 56.5 c 128,-1,11
 792 23 792 23 716 1.5 c 128,-1,12
 640 -20 640 -20 535 -20 c 0,13,14
 442 -20 442 -20 359.5 6 c 128,-1,15
 277 32 277 32 215.5 85 c 128,-1,16
 154 138 154 138 118 217 c 128,-1,17
 82 296 82 296 82 403 c 0,18,19
 82 479 82 479 101 561.5 c 128,-1,20
 120 644 120 644 158 723.5 c 128,-1,21
 196 803 196 803 252.5 874.5 c 128,-1,22
 309 946 309 946 384 1000 c 128,-1,23
 459 1054 459 1054 552 1086 c 128,-1,24
 645 1118 645 1118 756 1118 c 0,25,26
 841 1118 841 1118 902.5 1100.5 c 128,-1,27
 964 1083 964 1083 1003.5 1053.5 c 128,-1,28
 1043 1024 1043 1024 1062 984.5 c 128,-1,29
 1081 945 1081 945 1081 901 c 0,30,31
 1081 869 1081 869 1067.5 838.5 c 128,-1,32
 1054 808 1054 808 1024 783.5 c 128,-1,33
 994 759 994 759 946.5 744 c 128,-1,34
 899 729 899 729 831 729 c 1,35,36
 831 783 831 783 821.5 831.5 c 128,-1,37
 812 880 812 880 793 916.5 c 128,-1,38
 774 953 774 953 746.5 974 c 128,-1,39
 719 995 719 995 682 995 c 0,40,41
 638 995 638 995 599.5 965.5 c 128,-1,42
 561 936 561 936 529 887.5 c 128,-1,43
 497 839 497 839 472.5 776.5 c 128,-1,44
 448 714 448 714 430.5 647.5 c 128,-1,45
 413 581 413 581 404 516.5 c 128,-1,46
 395 452 395 452 395 399 c 0,47,48
 395 274 395 274 452 204.5 c 128,-1,49
 509 135 509 135 621 135 c 0,0,1
EndSplineSet
EndChar

StartChar: d
Encoding: 100 100 71
Width: 1362
GlyphClass: 2
Flags: W
LayerCount: 2
Fore
SplineSet
393 352 m 0,0,1
 393 294 393 294 401.5 254 c 128,-1,2
 410 214 410 214 424.5 189.5 c 128,-1,3
 439 165 439 165 459.5 154 c 128,-1,4
 480 143 480 143 504 143 c 0,5,6
 549 143 549 143 596.5 182 c 128,-1,7
 644 221 644 221 686 284 c 128,-1,8
 728 347 728 347 761.5 427 c 128,-1,9
 795 507 795 507 813 590 c 2,10,-1
 885 930 l 1,11,12
 863 958 863 958 825 972.5 c 128,-1,13
 787 987 787 987 750 987 c 0,14,15
 692 987 692 987 643 955.5 c 128,-1,16
 594 924 594 924 554.5 872.5 c 128,-1,17
 515 821 515 821 484.5 754.5 c 128,-1,18
 454 688 454 688 434 617.5 c 128,-1,19
 414 547 414 547 403.5 477.5 c 128,-1,20
 393 408 393 408 393 352 c 0,0,1
1092 440 m 2,21,22
 1089 425 1089 425 1083.5 397.5 c 128,-1,23
 1078 370 1078 370 1073 340 c 128,-1,24
 1068 310 1068 310 1064.5 281 c 128,-1,25
 1061 252 1061 252 1061 233 c 0,26,27
 1061 185 1061 185 1083 163 c 128,-1,28
 1105 141 1105 141 1133 141 c 0,29,30
 1159 141 1159 141 1190.5 155 c 128,-1,31
 1222 169 1222 169 1247 184 c 1,32,-1
 1292 104 l 1,33,34
 1265 82 1265 82 1231 60 c 128,-1,35
 1197 38 1197 38 1156.5 20 c 128,-1,36
 1116 2 1116 2 1069 -9 c 128,-1,37
 1022 -20 1022 -20 969 -20 c 0,38,39
 924 -20 924 -20 887 -9.5 c 128,-1,40
 850 1 850 1 823.5 21 c 128,-1,41
 797 41 797 41 782.5 71.5 c 128,-1,42
 768 102 768 102 768 143 c 0,43,44
 768 162 768 162 769 177 c 128,-1,45
 770 192 770 192 771.5 206.5 c 128,-1,46
 773 221 773 221 775.5 237.5 c 128,-1,47
 778 254 778 254 782 276 c 1,48,-1
 770 276 l 1,49,50
 732 197 732 197 690 141 c 128,-1,51
 648 85 648 85 600.5 49 c 128,-1,52
 553 13 553 13 498.5 -3.5 c 128,-1,53
 444 -20 444 -20 381 -20 c 0,54,55
 302 -20 302 -20 245.5 10 c 128,-1,56
 189 40 189 40 152.5 91 c 128,-1,57
 116 142 116 142 99 210 c 128,-1,58
 82 278 82 278 82 354 c 0,59,60
 82 434 82 434 100.5 521.5 c 128,-1,61
 119 609 119 609 155.5 694 c 128,-1,62
 192 779 192 779 245.5 856 c 128,-1,63
 299 933 299 933 369 991 c 128,-1,64
 439 1049 439 1049 524.5 1083.5 c 128,-1,65
 610 1118 610 1118 711 1118 c 0,66,67
 771 1118 771 1118 823 1105 c 128,-1,68
 875 1092 875 1092 915 1069 c 1,69,70
 918 1082 918 1082 921 1099.5 c 128,-1,71
 924 1117 924 1117 927.5 1134.5 c 128,-1,72
 931 1152 931 1152 934.5 1167.5 c 128,-1,73
 938 1183 938 1183 940 1192 c 2,74,-1
 958 1274 l 2,75,76
 961 1287 961 1287 964 1301 c 128,-1,77
 967 1315 967 1315 969 1327.5 c 128,-1,78
 971 1340 971 1340 972 1349 c 128,-1,79
 973 1358 973 1358 973 1362 c 0,80,81
 973 1390 973 1390 967 1407 c 128,-1,82
 961 1424 961 1424 948 1433 c 128,-1,83
 935 1442 935 1442 914 1445 c 128,-1,84
 893 1448 893 1448 864 1448 c 2,85,-1
 817 1448 l 1,86,-1
 836 1556 l 1,87,-1
 1329 1556 l 1,88,-1
 1092 440 l 2,21,22
EndSplineSet
EndChar

StartChar: e
Encoding: 101 101 72
Width: 1096
GlyphClass: 2
Flags: W
LayerCount: 2
Fore
SplineSet
618 135 m 0,0,1
 668 135 668 135 713 149.5 c 128,-1,2
 758 164 758 164 796.5 187.5 c 128,-1,3
 835 211 835 211 865.5 240.5 c 128,-1,4
 896 270 896 270 918 301 c 1,5,6
 930 286 930 286 937 262.5 c 128,-1,7
 944 239 944 239 944 213 c 0,8,9
 944 176 944 176 920 135 c 128,-1,10
 896 94 896 94 846.5 59.5 c 128,-1,11
 797 25 797 25 720.5 2.5 c 128,-1,12
 644 -20 644 -20 539 -20 c 0,13,14
 445 -20 445 -20 362 6 c 128,-1,15
 279 32 279 32 216.5 84.5 c 128,-1,16
 154 137 154 137 118 216.5 c 128,-1,17
 82 296 82 296 82 403 c 0,18,19
 82 479 82 479 102 562 c 128,-1,20
 122 645 122 645 161.5 724.5 c 128,-1,21
 201 804 201 804 259.5 875.5 c 128,-1,22
 318 947 318 947 395 1001 c 128,-1,23
 472 1055 472 1055 567.5 1086.5 c 128,-1,24
 663 1118 663 1118 776 1118 c 0,25,26
 923 1118 923 1118 1004 1054.5 c 128,-1,27
 1085 991 1085 991 1085 877 c 0,28,29
 1085 794 1085 794 1039 718 c 128,-1,30
 993 642 993 642 912 584.5 c 128,-1,31
 831 527 831 527 719 493 c 128,-1,32
 607 459 607 459 475 459 c 0,33,34
 458 459 458 459 438 459 c 128,-1,35
 418 459 418 459 399 461 c 1,36,37
 396 441 396 441 395.5 420.5 c 128,-1,38
 395 400 395 400 395 383 c 0,39,40
 395 264 395 264 450.5 199.5 c 128,-1,41
 506 135 506 135 618 135 c 0,0,1
690 995 m 0,42,43
 640 995 640 995 595 957.5 c 128,-1,44
 550 920 550 920 514 860 c 128,-1,45
 478 800 478 800 452 725.5 c 128,-1,46
 426 651 426 651 414 578 c 1,47,-1
 432 578 l 2,48,49
 508 578 508 578 573.5 598 c 128,-1,50
 639 618 639 618 687.5 655.5 c 128,-1,51
 736 693 736 693 763.5 745 c 128,-1,52
 791 797 791 797 791 862 c 0,53,54
 791 925 791 925 764.5 960 c 128,-1,55
 738 995 738 995 690 995 c 0,42,43
EndSplineSet
EndChar

StartChar: f
Encoding: 102 102 73
Width: 827
GlyphClass: 2
Flags: W
LayerCount: 2
Fore
SplineSet
870 958 m 1,0,-1
 610 958 l 1,1,-1
 416 43 l 2,2,3
 393 -66 393 -66 356.5 -148 c 128,-1,4
 320 -230 320 -230 274.5 -289.5 c 128,-1,5
 229 -349 229 -349 176 -388 c 128,-1,6
 123 -427 123 -427 67 -450 c 128,-1,7
 11 -473 11 -473 -47 -482.5 c 128,-1,8
 -105 -492 -105 -492 -160 -492 c 0,9,10
 -175 -492 -175 -492 -193 -490.5 c 128,-1,11
 -211 -489 -211 -489 -228 -486.5 c 128,-1,12
 -245 -484 -245 -484 -260 -481 c 128,-1,13
 -275 -478 -275 -478 -285 -475 c 1,14,-1
 -260 -356 l 1,15,16
 -243 -361 -243 -361 -216 -366 c 128,-1,17
 -189 -371 -189 -371 -166 -371 c 0,18,19
 -116 -371 -116 -371 -77.5 -354 c 128,-1,20
 -39 -337 -39 -337 -8.5 -296.5 c 128,-1,21
 22 -256 22 -256 46.5 -188 c 128,-1,22
 71 -120 71 -120 92 -18 c 2,23,-1
 299 958 l 1,24,-1
 113 958 l 1,25,-1
 133 1055 l 1,26,-1
 330 1098 l 1,27,-1
 346 1174 l 1,28,29
 370 1275 370 1275 410 1350.5 c 128,-1,30
 450 1426 450 1426 509 1476.5 c 128,-1,31
 568 1527 568 1527 647.5 1552 c 128,-1,32
 727 1577 727 1577 831 1577 c 0,33,34
 910 1577 910 1577 970.5 1563 c 128,-1,35
 1031 1549 1031 1549 1071.5 1525 c 128,-1,36
 1112 1501 1112 1501 1132.5 1468.5 c 128,-1,37
 1153 1436 1153 1436 1153 1399 c 0,38,39
 1153 1331 1153 1331 1093 1293 c 128,-1,40
 1033 1255 1033 1255 918 1255 c 1,41,42
 918 1294 918 1294 913.5 1330.5 c 128,-1,43
 909 1367 909 1367 898 1395 c 128,-1,44
 887 1423 887 1423 869 1439.5 c 128,-1,45
 851 1456 851 1456 823 1456 c 0,46,47
 758 1456 758 1456 723.5 1400 c 128,-1,48
 689 1344 689 1344 668 1229 c 1,49,-1
 641 1098 l 1,50,-1
 899 1098 l 1,51,-1
 870 958 l 1,0,-1
EndSplineSet
EndChar

StartChar: g
Encoding: 103 103 74
Width: 1188
GlyphClass: 2
Flags: W
LayerCount: 2
Fore
SplineSet
182 674 m 0,0,1
 182 745 182 745 213.5 823.5 c 128,-1,2
 245 902 245 902 308.5 967.5 c 128,-1,3
 372 1033 372 1033 468 1075.5 c 128,-1,4
 564 1118 564 1118 694 1118 c 0,5,6
 762 1118 762 1118 821.5 1102.5 c 128,-1,7
 881 1087 881 1087 926 1053 c 1,8,9
 949 1082 949 1082 975 1107.5 c 128,-1,10
 1001 1133 1001 1133 1030 1151.5 c 128,-1,11
 1059 1170 1059 1170 1092 1181 c 128,-1,12
 1125 1192 1125 1192 1163 1192 c 0,13,14
 1226 1192 1226 1192 1255 1161.5 c 128,-1,15
 1284 1131 1284 1131 1284 1083 c 0,16,17
 1284 1058 1284 1058 1277.5 1032 c 128,-1,18
 1271 1006 1271 1006 1256 985 c 128,-1,19
 1241 964 1241 964 1215.5 951 c 128,-1,20
 1190 938 1190 938 1153 938 c 1,21,22
 1153 980 1153 980 1134.5 1003 c 128,-1,23
 1116 1026 1116 1026 1081 1026 c 0,24,25
 1053 1026 1053 1026 1030 1016 c 128,-1,26
 1007 1006 1007 1006 987 989 c 1,27,28
 1009 960 1009 960 1023.5 916 c 128,-1,29
 1038 872 1038 872 1038 825 c 0,30,31
 1038 780 1038 780 1025 730.5 c 128,-1,32
 1012 681 1012 681 986 632.5 c 128,-1,33
 960 584 960 584 920 539.5 c 128,-1,34
 880 495 880 495 825 461 c 128,-1,35
 770 427 770 427 700 407 c 128,-1,36
 630 387 630 387 545 387 c 0,37,38
 536 387 536 387 521.5 387.5 c 128,-1,39
 507 388 507 388 492 388.5 c 128,-1,40
 477 389 477 389 463 390 c 128,-1,41
 449 391 449 391 440 393 c 1,42,43
 392 372 392 372 360 344.5 c 128,-1,44
 328 317 328 317 328 285 c 0,45,46
 328 268 328 268 336.5 257 c 128,-1,47
 345 246 345 246 359.5 239.5 c 128,-1,48
 374 233 374 233 394 229 c 128,-1,49
 414 225 414 225 438 223 c 2,50,-1
 668 201 l 2,51,52
 818 187 818 187 901.5 119.5 c 128,-1,53
 985 52 985 52 985 -78 c 0,54,55
 985 -171 985 -171 942.5 -247.5 c 128,-1,56
 900 -324 900 -324 818.5 -378 c 128,-1,57
 737 -432 737 -432 618.5 -462 c 128,-1,58
 500 -492 500 -492 348 -492 c 0,59,60
 223 -492 223 -492 134.5 -473.5 c 128,-1,61
 46 -455 46 -455 -10 -421 c 128,-1,62
 -66 -387 -66 -387 -92.5 -338.5 c 128,-1,63
 -119 -290 -119 -290 -119 -231 c 0,64,65
 -119 -177 -119 -177 -91.5 -133 c 128,-1,66
 -64 -89 -64 -89 -18 -56.5 c 128,-1,67
 28 -24 28 -24 87 -2 c 128,-1,68
 146 20 146 20 209 31 c 1,69,70
 189 41 189 41 170 58.5 c 128,-1,71
 151 76 151 76 136.5 98.5 c 128,-1,72
 122 121 122 121 113 146.5 c 128,-1,73
 104 172 104 172 104 199 c 0,74,75
 104 231 104 231 117 259 c 128,-1,76
 130 287 130 287 157 314 c 128,-1,77
 184 341 184 341 226 368.5 c 128,-1,78
 268 396 268 396 326 428 c 1,79,80
 258 460 258 460 220 523 c 128,-1,81
 182 586 182 586 182 674 c 0,0,1
721 -174 m 0,82,83
 721 -116 721 -116 676.5 -85 c 128,-1,84
 632 -54 632 -54 526 -45 c 2,85,-1
 344 -29 l 1,86,87
 299 -35 299 -35 259.5 -52 c 128,-1,88
 220 -69 220 -69 190 -94 c 128,-1,89
 160 -119 160 -119 142.5 -150.5 c 128,-1,90
 125 -182 125 -182 125 -217 c 0,91,92
 125 -249 125 -249 136.5 -276.5 c 128,-1,93
 148 -304 148 -304 176.5 -324.5 c 128,-1,94
 205 -345 205 -345 254.5 -357 c 128,-1,95
 304 -369 304 -369 379 -369 c 0,96,97
 469 -369 469 -369 533.5 -353 c 128,-1,98
 598 -337 598 -337 639.5 -310 c 128,-1,99
 681 -283 681 -283 701 -247.5 c 128,-1,100
 721 -212 721 -212 721 -174 c 0,82,83
551 512 m 0,101,102
 587 512 587 512 617 529 c 128,-1,103
 647 546 647 546 671 574 c 128,-1,104
 695 602 695 602 713 637.5 c 128,-1,105
 731 673 731 673 742.5 711 c 128,-1,106
 754 749 754 749 760 785.5 c 128,-1,107
 766 822 766 822 766 852 c 0,108,109
 766 924 766 924 737.5 957.5 c 128,-1,110
 709 991 709 991 655 991 c 0,111,112
 602 991 602 991 562 956 c 128,-1,113
 522 921 522 921 495 869 c 128,-1,114
 468 817 468 817 454 758.5 c 128,-1,115
 440 700 440 700 440 653 c 0,116,117
 440 578 440 578 469 545 c 128,-1,118
 498 512 498 512 551 512 c 0,101,102
EndSplineSet
EndChar

StartChar: h
Encoding: 104 104 75
Width: 1343
GlyphClass: 2
Flags: W
LayerCount: 2
Fore
SplineSet
754 190 m 0,0,1
 754 234 754 234 761.5 295 c 128,-1,2
 769 356 769 356 786 434 c 2,3,-1
 821 596 l 2,4,5
 826 616 826 616 832.5 645 c 128,-1,6
 839 674 839 674 844.5 705.5 c 128,-1,7
 850 737 850 737 854 768.5 c 128,-1,8
 858 800 858 800 858 825 c 0,9,10
 858 844 858 844 854.5 865 c 128,-1,11
 851 886 851 886 842 903 c 128,-1,12
 833 920 833 920 816 931 c 128,-1,13
 799 942 799 942 772 942 c 0,14,15
 737 942 737 942 702.5 918.5 c 128,-1,16
 668 895 668 895 636 856.5 c 128,-1,17
 604 818 604 818 575.5 768.5 c 128,-1,18
 547 719 547 719 523.5 667 c 128,-1,19
 500 615 500 615 483 565 c 128,-1,20
 466 515 466 515 457 475 c 2,21,-1
 350 0 l 1,22,-1
 43 0 l 1,23,-1
 313 1274 l 2,24,25
 316 1287 316 1287 319 1301 c 128,-1,26
 322 1315 322 1315 324 1327.5 c 128,-1,27
 326 1340 326 1340 327 1349 c 128,-1,28
 328 1358 328 1358 328 1362 c 0,29,30
 328 1390 328 1390 322 1407 c 128,-1,31
 316 1424 316 1424 303 1433 c 128,-1,32
 290 1442 290 1442 269 1445 c 128,-1,33
 248 1448 248 1448 219 1448 c 2,34,-1
 176 1448 l 1,35,-1
 195 1556 l 1,36,-1
 690 1556 l 1,37,-1
 594 1106 l 1,38,39
 586 1075 586 1075 576.5 1036 c 128,-1,40
 567 997 567 997 558 962 c 0,41,42
 547 921 547 921 537 879 c 1,43,-1
 549 879 l 1,44,45
 588 940 588 940 629.5 985 c 128,-1,46
 671 1030 671 1030 719 1059.5 c 128,-1,47
 767 1089 767 1089 823.5 1103.5 c 128,-1,48
 880 1118 880 1118 948 1118 c 0,49,50
 1013 1118 1013 1118 1058 1099 c 128,-1,51
 1103 1080 1103 1080 1130.5 1047.5 c 128,-1,52
 1158 1015 1158 1015 1170 972.5 c 128,-1,53
 1182 930 1182 930 1182 883 c 0,54,55
 1182 857 1182 857 1178 827.5 c 128,-1,56
 1174 798 1174 798 1168.5 768 c 128,-1,57
 1163 738 1163 738 1156.5 708 c 128,-1,58
 1150 678 1150 678 1145 651 c 2,59,-1
 1098 432 l 2,60,61
 1085 376 1085 376 1077 327.5 c 128,-1,62
 1069 279 1069 279 1069 236 c 0,63,64
 1069 191 1069 191 1088 167 c 128,-1,65
 1107 143 1107 143 1141 143 c 0,66,67
 1173 143 1173 143 1199.5 155 c 128,-1,68
 1226 167 1226 167 1262 190 c 1,69,-1
 1311 121 l 1,70,71
 1286 95 1286 95 1255 69.5 c 128,-1,72
 1224 44 1224 44 1185.5 24 c 128,-1,73
 1147 4 1147 4 1100 -8 c 128,-1,74
 1053 -20 1053 -20 997 -20 c 0,75,76
 880 -20 880 -20 817 35.5 c 128,-1,77
 754 91 754 91 754 190 c 0,0,1
EndSplineSet
EndChar

StartChar: i
Encoding: 105 105 76
Width: 725
GlyphClass: 2
Flags: W
LayerCount: 2
Fore
SplineSet
621 1098 m 1,0,-1
 479 432 l 2,1,2
 467 376 467 376 459 327.5 c 128,-1,3
 451 279 451 279 451 236 c 0,4,5
 451 191 451 191 469.5 167 c 128,-1,6
 488 143 488 143 522 143 c 0,7,8
 554 143 554 143 581 155 c 128,-1,9
 608 167 608 167 643 190 c 1,10,-1
 692 121 l 1,11,12
 668 95 668 95 637 69.5 c 128,-1,13
 606 44 606 44 567 24 c 128,-1,14
 528 4 528 4 481.5 -8 c 128,-1,15
 435 -20 435 -20 379 -20 c 0,16,17
 261 -20 261 -20 198 35.5 c 128,-1,18
 135 91 135 91 135 190 c 0,19,20
 135 234 135 234 143 295 c 128,-1,21
 151 356 151 356 168 434 c 2,22,-1
 248 815 l 2,23,24
 251 828 251 828 253.5 842 c 128,-1,25
 256 856 256 856 258 868.5 c 128,-1,26
 260 881 260 881 261 890 c 128,-1,27
 262 899 262 899 262 903 c 0,28,29
 262 931 262 931 256 948 c 128,-1,30
 250 965 250 965 237 974 c 128,-1,31
 224 983 224 983 203.5 986 c 128,-1,32
 183 989 183 989 154 989 c 2,33,-1
 117 989 l 1,34,-1
 135 1098 l 1,35,-1
 621 1098 l 1,0,-1
479 1282 m 0,36,37
 445 1282 445 1282 416 1289.5 c 128,-1,38
 387 1297 387 1297 365.5 1313 c 128,-1,39
 344 1329 344 1329 331.5 1353 c 128,-1,40
 319 1377 319 1377 319 1409 c 0,41,42
 319 1454 319 1454 334.5 1485.5 c 128,-1,43
 350 1517 350 1517 376 1537.5 c 128,-1,44
 402 1558 402 1558 437 1567.5 c 128,-1,45
 472 1577 472 1577 510 1577 c 0,46,47
 543 1577 543 1577 572.5 1570 c 128,-1,48
 602 1563 602 1563 624.5 1547 c 128,-1,49
 647 1531 647 1531 660.5 1506.5 c 128,-1,50
 674 1482 674 1482 674 1448 c 0,51,52
 674 1406 674 1406 657.5 1374.5 c 128,-1,53
 641 1343 641 1343 613.5 1322.5 c 128,-1,54
 586 1302 586 1302 551 1292 c 128,-1,55
 516 1282 516 1282 479 1282 c 0,36,37
EndSplineSet
EndChar

StartChar: j
Encoding: 106 106 77
Width: 692
GlyphClass: 2
Flags: W
LayerCount: 2
Fore
SplineSet
479 1282 m 0,0,1
 445 1282 445 1282 416 1289.5 c 128,-1,2
 387 1297 387 1297 365.5 1313 c 128,-1,3
 344 1329 344 1329 331.5 1353 c 128,-1,4
 319 1377 319 1377 319 1409 c 0,5,6
 319 1454 319 1454 334.5 1485.5 c 128,-1,7
 350 1517 350 1517 376 1537.5 c 128,-1,8
 402 1558 402 1558 437 1567.5 c 128,-1,9
 472 1577 472 1577 510 1577 c 0,10,11
 543 1577 543 1577 572.5 1570 c 128,-1,12
 602 1563 602 1563 624.5 1547 c 128,-1,13
 647 1531 647 1531 660.5 1506.5 c 128,-1,14
 674 1482 674 1482 674 1448 c 0,15,16
 674 1406 674 1406 657.5 1374.5 c 128,-1,17
 641 1343 641 1343 613.5 1322.5 c 128,-1,18
 586 1302 586 1302 551 1292 c 128,-1,19
 516 1282 516 1282 479 1282 c 0,0,1
621 1098 m 1,20,-1
 383 -16 l 1,21,22
 355 -153 355 -153 308 -244.5 c 128,-1,23
 261 -336 261 -336 199.5 -391 c 128,-1,24
 138 -446 138 -446 66 -469 c 128,-1,25
 -6 -492 -6 -492 -84 -492 c 0,26,27
 -149 -492 -149 -492 -196 -485 c 128,-1,28
 -243 -478 -243 -478 -287 -467 c 1,29,-1
 -262 -360 l 1,30,31
 -247 -365 -247 -365 -219.5 -370 c 128,-1,32
 -192 -375 -192 -375 -170 -375 c 0,33,34
 -122 -375 -122 -375 -86.5 -357.5 c 128,-1,35
 -51 -340 -51 -340 -23 -298 c 128,-1,36
 5 -256 5 -256 27.5 -187 c 128,-1,37
 50 -118 50 -118 72 -16 c 2,38,-1
 248 815 l 2,39,40
 251 828 251 828 253.5 842 c 128,-1,41
 256 856 256 856 258 868.5 c 128,-1,42
 260 881 260 881 261 890 c 128,-1,43
 262 899 262 899 262 903 c 0,44,45
 262 931 262 931 256 948 c 128,-1,46
 250 965 250 965 237 974 c 128,-1,47
 224 983 224 983 203.5 986 c 128,-1,48
 183 989 183 989 154 989 c 2,49,-1
 117 989 l 1,50,-1
 135 1098 l 1,51,-1
 621 1098 l 1,20,-1
EndSplineSet
EndChar

StartChar: k
Encoding: 107 107 78
Width: 1223
GlyphClass: 2
Flags: W
LayerCount: 2
Fore
SplineSet
438 408 m 1,0,-1
 350 0 l 1,1,-1
 43 0 l 1,2,-1
 313 1274 l 2,3,4
 316 1287 316 1287 319 1301 c 128,-1,5
 322 1315 322 1315 324 1327.5 c 128,-1,6
 326 1340 326 1340 327 1349 c 128,-1,7
 328 1358 328 1358 328 1362 c 0,8,9
 328 1390 328 1390 322 1407 c 128,-1,10
 316 1424 316 1424 303 1433 c 128,-1,11
 290 1442 290 1442 269 1445 c 128,-1,12
 248 1448 248 1448 219 1448 c 2,13,-1
 176 1448 l 1,14,-1
 195 1556 l 1,15,-1
 690 1556 l 1,16,-1
 582 1057 l 2,17,18
 564 976 564 976 550.5 912.5 c 128,-1,19
 537 849 537 849 523.5 792 c 128,-1,20
 510 735 510 735 495.5 678 c 128,-1,21
 481 621 481 621 463 553 c 1,22,-1
 782 842 l 2,23,24
 807 864 807 864 822 881 c 128,-1,25
 837 898 837 898 845.5 910.5 c 128,-1,26
 854 923 854 923 857 932.5 c 128,-1,27
 860 942 860 942 860 950 c 0,28,29
 860 972 860 972 835 983.5 c 128,-1,30
 810 995 810 995 764 995 c 1,31,-1
 784 1098 l 1,32,-1
 1300 1098 l 1,33,-1
 1280 995 l 1,34,35
 1209 995 1209 995 1131 953.5 c 128,-1,36
 1053 912 1053 912 954 821 c 2,37,-1
 791 670 l 1,38,-1
 944 336 l 2,39,40
 977 264 977 264 1008 220 c 128,-1,41
 1039 176 1039 176 1066 151 c 128,-1,42
 1093 126 1093 126 1116 117.5 c 128,-1,43
 1139 109 1139 109 1157 109 c 2,44,-1
 1165 109 l 1,45,-1
 1143 0 l 1,46,-1
 1038 0 l 2,47,48
 963 0 963 0 904 10.5 c 128,-1,49
 845 21 845 21 800 44.5 c 128,-1,50
 755 68 755 68 723 104.5 c 128,-1,51
 691 141 691 141 670 193 c 2,52,-1
 549 479 l 1,53,-1
 438 408 l 1,0,-1
EndSplineSet
EndChar

StartChar: l
Encoding: 108 108 79
Width: 725
GlyphClass: 2
Flags: W
LayerCount: 2
Fore
SplineSet
489 143 m 0,0,1
 521 143 521 143 548 155 c 128,-1,2
 575 167 575 167 610 190 c 1,3,-1
 659 121 l 1,4,5
 635 95 635 95 604 69.5 c 128,-1,6
 573 44 573 44 534.5 24 c 128,-1,7
 496 4 496 4 449 -8 c 128,-1,8
 402 -20 402 -20 346 -20 c 0,9,10
 228 -20 228 -20 165 35.5 c 128,-1,11
 102 91 102 91 102 190 c 0,12,13
 102 278 102 278 135 434 c 2,14,-1
 313 1274 l 2,15,16
 316 1287 316 1287 319 1301 c 128,-1,17
 322 1315 322 1315 324 1327.5 c 128,-1,18
 326 1340 326 1340 327 1349 c 128,-1,19
 328 1358 328 1358 328 1362 c 0,20,21
 328 1390 328 1390 322 1407 c 128,-1,22
 316 1424 316 1424 303 1433 c 128,-1,23
 290 1442 290 1442 269 1445 c 128,-1,24
 248 1448 248 1448 219 1448 c 2,25,-1
 176 1448 l 1,26,-1
 195 1556 l 1,27,-1
 690 1556 l 1,28,-1
 446 432 l 2,29,30
 434 376 434 376 426 327.5 c 128,-1,31
 418 279 418 279 418 236 c 0,32,33
 418 191 418 191 436.5 167 c 128,-1,34
 455 143 455 143 489 143 c 0,0,1
EndSplineSet
EndChar

StartChar: m
Encoding: 109 109 80
Width: 1985
GlyphClass: 2
Flags: W
LayerCount: 2
Fore
SplineSet
1638 -14 m 0,0,1
 1521 -14 1521 -14 1458 42 c 128,-1,2
 1395 98 1395 98 1395 197 c 0,3,4
 1395 240 1395 240 1402.5 301 c 128,-1,5
 1410 362 1410 362 1427 440 c 2,6,-1
 1462 602 l 2,7,8
 1467 622 1467 622 1473.5 651 c 128,-1,9
 1480 680 1480 680 1485.5 711.5 c 128,-1,10
 1491 743 1491 743 1495 774.5 c 128,-1,11
 1499 806 1499 806 1499 831 c 0,12,13
 1499 850 1499 850 1495.5 871 c 128,-1,14
 1492 892 1492 892 1483 909 c 128,-1,15
 1474 926 1474 926 1458 937 c 128,-1,16
 1442 948 1442 948 1417 948 c 0,17,18
 1384 948 1384 948 1351.5 925 c 128,-1,19
 1319 902 1319 902 1288 864.5 c 128,-1,20
 1257 827 1257 827 1229.5 778.5 c 128,-1,21
 1202 730 1202 730 1179.5 679 c 128,-1,22
 1157 628 1157 628 1141 578.5 c 128,-1,23
 1125 529 1125 529 1118 489 c 2,24,-1
 1102 403 l 2,25,26
 1098 382 1098 382 1092.5 345.5 c 128,-1,27
 1087 309 1087 309 1081 267 c 128,-1,28
 1075 225 1075 225 1069 181 c 128,-1,29
 1063 137 1063 137 1058.5 99.5 c 128,-1,30
 1054 62 1054 62 1051.5 35 c 128,-1,31
 1049 8 1049 8 1049 0 c 1,32,-1
 731 0 l 1,33,34
 731 12 731 12 734.5 42 c 128,-1,35
 738 72 738 72 744 112.5 c 128,-1,36
 750 153 750 153 758 200 c 128,-1,37
 766 247 766 247 774 294 c 128,-1,38
 782 341 782 341 790 383.5 c 128,-1,39
 798 426 798 426 805 457 c 2,40,-1
 836 600 l 2,41,42
 840 619 840 619 845.5 648 c 128,-1,43
 851 677 851 677 856.5 708.5 c 128,-1,44
 862 740 862 740 866 772 c 128,-1,45
 870 804 870 804 870 829 c 0,46,47
 870 848 870 848 868 868 c 128,-1,48
 866 888 866 888 859.5 904.5 c 128,-1,49
 853 921 853 921 839.5 931.5 c 128,-1,50
 826 942 826 942 803 942 c 0,51,52
 769 942 769 942 735.5 921 c 128,-1,53
 702 900 702 900 671 865 c 128,-1,54
 640 830 640 830 612 785 c 128,-1,55
 584 740 584 740 561.5 692.5 c 128,-1,56
 539 645 539 645 522.5 598.5 c 128,-1,57
 506 552 506 552 498 514 c 2,58,-1
 383 0 l 1,59,-1
 76 0 l 1,60,-1
 248 815 l 2,61,62
 251 828 251 828 253.5 842 c 128,-1,63
 256 856 256 856 258 868.5 c 128,-1,64
 260 881 260 881 261 890 c 128,-1,65
 262 899 262 899 262 903 c 0,66,67
 262 931 262 931 256 948 c 128,-1,68
 250 965 250 965 237 974 c 128,-1,69
 224 983 224 983 203.5 986 c 128,-1,70
 183 989 183 989 154 989 c 2,71,-1
 117 989 l 1,72,-1
 135 1098 l 1,73,-1
 610 1098 l 1,74,-1
 571 889 l 1,75,-1
 586 889 l 1,76,77
 626 951 626 951 668.5 994.5 c 128,-1,78
 711 1038 711 1038 758 1065.5 c 128,-1,79
 805 1093 805 1093 857.5 1105.5 c 128,-1,80
 910 1118 910 1118 971 1118 c 0,81,82
 1035 1118 1035 1118 1078 1100 c 128,-1,83
 1121 1082 1121 1082 1147 1051 c 128,-1,84
 1173 1020 1173 1020 1184.5 980 c 128,-1,85
 1196 940 1196 940 1196 895 c 2,86,-1
 1196 879 l 1,87,-1
 1208 879 l 1,88,89
 1246 940 1246 940 1286.5 986 c 128,-1,90
 1327 1032 1327 1032 1374 1062.5 c 128,-1,91
 1421 1093 1421 1093 1476 1108.5 c 128,-1,92
 1531 1124 1531 1124 1597 1124 c 0,93,94
 1660 1124 1660 1124 1703 1105 c 128,-1,95
 1746 1086 1746 1086 1773 1053.5 c 128,-1,96
 1800 1021 1800 1021 1811.5 978.5 c 128,-1,97
 1823 936 1823 936 1823 889 c 0,98,99
 1823 863 1823 863 1819 833.5 c 128,-1,100
 1815 804 1815 804 1809.5 774 c 128,-1,101
 1804 744 1804 744 1797.5 714 c 128,-1,102
 1791 684 1791 684 1786 657 c 2,103,-1
 1739 438 l 1,104,105
 1726 383 1726 383 1718 334 c 128,-1,106
 1710 285 1710 285 1710 242 c 0,107,108
 1710 197 1710 197 1729 173.5 c 128,-1,109
 1748 150 1748 150 1782 150 c 0,110,111
 1814 150 1814 150 1840.5 162 c 128,-1,112
 1867 174 1867 174 1903 197 c 1,113,-1
 1952 127 l 1,114,115
 1927 101 1927 101 1896 75.5 c 128,-1,116
 1865 50 1865 50 1826.5 30 c 128,-1,117
 1788 10 1788 10 1741 -2 c 128,-1,118
 1694 -14 1694 -14 1638 -14 c 0,0,1
EndSplineSet
EndChar

StartChar: n
Encoding: 110 110 81
Width: 1376
GlyphClass: 2
Flags: W
LayerCount: 2
Fore
SplineSet
786 190 m 0,0,1
 786 278 786 278 819 434 c 1,2,-1
 852 596 l 2,3,4
 856 616 856 616 862 645 c 128,-1,5
 868 674 868 674 874 705.5 c 128,-1,6
 880 737 880 737 884.5 768.5 c 128,-1,7
 889 800 889 800 889 825 c 0,8,9
 889 844 889 844 885.5 865 c 128,-1,10
 882 886 882 886 872.5 903 c 128,-1,11
 863 920 863 920 846.5 931 c 128,-1,12
 830 942 830 942 803 942 c 0,13,14
 768 942 768 942 733.5 918.5 c 128,-1,15
 699 895 699 895 667 856.5 c 128,-1,16
 635 818 635 818 606 768.5 c 128,-1,17
 577 719 577 719 553.5 667 c 128,-1,18
 530 615 530 615 513 565 c 128,-1,19
 496 515 496 515 487 475 c 2,20,-1
 383 0 l 1,21,-1
 76 0 l 1,22,-1
 248 815 l 2,23,24
 251 828 251 828 253.5 842 c 128,-1,25
 256 856 256 856 258 868.5 c 128,-1,26
 260 881 260 881 261 890 c 128,-1,27
 262 899 262 899 262 903 c 0,28,29
 262 931 262 931 256 948 c 128,-1,30
 250 965 250 965 237 974 c 128,-1,31
 224 983 224 983 203.5 986 c 128,-1,32
 183 989 183 989 154 989 c 2,33,-1
 117 989 l 1,34,-1
 135 1098 l 1,35,-1
 590 1098 l 1,36,-1
 567 879 l 1,37,-1
 580 879 l 1,38,39
 619 940 619 940 660.5 985 c 128,-1,40
 702 1030 702 1030 750 1059.5 c 128,-1,41
 798 1089 798 1089 854.5 1103.5 c 128,-1,42
 911 1118 911 1118 979 1118 c 0,43,44
 1044 1118 1044 1118 1088.5 1099 c 128,-1,45
 1133 1080 1133 1080 1160.5 1047.5 c 128,-1,46
 1188 1015 1188 1015 1200 972.5 c 128,-1,47
 1212 930 1212 930 1212 883 c 0,48,49
 1212 857 1212 857 1208.5 827.5 c 128,-1,50
 1205 798 1205 798 1199.5 768 c 128,-1,51
 1194 738 1194 738 1187.5 708 c 128,-1,52
 1181 678 1181 678 1176 651 c 2,53,-1
 1130 432 l 2,54,55
 1118 376 1118 376 1110 327.5 c 128,-1,56
 1102 279 1102 279 1102 236 c 0,57,58
 1102 191 1102 191 1120.5 167 c 128,-1,59
 1139 143 1139 143 1174 143 c 0,60,61
 1206 143 1206 143 1232.5 155 c 128,-1,62
 1259 167 1259 167 1294 190 c 1,63,-1
 1343 121 l 1,64,65
 1319 95 1319 95 1288 69.5 c 128,-1,66
 1257 44 1257 44 1218.5 24 c 128,-1,67
 1180 4 1180 4 1133 -8 c 128,-1,68
 1086 -20 1086 -20 1030 -20 c 0,69,70
 912 -20 912 -20 849 35.5 c 128,-1,71
 786 91 786 91 786 190 c 0,0,1
EndSplineSet
EndChar

StartChar: o
Encoding: 111 111 82
Width: 1266
GlyphClass: 2
Flags: W
LayerCount: 2
Fore
SplineSet
82 410 m 0,0,1
 82 487 82 487 100 569 c 128,-1,2
 118 651 118 651 154.5 730 c 128,-1,3
 191 809 191 809 246 879.5 c 128,-1,4
 301 950 301 950 375.5 1003 c 128,-1,5
 450 1056 450 1056 544.5 1087 c 128,-1,6
 639 1118 639 1118 754 1118 c 0,7,8
 842 1118 842 1118 920 1093.5 c 128,-1,9
 998 1069 998 1069 1056 1017 c 128,-1,10
 1114 965 1114 965 1148 883.5 c 128,-1,11
 1182 802 1182 802 1182 688 c 0,12,13
 1182 614 1182 614 1165 533 c 128,-1,14
 1148 452 1148 452 1112.5 373.5 c 128,-1,15
 1077 295 1077 295 1022.5 223.5 c 128,-1,16
 968 152 968 152 894 98 c 128,-1,17
 820 44 820 44 726 12 c 128,-1,18
 632 -20 632 -20 516 -20 c 0,19,20
 420 -20 420 -20 340 6.5 c 128,-1,21
 260 33 260 33 203 86.5 c 128,-1,22
 146 140 146 140 114 221 c 128,-1,23
 82 302 82 302 82 410 c 0,0,1
553 127 m 0,24,25
 608 127 608 127 652.5 158.5 c 128,-1,26
 697 190 697 190 732.5 241.5 c 128,-1,27
 768 293 768 293 794 359 c 128,-1,28
 820 425 820 425 836.5 495 c 128,-1,29
 853 565 853 565 861.5 632.5 c 128,-1,30
 870 700 870 700 870 754 c 0,31,32
 870 875 870 875 828.5 928 c 128,-1,33
 787 981 787 981 715 981 c 0,34,35
 663 981 663 981 619 951 c 128,-1,36
 575 921 575 921 539.5 871 c 128,-1,37
 504 821 504 821 477 756.5 c 128,-1,38
 450 692 450 692 431.5 623 c 128,-1,39
 413 554 413 554 404 485.5 c 128,-1,40
 395 417 395 417 395 360 c 0,41,42
 395 235 395 235 437 181 c 128,-1,43
 479 127 479 127 553 127 c 0,24,25
EndSplineSet
EndChar

StartChar: p
Encoding: 112 112 83
Width: 1276
GlyphClass: 2
Flags: W
LayerCount: 2
Fore
SplineSet
885 733 m 0,0,1
 885 775 885 775 879.5 814.5 c 128,-1,2
 874 854 874 854 861.5 885 c 128,-1,3
 849 916 849 916 827.5 935 c 128,-1,4
 806 954 806 954 774 954 c 0,5,6
 740 954 740 954 706.5 934.5 c 128,-1,7
 673 915 673 915 641.5 882 c 128,-1,8
 610 849 610 849 582.5 806 c 128,-1,9
 555 763 555 763 532.5 716.5 c 128,-1,10
 510 670 510 670 493.5 623 c 128,-1,11
 477 576 477 576 469 535 c 2,12,-1
 391 168 l 1,13,14
 400 159 400 159 415 148.5 c 128,-1,15
 430 138 430 138 449 130 c 128,-1,16
 468 122 468 122 490.5 116.5 c 128,-1,17
 513 111 513 111 537 111 c 0,18,19
 592 111 592 111 639.5 141 c 128,-1,20
 687 171 687 171 725.5 221 c 128,-1,21
 764 271 764 271 794 335.5 c 128,-1,22
 824 400 824 400 844 469 c 128,-1,23
 864 538 864 538 874.5 606.5 c 128,-1,24
 885 675 885 675 885 733 c 0,0,1
-61 -492 m 1,25,-1
 217 815 l 2,26,27
 220 828 220 828 222.5 842 c 128,-1,28
 225 856 225 856 227 868.5 c 128,-1,29
 229 881 229 881 230 890 c 128,-1,30
 231 899 231 899 231 903 c 0,31,32
 231 931 231 931 225 948 c 128,-1,33
 219 965 219 965 206 974 c 128,-1,34
 193 983 193 983 172.5 986 c 128,-1,35
 152 989 152 989 123 989 c 2,36,-1
 86 989 l 1,37,-1
 104 1098 l 1,38,-1
 545 1098 l 1,39,-1
 492 825 l 1,40,-1
 506 825 l 1,41,42
 541 889 541 889 578 943 c 128,-1,43
 615 997 615 997 660 1036 c 128,-1,44
 705 1075 705 1075 762 1096.5 c 128,-1,45
 819 1118 819 1118 895 1118 c 0,46,47
 962 1118 962 1118 1017.5 1094 c 128,-1,48
 1073 1070 1073 1070 1112 1023 c 128,-1,49
 1151 976 1151 976 1172.5 907 c 128,-1,50
 1194 838 1194 838 1194 748 c 0,51,52
 1194 674 1194 674 1176.5 588.5 c 128,-1,53
 1159 503 1159 503 1124 417.5 c 128,-1,54
 1089 332 1089 332 1036.5 253 c 128,-1,55
 984 174 984 174 913 113.5 c 128,-1,56
 842 53 842 53 753.5 16.5 c 128,-1,57
 665 -20 665 -20 559 -20 c 0,58,59
 497 -20 497 -20 443.5 -7.5 c 128,-1,60
 390 5 390 5 350 27 c 1,61,62
 349 11 349 11 346 -6 c 0,63,64
 344 -20 344 -20 341 -37.5 c 128,-1,65
 338 -55 338 -55 334 -72 c 2,66,-1
 305 -209 l 2,67,68
 302 -222 302 -222 299.5 -236 c 128,-1,69
 297 -250 297 -250 295 -262.5 c 128,-1,70
 293 -275 293 -275 292 -284 c 128,-1,71
 291 -293 291 -293 291 -297 c 0,72,73
 291 -325 291 -325 297 -342 c 128,-1,74
 303 -359 303 -359 316 -368 c 128,-1,75
 329 -377 329 -377 349.5 -380 c 128,-1,76
 370 -383 370 -383 399 -383 c 2,77,-1
 477 -383 l 1,78,-1
 459 -492 l 1,79,-1
 -61 -492 l 1,25,-1
EndSplineSet
EndChar

StartChar: q
Encoding: 113 113 84
Width: 1292
GlyphClass: 2
Flags: W
LayerCount: 2
Fore
SplineSet
393 360 m 0,0,1
 393 301 393 301 401.5 260 c 128,-1,2
 410 219 410 219 424.5 193 c 128,-1,3
 439 167 439 167 459.5 155 c 128,-1,4
 480 143 480 143 504 143 c 0,5,6
 535 143 535 143 566.5 161.5 c 128,-1,7
 598 180 598 180 629 212.5 c 128,-1,8
 660 245 660 245 688.5 289 c 128,-1,9
 717 333 717 333 740.5 383 c 128,-1,10
 764 433 764 433 782.5 486.5 c 128,-1,11
 801 540 801 540 811 592 c 1,12,-1
 885 930 l 1,13,14
 871 953 871 953 836 970 c 128,-1,15
 801 987 801 987 752 987 c 0,16,17
 691 987 691 987 641 955 c 128,-1,18
 591 923 591 923 551 870.5 c 128,-1,19
 511 818 511 818 481.5 751 c 128,-1,20
 452 684 452 684 432.5 614.5 c 128,-1,21
 413 545 413 545 403 478.5 c 128,-1,22
 393 412 393 412 393 360 c 0,0,1
705 -82 m 2,23,24
 708 -66 708 -66 713 -42.5 c 128,-1,25
 718 -19 718 -19 724 9 c 128,-1,26
 730 37 730 37 736.5 67.5 c 128,-1,27
 743 98 743 98 749 128 c 0,28,29
 764 198 764 198 782 276 c 1,30,-1
 770 276 l 1,31,32
 735 209 735 209 698 154.5 c 128,-1,33
 661 100 661 100 615.5 61 c 128,-1,34
 570 22 570 22 511 1 c 128,-1,35
 452 -20 452 -20 373 -20 c 0,36,37
 308 -20 308 -20 254.5 4 c 128,-1,38
 201 28 201 28 163 75 c 128,-1,39
 125 122 125 122 103.5 192 c 128,-1,40
 82 262 82 262 82 354 c 0,41,42
 82 434 82 434 101.5 521.5 c 128,-1,43
 121 609 121 609 158 694 c 128,-1,44
 195 779 195 779 249.5 856 c 128,-1,45
 304 933 304 933 374 991 c 128,-1,46
 444 1049 444 1049 528.5 1083.5 c 128,-1,47
 613 1118 613 1118 711 1118 c 0,48,49
 756 1118 756 1118 799 1112 c 128,-1,50
 842 1106 842 1106 881 1096.5 c 128,-1,51
 920 1087 920 1087 953 1075 c 128,-1,52
 986 1063 986 1063 1012 1051 c 1,53,-1
 1133 1118 l 1,54,-1
 1235 1118 l 1,55,-1
 954 -209 l 2,56,57
 948 -235 948 -235 944 -264 c 128,-1,58
 940 -293 940 -293 940 -313 c 0,59,60
 940 -350 940 -350 965 -366.5 c 128,-1,61
 990 -383 990 -383 1049 -383 c 2,62,-1
 1126 -383 l 1,63,-1
 1108 -492 l 1,64,-1
 623 -492 l 1,65,-1
 705 -82 l 2,23,24
EndSplineSet
EndChar

StartChar: r
Encoding: 114 114 85
Width: 1128
GlyphClass: 2
Flags: W
LayerCount: 2
Fore
SplineSet
262 918 m 0,0,1
 262 956 262 956 237 972.5 c 128,-1,2
 212 989 212 989 154 989 c 2,3,-1
 117 989 l 1,4,-1
 135 1098 l 1,5,-1
 588 1098 l 1,6,-1
 545 817 l 1,7,-1
 555 817 l 1,8,9
 590 891 590 891 625.5 947 c 128,-1,10
 661 1003 661 1003 703.5 1041 c 128,-1,11
 746 1079 746 1079 800 1098.5 c 128,-1,12
 854 1118 854 1118 926 1118 c 0,13,14
 1035 1118 1035 1118 1088 1077 c 128,-1,15
 1141 1036 1141 1036 1141 958 c 0,16,17
 1141 852 1141 852 1079 800 c 128,-1,18
 1017 748 1017 748 899 748 c 1,19,20
 899 794 899 794 894.5 831.5 c 128,-1,21
 890 869 890 869 878.5 895.5 c 128,-1,22
 867 922 867 922 847.5 936 c 128,-1,23
 828 950 828 950 799 950 c 256,24,25
 770 950 770 950 738 926.5 c 128,-1,26
 706 903 706 903 674 862 c 128,-1,27
 642 821 642 821 611.5 764.5 c 128,-1,28
 581 708 581 708 553 641.5 c 128,-1,29
 525 575 525 575 502 502 c 128,-1,30
 479 429 479 429 463 354 c 2,31,-1
 385 0 l 1,32,-1
 76 0 l 1,33,-1
 250 823 l 2,34,35
 253 840 253 840 257.5 868 c 128,-1,36
 262 896 262 896 262 918 c 0,0,1
EndSplineSet
EndChar

StartChar: s
Encoding: 115 115 86
Width: 1053
GlyphClass: 2
Flags: W
LayerCount: 2
Fore
SplineSet
457 102 m 0,0,1
 499 102 499 102 535 112.5 c 128,-1,2
 571 123 571 123 597 142.5 c 128,-1,3
 623 162 623 162 638 190.5 c 128,-1,4
 653 219 653 219 653 256 c 0,5,6
 653 291 653 291 639.5 318 c 128,-1,7
 626 345 626 345 597.5 368.5 c 128,-1,8
 569 392 569 392 525.5 415 c 128,-1,9
 482 438 482 438 422 467 c 0,10,11
 362 495 362 495 313.5 527 c 128,-1,12
 265 559 265 559 231 598 c 128,-1,13
 197 637 197 637 178.5 685 c 128,-1,14
 160 733 160 733 160 793 c 0,15,16
 160 868 160 868 192 928 c 128,-1,17
 224 988 224 988 284 1030.5 c 128,-1,18
 344 1073 344 1073 429.5 1095.5 c 128,-1,19
 515 1118 515 1118 623 1118 c 0,20,21
 726 1118 726 1118 797.5 1102 c 128,-1,22
 869 1086 869 1086 913.5 1059.5 c 128,-1,23
 958 1033 958 1033 977.5 998 c 128,-1,24
 997 963 997 963 997 926 c 0,25,26
 997 844 997 844 934 807 c 128,-1,27
 871 770 871 770 762 770 c 1,28,29
 762 811 762 811 754 852.5 c 128,-1,30
 746 894 746 894 727 928 c 128,-1,31
 708 962 708 962 678 983 c 128,-1,32
 648 1004 648 1004 604 1004 c 0,33,34
 564 1004 564 1004 532.5 992.5 c 128,-1,35
 501 981 501 981 478.5 961.5 c 128,-1,36
 456 942 456 942 444 916 c 128,-1,37
 432 890 432 890 432 860 c 0,38,39
 432 826 432 826 445.5 801 c 128,-1,40
 459 776 459 776 487.5 754 c 128,-1,41
 516 732 516 732 560 710.5 c 128,-1,42
 604 689 604 689 664 662 c 0,43,44
 730 632 730 632 778 598.5 c 128,-1,45
 826 565 826 565 857.5 525.5 c 128,-1,46
 889 486 889 486 904.5 439.5 c 128,-1,47
 920 393 920 393 920 336 c 0,48,49
 920 253 920 253 888.5 187 c 128,-1,50
 857 121 857 121 794 75 c 128,-1,51
 731 29 731 29 638 4.5 c 128,-1,52
 545 -20 545 -20 422 -20 c 0,53,54
 334 -20 334 -20 262.5 -5 c 128,-1,55
 191 10 191 10 140.5 39 c 128,-1,56
 90 68 90 68 62.5 110 c 128,-1,57
 35 152 35 152 35 205 c 0,58,59
 35 253 35 253 54 286 c 128,-1,60
 73 319 73 319 103.5 339.5 c 128,-1,61
 134 360 134 360 173.5 369.5 c 128,-1,62
 213 379 213 379 254 379 c 1,63,64
 254 324 254 324 265 274 c 128,-1,65
 276 224 276 224 300 185.5 c 128,-1,66
 324 147 324 147 362.5 124.5 c 128,-1,67
 401 102 401 102 457 102 c 0,0,1
EndSplineSet
EndChar

StartChar: t
Encoding: 116 116 87
Width: 854
GlyphClass: 2
Flags: W
LayerCount: 2
Fore
SplineSet
553 147 m 0,0,1
 601 147 601 147 640 163 c 128,-1,2
 679 179 679 179 713 201 c 1,3,-1
 760 123 l 1,4,5
 726 94 726 94 688.5 68 c 128,-1,6
 651 42 651 42 607 22.5 c 128,-1,7
 563 3 563 3 512.5 -8.5 c 128,-1,8
 462 -20 462 -20 403 -20 c 0,9,10
 347 -20 347 -20 298.5 -5.5 c 128,-1,11
 250 9 250 9 214 38.5 c 128,-1,12
 178 68 178 68 157.5 113 c 128,-1,13
 137 158 137 158 137 219 c 0,14,15
 137 237 137 237 138.5 259 c 128,-1,16
 140 281 140 281 143 304 c 128,-1,17
 146 327 146 327 150 349.5 c 128,-1,18
 154 372 154 372 158 391 c 2,19,-1
 281 958 l 1,20,-1
 123 958 l 1,21,-1
 145 1063 l 1,22,23
 189 1063 189 1063 241 1078 c 128,-1,24
 293 1093 293 1093 347.5 1127 c 128,-1,25
 402 1161 402 1161 456.5 1216 c 128,-1,26
 511 1271 511 1271 559 1350 c 1,27,-1
 678 1350 l 1,28,-1
 625 1098 l 1,29,-1
 872 1098 l 1,30,-1
 844 958 l 1,31,-1
 594 958 l 1,32,-1
 471 397 l 1,33,34
 460 352 460 352 455.5 315.5 c 128,-1,35
 451 279 451 279 451 250 c 0,36,37
 451 199 451 199 479 173 c 128,-1,38
 507 147 507 147 553 147 c 0,0,1
EndSplineSet
EndChar

StartChar: u
Encoding: 117 117 88
Width: 1378
GlyphClass: 2
Flags: W
LayerCount: 2
Fore
SplineSet
793 176 m 0,0,1
 793 185 793 185 794 197 c 128,-1,2
 795 209 795 209 796.5 222 c 128,-1,3
 798 235 798 235 799.5 246.5 c 128,-1,4
 801 258 801 258 803 266 c 1,5,-1
 786 266 l 1,6,7
 741 202 741 202 697.5 150 c 128,-1,8
 654 98 654 98 605 60.5 c 128,-1,9
 556 23 556 23 499 2.5 c 128,-1,10
 442 -18 442 -18 369 -18 c 0,11,12
 303 -18 303 -18 258 0.5 c 128,-1,13
 213 19 213 19 186 50 c 128,-1,14
 159 81 159 81 147 122.5 c 128,-1,15
 135 164 135 164 135 209 c 0,16,17
 135 260 135 260 147 321 c 128,-1,18
 159 382 159 382 170 434 c 2,19,-1
 244 795 l 2,20,21
 252 837 252 837 257 871 c 128,-1,22
 262 905 262 905 262 922 c 0,23,24
 262 963 262 963 237 976 c 128,-1,25
 212 989 212 989 154 989 c 2,26,-1
 117 989 l 1,27,-1
 135 1098 l 1,28,-1
 627 1098 l 1,29,-1
 492 485 l 2,30,31
 486 461 486 461 480 431 c 128,-1,32
 474 401 474 401 469 371 c 128,-1,33
 464 341 464 341 460.5 314 c 128,-1,34
 457 287 457 287 457 268 c 0,35,36
 457 223 457 223 476 196.5 c 128,-1,37
 495 170 495 170 545 170 c 0,38,39
 590 170 590 170 637.5 210.5 c 128,-1,40
 685 251 685 251 728.5 315.5 c 128,-1,41
 772 380 772 380 806 459.5 c 128,-1,42
 840 539 840 539 858 616 c 2,43,-1
 967 1098 l 1,44,-1
 1272 1098 l 1,45,-1
 1133 432 l 1,46,47
 1120 376 1120 376 1112 327.5 c 128,-1,48
 1104 279 1104 279 1104 236 c 0,49,50
 1104 191 1104 191 1122.5 167 c 128,-1,51
 1141 143 1141 143 1176 143 c 0,52,53
 1208 143 1208 143 1234.5 155 c 128,-1,54
 1261 167 1261 167 1296 190 c 1,55,-1
 1346 121 l 1,56,57
 1321 95 1321 95 1290 69.5 c 128,-1,58
 1259 44 1259 44 1220.5 24 c 128,-1,59
 1182 4 1182 4 1135 -8 c 128,-1,60
 1088 -20 1088 -20 1032 -20 c 0,61,62
 964 -20 964 -20 918.5 -4.5 c 128,-1,63
 873 11 873 11 845 37.5 c 128,-1,64
 817 64 817 64 805 99.5 c 128,-1,65
 793 135 793 135 793 176 c 0,0,1
EndSplineSet
EndChar

StartChar: v
Encoding: 118 118 89
Width: 1200
GlyphClass: 2
Flags: W
LayerCount: 2
Fore
SplineSet
195 881 m 2,0,1
 189 913 189 913 177.5 934 c 128,-1,2
 166 955 166 955 148.5 967 c 128,-1,3
 131 979 131 979 107 984 c 128,-1,4
 83 989 83 989 53 989 c 2,5,-1
 33 989 l 1,6,-1
 57 1098 l 1,7,-1
 459 1098 l 1,8,-1
 553 492 l 1,9,10
 568 388 568 388 574.5 306.5 c 128,-1,11
 581 225 581 225 586 174 c 1,12,-1
 592 174 l 1,13,14
 662 246 662 246 726 329 c 128,-1,15
 790 412 790 412 839 495.5 c 128,-1,16
 888 579 888 579 917 657.5 c 128,-1,17
 946 736 946 736 946 799 c 0,18,19
 946 868 946 868 907 900 c 128,-1,20
 868 932 868 932 811 932 c 1,21,22
 811 1016 811 1016 857 1066 c 128,-1,23
 903 1116 903 1116 981 1116 c 0,24,25
 1013 1116 1013 1116 1041 1105.5 c 128,-1,26
 1069 1095 1069 1095 1090 1072 c 128,-1,27
 1111 1049 1111 1049 1123 1013 c 128,-1,28
 1135 977 1135 977 1135 926 c 0,29,30
 1135 846 1135 846 1109 759 c 128,-1,31
 1083 672 1083 672 1040.5 584.5 c 128,-1,32
 998 497 998 497 943 412.5 c 128,-1,33
 888 328 888 328 829.5 252.5 c 128,-1,34
 771 177 771 177 714 112.5 c 128,-1,35
 657 48 657 48 610 2 c 1,36,-1
 340 -18 l 1,37,-1
 195 881 l 2,0,1
EndSplineSet
EndChar

StartChar: w
Encoding: 119 119 90
Width: 1792
GlyphClass: 2
Flags: W
LayerCount: 2
Fore
SplineSet
1745 944 m 0,0,1
 1745 838 1745 838 1700 720 c 128,-1,2
 1655 602 1655 602 1580 479.5 c 128,-1,3
 1505 357 1505 357 1408 235.5 c 128,-1,4
 1311 114 1311 114 1208 2 c 1,5,-1
 958 -20 l 1,6,7
 958 43 958 43 956.5 116.5 c 128,-1,8
 955 190 955 190 953.5 268 c 128,-1,9
 952 346 952 346 950.5 424 c 128,-1,10
 949 502 949 502 947 573 c 128,-1,11
 945 644 945 644 943 704 c 128,-1,12
 941 764 941 764 940 807 c 1,13,14
 860 617 860 617 757 412.5 c 128,-1,15
 654 208 654 208 518 6 c 1,16,-1
 250 -12 l 1,17,-1
 229 840 l 2,18,19
 228 887 228 887 217 916 c 128,-1,20
 206 945 206 945 187.5 961.5 c 128,-1,21
 169 978 169 978 143.5 983.5 c 128,-1,22
 118 989 118 989 88 989 c 2,23,-1
 76 989 l 1,24,-1
 109 1098 l 1,25,-1
 504 1098 l 1,26,27
 510 996 510 996 515 894.5 c 128,-1,28
 520 793 520 793 523 704.5 c 128,-1,29
 526 616 526 616 528 545.5 c 128,-1,30
 530 475 530 475 530 434 c 0,31,32
 530 356 530 356 529 308.5 c 128,-1,33
 528 261 528 261 528 256 c 1,34,-1
 543 256 l 1,35,36
 594 337 594 337 645 433 c 128,-1,37
 696 529 696 529 746 635 c 128,-1,38
 796 741 796 741 844 853.5 c 128,-1,39
 892 966 892 966 936 1079 c 1,40,-1
 1186 1087 l 1,41,42
 1192 1036 1192 1036 1197.5 962 c 128,-1,43
 1203 888 1203 888 1208 804 c 128,-1,44
 1213 720 1213 720 1217.5 632 c 128,-1,45
 1222 544 1222 544 1225.5 465.5 c 128,-1,46
 1229 387 1229 387 1231 323.5 c 128,-1,47
 1233 260 1233 260 1233 225 c 1,48,-1
 1247 225 l 1,49,50
 1337 336 1337 336 1396 425.5 c 128,-1,51
 1455 515 1455 515 1489.5 589 c 128,-1,52
 1524 663 1524 663 1538 723 c 128,-1,53
 1552 783 1552 783 1552 834 c 0,54,55
 1552 864 1552 864 1543 888 c 128,-1,56
 1534 912 1534 912 1520 929.5 c 128,-1,57
 1506 947 1506 947 1487.5 957.5 c 128,-1,58
 1469 968 1469 968 1450 973 c 1,59,60
 1453 1012 1453 1012 1466.5 1039.5 c 128,-1,61
 1480 1067 1480 1067 1500.5 1084.5 c 128,-1,62
 1521 1102 1521 1102 1547 1110 c 128,-1,63
 1573 1118 1573 1118 1602 1118 c 0,64,65
 1670 1118 1670 1118 1707.5 1073 c 128,-1,66
 1745 1028 1745 1028 1745 944 c 0,0,1
EndSplineSet
EndChar

StartChar: x
Encoding: 120 120 91
Width: 1237
GlyphClass: 2
Flags: W
LayerCount: 2
Fore
SplineSet
-41 0 m 1,0,-1
 -20 109 l 1,1,-1
 6 109 l 2,2,3
 35 109 35 109 58.5 113.5 c 128,-1,4
 82 118 82 118 105.5 132 c 128,-1,5
 129 146 129 146 157 172 c 128,-1,6
 185 198 185 198 223 240 c 2,7,-1
 481 524 l 1,8,-1
 340 864 l 2,9,10
 324 903 324 903 308.5 927 c 128,-1,11
 293 951 293 951 275 965 c 128,-1,12
 257 979 257 979 235 984 c 128,-1,13
 213 989 213 989 184 989 c 2,14,-1
 160 989 l 1,15,-1
 180 1098 l 1,16,-1
 565 1098 l 1,17,-1
 709 709 l 1,18,-1
 993 1098 l 1,19,-1
 1243 1098 l 1,20,-1
 1223 989 l 1,21,-1
 1186 989 l 2,22,23
 1156 989 1156 989 1132.5 983 c 128,-1,24
 1109 977 1109 977 1085.5 960.5 c 128,-1,25
 1062 944 1062 944 1035.5 915.5 c 128,-1,26
 1009 887 1009 887 973 842 c 1,27,-1
 762 598 l 1,28,-1
 911 254 l 2,29,30
 930 211 930 211 946.5 183 c 128,-1,31
 963 155 963 155 981 138.5 c 128,-1,32
 999 122 999 122 1021 115.5 c 128,-1,33
 1043 109 1043 109 1073 109 c 2,34,-1
 1100 109 l 1,35,-1
 1079 0 l 1,36,-1
 682 0 l 1,37,-1
 528 414 l 1,38,-1
 209 0 l 1,39,-1
 -41 0 l 1,0,-1
EndSplineSet
EndChar

StartChar: y
Encoding: 121 121 92
Width: 1200
GlyphClass: 2
Flags: W
LayerCount: 2
Fore
SplineSet
160 881 m 2,0,1
 143 942 143 942 110.5 965.5 c 128,-1,2
 78 989 78 989 18 989 c 2,3,-1
 -2 989 l 1,4,-1
 23 1098 l 1,5,-1
 424 1098 l 1,6,-1
 559 567 l 2,7,8
 569 527 569 527 580 473.5 c 128,-1,9
 591 420 591 420 601 366.5 c 128,-1,10
 611 313 611 313 618 266.5 c 128,-1,11
 625 220 625 220 627 195 c 1,12,-1
 633 195 l 1,13,14
 694 277 694 277 748 360 c 128,-1,15
 802 443 802 443 842.5 521.5 c 128,-1,16
 883 600 883 600 906.5 671 c 128,-1,17
 930 742 930 742 930 801 c 0,18,19
 930 870 930 870 896.5 906 c 128,-1,20
 863 942 863 942 803 942 c 1,21,22
 803 982 803 982 815.5 1014.5 c 128,-1,23
 828 1047 828 1047 850 1070 c 128,-1,24
 872 1093 872 1093 902 1105.5 c 128,-1,25
 932 1118 932 1118 967 1118 c 0,26,27
 1050 1118 1050 1118 1092.5 1072 c 128,-1,28
 1135 1026 1135 1026 1135 944 c 0,29,30
 1135 864 1135 864 1108 775 c 128,-1,31
 1081 686 1081 686 1031 586 c 128,-1,32
 981 486 981 486 909.5 374 c 128,-1,33
 838 262 838 262 748 137 c 0,34,35
 674 33 674 33 609 -54 c 128,-1,36
 544 -141 544 -141 481.5 -211 c 128,-1,37
 419 -281 419 -281 354.5 -333.5 c 128,-1,38
 290 -386 290 -386 217.5 -421.5 c 128,-1,39
 145 -457 145 -457 59.5 -474.5 c 128,-1,40
 -26 -492 -26 -492 -131 -492 c 0,41,42
 -190 -492 -190 -492 -245.5 -482 c 128,-1,43
 -301 -472 -301 -472 -344 -455 c 1,44,-1
 -313 -340 l 1,45,46
 -289 -348 -289 -348 -245.5 -357.5 c 128,-1,47
 -202 -367 -202 -367 -139 -367 c 0,48,49
 -45 -367 -45 -367 33 -342 c 128,-1,50
 111 -317 111 -317 177.5 -274.5 c 128,-1,51
 244 -232 244 -232 302.5 -175 c 128,-1,52
 361 -118 361 -118 416 -53 c 1,53,-1
 160 881 l 2,0,1
EndSplineSet
EndChar

StartChar: z
Encoding: 122 122 93
Width: 1143
GlyphClass: 2
Flags: W
LayerCount: 2
Fore
SplineSet
715 139 m 2,0,1
 750 139 750 139 777 155.5 c 128,-1,2
 804 172 804 172 824.5 198.5 c 128,-1,3
 845 225 845 225 861 258 c 128,-1,4
 877 291 877 291 891 324 c 2,5,-1
 911 371 l 1,6,-1
 1030 371 l 1,7,-1
 942 0 l 1,8,-1
 0 0 l 1,9,-1
 23 104 l 1,10,-1
 707 958 l 1,11,-1
 446 958 l 2,12,13
 405 958 405 958 377 944.5 c 128,-1,14
 349 931 349 931 327.5 907 c 128,-1,15
 306 883 306 883 288.5 849 c 128,-1,16
 271 815 271 815 252 774 c 1,17,-1
 248 766 l 1,18,-1
 123 766 l 1,19,-1
 213 1098 l 1,20,-1
 1092 1098 l 1,21,-1
 1069 991 l 1,22,-1
 383 139 l 1,23,-1
 715 139 l 2,0,1
EndSplineSet
EndChar

StartChar: braceleft
Encoding: 123 123 94
Width: 905
GlyphClass: 2
Flags: W
LayerCount: 2
Fore
SplineSet
487 -256 m 2,0,1
 341 -256 341 -256 268 -197 c 128,-1,2
 195 -138 195 -138 195 -33 c 0,3,4
 195 -24 195 -24 195.5 -13 c 128,-1,5
 196 -2 196 -2 198 14 c 128,-1,6
 200 30 200 30 204 53.5 c 128,-1,7
 208 77 208 77 215 111 c 2,8,-1
 276 397 l 2,9,10
 283 426 283 426 283 453 c 0,11,12
 283 493 283 493 267.5 519 c 128,-1,13
 252 545 252 545 224.5 560.5 c 128,-1,14
 197 576 197 576 160 582 c 128,-1,15
 123 588 123 588 80 590 c 1,16,-1
 106 715 l 1,17,18
 157 716 157 716 202.5 724.5 c 128,-1,19
 248 733 248 733 284.5 754 c 128,-1,20
 321 775 321 775 347 811.5 c 128,-1,21
 373 848 373 848 385 905 c 2,22,-1
 459 1257 l 2,23,24
 475 1334 475 1334 505 1390.5 c 128,-1,25
 535 1447 535 1447 583.5 1483.5 c 128,-1,26
 632 1520 632 1520 703 1538 c 128,-1,27
 774 1556 774 1556 872 1556 c 2,28,-1
 1067 1556 l 1,29,-1
 1044 1448 l 1,30,-1
 965 1448 l 2,31,32
 921 1448 921 1448 890.5 1435 c 128,-1,33
 860 1422 860 1422 838.5 1397 c 128,-1,34
 817 1372 817 1372 803 1334.5 c 128,-1,35
 789 1297 789 1297 778 1249 c 2,36,-1
 702 901 l 2,37,38
 682 808 682 808 617.5 748.5 c 128,-1,39
 553 689 553 689 428 662 c 1,40,-1
 424 645 l 1,41,42
 517 620 517 620 560.5 574.5 c 128,-1,43
 604 529 604 529 604 461 c 0,44,45
 604 434 604 434 598 403 c 2,46,-1
 522 53 l 2,47,48
 516 27 516 27 514 4 c 128,-1,49
 512 -19 512 -19 512 -39 c 0,50,51
 512 -92 512 -92 538 -119.5 c 128,-1,52
 564 -147 564 -147 627 -147 c 2,53,-1
 707 -147 l 1,54,-1
 682 -256 l 1,55,-1
 487 -256 l 2,0,1
EndSplineSet
EndChar

StartChar: bar
Encoding: 124 124 95
Width: 1145
GlyphClass: 2
Flags: W
LayerCount: 2
Fore
SplineSet
678 -492 m 1,0,-1
 530 -492 l 1,1,-1
 530 1556 l 1,2,-1
 678 1556 l 1,3,-1
 678 -492 l 1,0,-1
EndSplineSet
EndChar

StartChar: braceright
Encoding: 125 125 96
Width: 905
GlyphClass: 2
Flags: W
LayerCount: 2
Fore
SplineSet
469 1559 m 2,0,1
 616 1559 616 1559 689 1500 c 128,-1,2
 762 1441 762 1441 762 1335 c 0,3,4
 762 1326 762 1326 761.5 1315 c 128,-1,5
 761 1304 761 1304 758.5 1288 c 128,-1,6
 756 1272 756 1272 752 1249 c 128,-1,7
 748 1226 748 1226 741 1192 c 2,8,-1
 680 905 l 2,9,10
 674 875 674 875 674 850 c 0,11,12
 674 809 674 809 689.5 783 c 128,-1,13
 705 757 705 757 732.5 742 c 128,-1,14
 760 727 760 727 797 720.5 c 128,-1,15
 834 714 834 714 877 713 c 1,16,-1
 850 588 l 1,17,18
 799 586 799 586 754 578 c 128,-1,19
 709 570 709 570 672.5 549 c 128,-1,20
 636 528 636 528 609.5 491.5 c 128,-1,21
 583 455 583 455 571 397 c 2,22,-1
 498 45 l 2,23,24
 482 -32 482 -32 452 -88.5 c 128,-1,25
 422 -145 422 -145 373 -181.5 c 128,-1,26
 324 -218 324 -218 253 -236 c 128,-1,27
 182 -254 182 -254 84 -254 c 2,28,-1
 -111 -254 l 1,29,-1
 -88 -145 l 1,30,-1
 -8 -145 l 2,31,32
 36 -145 36 -145 66.5 -132 c 128,-1,33
 97 -119 97 -119 118.5 -94 c 128,-1,34
 140 -69 140 -69 153.5 -32 c 128,-1,35
 167 5 167 5 178 53 c 2,36,-1
 254 401 l 2,37,38
 274 494 274 494 338.5 553.5 c 128,-1,39
 403 613 403 613 528 641 c 1,40,-1
 532 657 l 1,41,42
 440 682 440 682 396 728 c 128,-1,43
 352 774 352 774 352 842 c 0,44,45
 352 869 352 869 358 899 c 2,46,-1
 434 1249 l 2,47,48
 440 1275 440 1275 442 1298 c 128,-1,49
 444 1321 444 1321 444 1341 c 0,50,51
 444 1394 444 1394 418.5 1422 c 128,-1,52
 393 1450 393 1450 330 1450 c 2,53,-1
 250 1450 l 1,54,-1
 274 1559 l 1,55,-1
 469 1559 l 2,0,1
EndSplineSet
EndChar

StartChar: asciitilde
Encoding: 126 126 97
Width: 1149
GlyphClass: 2
Flags: W
LayerCount: 2
Fore
SplineSet
528 664 m 0,0,1
 491 680 491 680 463.5 690.5 c 128,-1,2
 436 701 436 701 413.5 707.5 c 128,-1,3
 391 714 391 714 370.5 716.5 c 128,-1,4
 350 719 350 719 328 719 c 0,5,6
 299 719 299 719 269.5 709.5 c 128,-1,7
 240 700 240 700 210.5 684 c 128,-1,8
 181 668 181 668 153 645.5 c 128,-1,9
 125 623 125 623 100 598 c 1,10,-1
 100 756 l 1,11,12
 200 864 200 864 348 864 c 0,13,14
 377 864 377 864 402 861.5 c 128,-1,15
 427 859 427 859 454.5 852.5 c 128,-1,16
 482 846 482 846 515.5 833.5 c 128,-1,17
 549 821 549 821 596 801 c 0,18,19
 633 785 633 785 660.5 774 c 128,-1,20
 688 763 688 763 711.5 756.5 c 128,-1,21
 735 750 735 750 755 747.5 c 128,-1,22
 775 745 775 745 797 745 c 0,23,24
 825 745 825 745 855 754.5 c 128,-1,25
 885 764 885 764 914 780.5 c 128,-1,26
 943 797 943 797 971 819 c 128,-1,27
 999 841 999 841 1024 866 c 1,28,-1
 1024 709 l 1,29,30
 974 655 974 655 913 627.5 c 128,-1,31
 852 600 852 600 776 600 c 0,32,33
 747 600 747 600 722 602.5 c 128,-1,34
 697 605 697 605 669.5 612 c 128,-1,35
 642 619 642 619 608.5 631.5 c 128,-1,36
 575 644 575 644 528 664 c 0,0,1
EndSplineSet
EndChar

StartChar: exclamdown
Encoding: 161 161 99
Width: 809
GlyphClass: 2
Flags: W
LayerCount: 2
Fore
SplineSet
381 -367 m 1,0,-1
 25 -367 l 1,1,-1
 379 629 l 1,2,-1
 498 629 l 1,3,-1
 381 -367 l 1,0,-1
309 928 m 0,4,5
 309 979 309 979 324.5 1014.5 c 128,-1,6
 340 1050 340 1050 365.5 1071.5 c 128,-1,7
 391 1093 391 1093 423 1102.5 c 128,-1,8
 455 1112 455 1112 487 1112 c 0,9,10
 562 1112 562 1112 607.5 1076 c 128,-1,11
 653 1040 653 1040 653 965 c 0,12,13
 653 923 653 923 640.5 889 c 128,-1,14
 628 855 628 855 605 831 c 128,-1,15
 582 807 582 807 549 793.5 c 128,-1,16
 516 780 516 780 475 780 c 0,17,18
 440 780 440 780 409.5 789 c 128,-1,19
 379 798 379 798 356.5 816 c 128,-1,20
 334 834 334 834 321.5 862 c 128,-1,21
 309 890 309 890 309 928 c 0,4,5
EndSplineSet
EndChar

StartChar: cent
Encoding: 162 162 100
Width: 1145
GlyphClass: 2
Flags: W
LayerCount: 2
Fore
SplineSet
692 324 m 2,0,1
 751 324 751 324 798 338.5 c 128,-1,2
 845 353 845 353 882.5 377 c 128,-1,3
 920 401 920 401 949 431 c 128,-1,4
 978 461 978 461 1001 492 c 1,5,6
 1014 479 1014 479 1024 455.5 c 128,-1,7
 1034 432 1034 432 1034 401 c 0,8,9
 1034 363 1034 363 1011 323 c 128,-1,10
 988 283 988 283 940 249.5 c 128,-1,11
 892 216 892 216 818 193.5 c 128,-1,12
 744 171 744 171 643 168 c 1,13,-1
 608 0 l 1,14,-1
 481 0 l 1,15,-1
 518 174 l 1,16,17
 437 186 437 186 367 217.5 c 128,-1,18
 297 249 297 249 246 301 c 128,-1,19
 195 353 195 353 166 425.5 c 128,-1,20
 137 498 137 498 137 592 c 0,21,22
 137 663 137 663 154.5 740.5 c 128,-1,23
 172 818 172 818 207 894 c 128,-1,24
 242 970 242 970 294.5 1039.5 c 128,-1,25
 347 1109 347 1109 416 1165 c 128,-1,26
 485 1221 485 1221 570.5 1258.5 c 128,-1,27
 656 1296 656 1296 758 1307 c 1,28,-1
 791 1462 l 1,29,-1
 918 1462 l 1,30,-1
 885 1311 l 1,31,32
 962 1306 962 1306 1017.5 1287 c 128,-1,33
 1073 1268 1073 1268 1108.5 1239 c 128,-1,34
 1144 1210 1144 1210 1161 1173 c 128,-1,35
 1178 1136 1178 1136 1178 1096 c 0,36,37
 1178 1064 1178 1064 1164 1033.5 c 128,-1,38
 1150 1003 1150 1003 1120 978.5 c 128,-1,39
 1090 954 1090 954 1042.5 939 c 128,-1,40
 995 924 995 924 928 924 c 1,41,42
 928 998 928 998 909 1059 c 128,-1,43
 890 1120 890 1120 852 1155 c 1,44,-1
 676 324 l 1,45,-1
 692 324 l 2,0,1
451 588 m 0,46,47
 451 504 451 504 477.5 445.5 c 128,-1,48
 504 387 504 387 557 356 c 1,49,-1
 731 1186 l 1,50,51
 687 1176 687 1176 649.5 1141.5 c 128,-1,52
 612 1107 612 1107 581 1057 c 128,-1,53
 550 1007 550 1007 526 946 c 128,-1,54
 502 885 502 885 485 822 c 128,-1,55
 468 759 468 759 459.5 698 c 128,-1,56
 451 637 451 637 451 588 c 0,46,47
EndSplineSet
EndChar

StartChar: sterling
Encoding: 163 163 101
Width: 1145
GlyphClass: 2
Flags: W
LayerCount: 2
Fore
SplineSet
600 711 m 1,0,1
 601 703 601 703 602 691 c 128,-1,2
 603 679 603 679 604 665 c 128,-1,3
 605 651 605 651 605.5 636 c 128,-1,4
 606 621 606 621 606 608 c 0,5,6
 606 545 606 545 586 493.5 c 128,-1,7
 566 442 566 442 528 398.5 c 128,-1,8
 490 355 490 355 435 317.5 c 128,-1,9
 380 280 380 280 309 246 c 1,10,-1
 311 238 l 1,11,12
 365 258 365 258 409 266 c 128,-1,13
 453 274 453 274 492 274 c 0,14,15
 538 274 538 274 587 262.5 c 128,-1,16
 636 251 636 251 682.5 237.5 c 128,-1,17
 729 224 729 224 770.5 212.5 c 128,-1,18
 812 201 812 201 844 201 c 0,19,20
 879 201 879 201 906 205.5 c 128,-1,21
 933 210 933 210 956.5 219.5 c 128,-1,22
 980 229 980 229 1003 244 c 128,-1,23
 1026 259 1026 259 1053 281 c 1,24,-1
 1118 178 l 1,25,26
 1094 153 1094 153 1054 119 c 128,-1,27
 1014 85 1014 85 965.5 54 c 128,-1,28
 917 23 917 23 863 1.5 c 128,-1,29
 809 -20 809 -20 758 -20 c 256,30,31
 707 -20 707 -20 658.5 -5.5 c 128,-1,32
 610 9 610 9 559.5 27 c 128,-1,33
 509 45 509 45 454 59.5 c 128,-1,34
 399 74 399 74 336 74 c 0,35,36
 295 74 295 74 260.5 70.5 c 128,-1,37
 226 67 226 67 194.5 59.5 c 128,-1,38
 163 52 163 52 131.5 40 c 128,-1,39
 100 28 100 28 66 12 c 1,40,-1
 33 -2 l 1,41,-1
 -12 106 l 1,42,-1
 57 150 l 1,43,44
 108 180 108 180 159.5 221.5 c 128,-1,45
 211 263 211 263 252.5 316 c 128,-1,46
 294 369 294 369 320 434.5 c 128,-1,47
 346 500 346 500 346 578 c 0,48,49
 346 612 346 612 342.5 644.5 c 128,-1,50
 339 677 339 677 334 709 c 1,51,-1
 98 709 l 1,52,-1
 127 834 l 1,53,-1
 319 834 l 1,54,55
 313 872 313 872 306 925 c 128,-1,56
 299 978 299 978 299 1028 c 0,57,58
 299 1136 299 1136 337 1221 c 128,-1,59
 375 1306 375 1306 444.5 1364 c 128,-1,60
 514 1422 514 1422 612.5 1452.5 c 128,-1,61
 711 1483 711 1483 831 1483 c 0,62,63
 918 1483 918 1483 985 1465.5 c 128,-1,64
 1052 1448 1052 1448 1097.5 1417.5 c 128,-1,65
 1143 1387 1143 1387 1166.5 1346.5 c 128,-1,66
 1190 1306 1190 1306 1190 1260 c 0,67,68
 1190 1172 1190 1172 1124 1125.5 c 128,-1,69
 1058 1079 1058 1079 934 1079 c 1,70,71
 934 1219 934 1219 894 1288.5 c 128,-1,72
 854 1358 854 1358 784 1358 c 0,73,74
 681 1358 681 1358 626 1272 c 128,-1,75
 571 1186 571 1186 571 1028 c 0,76,77
 571 968 571 968 578 918.5 c 128,-1,78
 585 869 585 869 590 834 c 1,79,-1
 954 834 l 1,80,-1
 926 709 l 1,81,-1
 600 711 l 1,0,1
EndSplineSet
EndChar

StartChar: currency
Encoding: 164 164 102
Width: 1145
GlyphClass: 2
Flags: W
LayerCount: 2
Fore
SplineSet
227 729 m 0,0,1
 227 788 227 788 244 842.5 c 128,-1,2
 261 897 261 897 293 942 c 1,3,-1
 170 1065 l 1,4,-1
 272 1167 l 1,5,-1
 395 1044 l 1,6,7
 440 1073 440 1073 491.5 1089.5 c 128,-1,8
 543 1106 543 1106 602 1106 c 0,9,10
 659 1106 659 1106 711.5 1089.5 c 128,-1,11
 764 1073 764 1073 809 1042 c 1,12,-1
 936 1169 l 1,13,-1
 1038 1065 l 1,14,-1
 913 938 l 1,15,16
 944 893 944 893 961.5 840.5 c 128,-1,17
 979 788 979 788 979 729 c 256,18,19
 979 670 979 670 963 618.5 c 128,-1,20
 947 567 947 567 918 522 c 1,21,-1
 1038 401 l 1,22,-1
 936 299 l 1,23,-1
 815 420 l 1,24,25
 769 389 769 389 715 371.5 c 128,-1,26
 661 354 661 354 602 354 c 256,27,28
 543 354 543 354 489.5 370.5 c 128,-1,29
 436 387 436 387 391 418 c 1,30,-1
 272 299 l 1,31,-1
 168 403 l 1,32,-1
 287 522 l 1,33,34
 227 614 227 614 227 729 c 0,0,1
367 729 m 0,35,36
 367 680 367 680 385.5 637 c 128,-1,37
 404 594 404 594 435.5 561.5 c 128,-1,38
 467 529 467 529 510 510.5 c 128,-1,39
 553 492 553 492 602 492 c 0,40,41
 653 492 653 492 696 510.5 c 128,-1,42
 739 529 739 529 770.5 561.5 c 128,-1,43
 802 594 802 594 820 637 c 128,-1,44
 838 680 838 680 838 729 c 0,45,46
 838 780 838 780 820 823.5 c 128,-1,47
 802 867 802 867 770.5 899.5 c 128,-1,48
 739 932 739 932 696 950.5 c 128,-1,49
 653 969 653 969 602 969 c 0,50,51
 553 969 553 969 510 950.5 c 128,-1,52
 467 932 467 932 435.5 899.5 c 128,-1,53
 404 867 404 867 385.5 823.5 c 128,-1,54
 367 780 367 780 367 729 c 0,35,36
EndSplineSet
EndChar

StartChar: yen
Encoding: 165 165 103
Width: 1104
GlyphClass: 2
Flags: W
LayerCount: 2
Fore
SplineSet
762 698 m 1,0,-1
 1024 698 l 1,1,-1
 999 578 l 1,2,-1
 713 578 l 1,3,-1
 686 459 l 1,4,-1
 973 459 l 1,5,-1
 948 338 l 1,6,-1
 662 338 l 1,7,-1
 639 240 l 2,8,9
 634 218 634 218 631.5 202 c 128,-1,10
 629 186 629 186 629 178 c 0,11,12
 629 156 629 156 640 142.5 c 128,-1,13
 651 129 651 129 670.5 121.5 c 128,-1,14
 690 114 690 114 717 111.5 c 128,-1,15
 744 109 744 109 776 109 c 2,16,-1
 825 109 l 1,17,-1
 803 0 l 1,18,-1
 70 0 l 1,19,-1
 92 109 l 1,20,-1
 147 109 l 2,21,22
 179 109 179 109 209 113.5 c 128,-1,23
 239 118 239 118 264 131.5 c 128,-1,24
 289 145 289 145 307 169 c 128,-1,25
 325 193 325 193 334 233 c 2,26,-1
 356 338 l 1,27,-1
 70 338 l 1,28,-1
 94 459 l 1,29,-1
 381 459 l 1,30,-1
 408 578 l 1,31,-1
 121 578 l 1,32,-1
 145 698 l 1,33,-1
 416 698 l 1,34,-1
 291 1245 l 2,35,36
 284 1276 284 1276 277 1296.5 c 128,-1,37
 270 1317 270 1317 258.5 1330 c 128,-1,38
 247 1343 247 1343 228.5 1348.5 c 128,-1,39
 210 1354 210 1354 180 1354 c 2,40,-1
 154 1354 l 1,41,-1
 176 1462 l 1,42,-1
 735 1462 l 1,43,-1
 713 1354 l 1,44,-1
 655 1354 l 2,45,46
 609 1354 609 1354 589 1338 c 128,-1,47
 569 1322 569 1322 569 1294 c 0,48,49
 569 1276 569 1276 577 1238.5 c 128,-1,50
 585 1201 585 1201 594 1153 c 2,51,-1
 631 958 l 2,52,53
 643 893 643 893 652.5 833 c 128,-1,54
 662 773 662 773 662 731 c 1,55,56
 673 759 673 759 694 798 c 128,-1,57
 715 837 715 837 741 881 c 2,58,-1
 899 1147 l 2,59,60
 921 1184 921 1184 941 1224 c 128,-1,61
 961 1264 961 1264 961 1298 c 0,62,63
 961 1326 961 1326 938 1340 c 128,-1,64
 915 1354 915 1354 881 1354 c 2,65,-1
 840 1354 l 1,66,-1
 864 1462 l 1,67,-1
 1298 1462 l 1,68,-1
 1276 1354 l 1,69,-1
 1270 1354 l 2,70,71
 1223 1354 1223 1354 1178.5 1315 c 128,-1,72
 1134 1276 1134 1276 1081 1194 c 2,73,-1
 762 698 l 1,0,-1
EndSplineSet
EndChar

StartChar: brokenbar
Encoding: 166 166 104
Width: 1145
GlyphClass: 2
Flags: W
LayerCount: 2
Fore
SplineSet
676 737 m 1,0,-1
 528 737 l 1,1,-1
 528 1556 l 1,2,-1
 676 1556 l 1,3,-1
 676 737 l 1,0,-1
676 -492 m 1,4,-1
 528 -492 l 1,5,-1
 528 328 l 1,6,-1
 676 328 l 1,7,-1
 676 -492 l 1,4,-1
EndSplineSet
EndChar

StartChar: section
Encoding: 167 167 105
Width: 1114
GlyphClass: 2
Flags: W
LayerCount: 2
Fore
SplineSet
444 -236 m 0,0,1
 351 -236 351 -236 277 -218 c 128,-1,2
 203 -200 203 -200 151.5 -167.5 c 128,-1,3
 100 -135 100 -135 72.5 -89.5 c 128,-1,4
 45 -44 45 -44 45 10 c 0,5,6
 45 62 45 62 64 95.5 c 128,-1,7
 83 129 83 129 112 147.5 c 128,-1,8
 141 166 141 166 175 173 c 128,-1,9
 209 180 209 180 238 180 c 1,10,11
 238 115 238 115 253.5 60 c 128,-1,12
 269 5 269 5 298.5 -35 c 128,-1,13
 328 -75 328 -75 370.5 -98 c 128,-1,14
 413 -121 413 -121 467 -121 c 0,15,16
 520 -121 520 -121 562.5 -104 c 128,-1,17
 605 -87 605 -87 634.5 -58 c 128,-1,18
 664 -29 664 -29 680 11 c 128,-1,19
 696 51 696 51 696 96 c 0,20,21
 696 137 696 137 685 169.5 c 128,-1,22
 674 202 674 202 644 233.5 c 128,-1,23
 614 265 614 265 562 299 c 128,-1,24
 510 333 510 333 428 377 c 0,25,26
 350 418 350 418 299 459 c 128,-1,27
 248 500 248 500 218 542 c 128,-1,28
 188 584 188 584 176 629 c 128,-1,29
 164 674 164 674 164 723 c 0,30,31
 164 773 164 773 180.5 814.5 c 128,-1,32
 197 856 197 856 224 890.5 c 128,-1,33
 251 925 251 925 285.5 952.5 c 128,-1,34
 320 980 320 980 356 1001 c 1,35,36
 338 1030 338 1030 322.5 1077 c 128,-1,37
 307 1124 307 1124 307 1186 c 0,38,39
 307 1274 307 1274 342.5 1343 c 128,-1,40
 378 1412 378 1412 438.5 1459 c 128,-1,41
 499 1506 499 1506 579 1531 c 128,-1,42
 659 1556 659 1556 748 1556 c 0,43,44
 841 1556 841 1556 908.5 1538.5 c 128,-1,45
 976 1521 976 1521 1020.5 1491 c 128,-1,46
 1065 1461 1065 1461 1086.5 1420.5 c 128,-1,47
 1108 1380 1108 1380 1108 1335 c 0,48,49
 1108 1291 1108 1291 1093.5 1261.5 c 128,-1,50
 1079 1232 1079 1232 1052 1214.5 c 128,-1,51
 1025 1197 1025 1197 987.5 1189.5 c 128,-1,52
 950 1182 950 1182 905 1182 c 1,53,54
 905 1237 905 1237 893.5 1285 c 128,-1,55
 882 1333 882 1333 859.5 1368 c 128,-1,56
 837 1403 837 1403 804 1423.5 c 128,-1,57
 771 1444 771 1444 729 1444 c 0,58,59
 692 1444 692 1444 655.5 1432 c 128,-1,60
 619 1420 619 1420 589.5 1395 c 128,-1,61
 560 1370 560 1370 542 1331.5 c 128,-1,62
 524 1293 524 1293 524 1241 c 0,63,64
 524 1196 524 1196 536.5 1162.5 c 128,-1,65
 549 1129 549 1129 578 1099.5 c 128,-1,66
 607 1070 607 1070 654.5 1041 c 128,-1,67
 702 1012 702 1012 772 975 c 0,68,69
 847 935 847 935 899 897.5 c 128,-1,70
 951 860 951 860 983.5 821.5 c 128,-1,71
 1016 783 1016 783 1030 742.5 c 128,-1,72
 1044 702 1044 702 1044 655 c 0,73,74
 1044 607 1044 607 1028.5 564 c 128,-1,75
 1013 521 1013 521 986 482.5 c 128,-1,76
 959 444 959 444 923.5 411.5 c 128,-1,77
 888 379 888 379 848 354 c 1,78,79
 866 325 866 325 880.5 281.5 c 128,-1,80
 895 238 895 238 895 184 c 0,81,82
 895 97 895 97 863 20.5 c 128,-1,83
 831 -56 831 -56 772 -113 c 128,-1,84
 713 -170 713 -170 629.5 -203 c 128,-1,85
 546 -236 546 -236 444 -236 c 0,0,1
639 784 m 0,86,87
 573 815 573 815 518.5 846.5 c 128,-1,88
 464 878 464 878 418 915 c 1,89,90
 386 891 386 891 365 861.5 c 128,-1,91
 344 832 344 832 344 788 c 0,92,93
 344 755 344 755 355 727 c 128,-1,94
 366 699 366 699 392 672.5 c 128,-1,95
 418 646 418 646 462.5 618.5 c 128,-1,96
 507 591 507 591 575 559 c 1,97,98
 632 531 632 531 686.5 499 c 128,-1,99
 741 467 741 467 776 438 c 1,100,101
 808 464 808 464 827 498.5 c 128,-1,102
 846 533 846 533 846 575 c 0,103,104
 846 598 846 598 837 623 c 128,-1,105
 828 648 828 648 804.5 674 c 128,-1,106
 781 700 781 700 741 727.5 c 128,-1,107
 701 755 701 755 639 784 c 0,86,87
EndSplineSet
EndChar

StartChar: dieresis
Encoding: 168 168 106
Width: 1182
GlyphClass: 2
Flags: W
LayerCount: 2
Fore
SplineSet
616 1417 m 0,0,1
 616 1377 616 1377 605 1350 c 128,-1,2
 594 1323 594 1323 577 1306 c 128,-1,3
 560 1289 560 1289 538 1281.5 c 128,-1,4
 516 1274 516 1274 494 1274 c 0,5,6
 443 1274 443 1274 412 1301.5 c 128,-1,7
 381 1329 381 1329 381 1386 c 0,8,9
 381 1452 381 1452 414 1491 c 128,-1,10
 447 1530 447 1530 504 1530 c 0,11,12
 553 1530 553 1530 584.5 1502 c 128,-1,13
 616 1474 616 1474 616 1417 c 0,0,1
1044 1417 m 0,14,15
 1044 1377 1044 1377 1033 1350 c 128,-1,16
 1022 1323 1022 1323 1005 1306 c 128,-1,17
 988 1289 988 1289 966 1281.5 c 128,-1,18
 944 1274 944 1274 922 1274 c 0,19,20
 871 1274 871 1274 840 1301.5 c 128,-1,21
 809 1329 809 1329 809 1386 c 0,22,23
 809 1452 809 1452 842 1491 c 128,-1,24
 875 1530 875 1530 932 1530 c 0,25,26
 981 1530 981 1530 1012.5 1502 c 128,-1,27
 1044 1474 1044 1474 1044 1417 c 0,14,15
EndSplineSet
EndChar

StartChar: copyright
Encoding: 169 169 107
Width: 1731
GlyphClass: 2
Flags: W
LayerCount: 2
Fore
SplineSet
129 731 m 256,0,1
 129 835 129 835 156 931.5 c 128,-1,2
 183 1028 183 1028 231.5 1111.5 c 128,-1,3
 280 1195 280 1195 349 1264 c 128,-1,4
 418 1333 418 1333 501.5 1382 c 128,-1,5
 585 1431 585 1431 681 1458 c 128,-1,6
 777 1485 777 1485 881 1485 c 256,7,8
 985 1485 985 1485 1081 1458 c 128,-1,9
 1177 1431 1177 1431 1260.5 1382 c 128,-1,10
 1344 1333 1344 1333 1413 1264 c 128,-1,11
 1482 1195 1482 1195 1531 1111.5 c 128,-1,12
 1580 1028 1580 1028 1607 931.5 c 128,-1,13
 1634 835 1634 835 1634 731 c 256,14,15
 1634 627 1634 627 1607 531 c 128,-1,16
 1580 435 1580 435 1531 351.5 c 128,-1,17
 1482 268 1482 268 1413 199.5 c 128,-1,18
 1344 131 1344 131 1260.5 82 c 128,-1,19
 1177 33 1177 33 1081 6.5 c 128,-1,20
 985 -20 985 -20 881 -20 c 256,21,22
 777 -20 777 -20 681 6.5 c 128,-1,23
 585 33 585 33 501.5 82 c 128,-1,24
 418 131 418 131 349 199.5 c 128,-1,25
 280 268 280 268 231.5 351.5 c 128,-1,26
 183 435 183 435 156 531 c 128,-1,27
 129 627 129 627 129 731 c 256,0,1
242 731 m 256,28,29
 242 643 242 643 265 561.5 c 128,-1,30
 288 480 288 480 329.5 409 c 128,-1,31
 371 338 371 338 429 279.5 c 128,-1,32
 487 221 487 221 558 179.5 c 128,-1,33
 629 138 629 138 711 115 c 128,-1,34
 793 92 793 92 881 92 c 0,35,36
 970 92 970 92 1051.5 115 c 128,-1,37
 1133 138 1133 138 1204.5 179.5 c 128,-1,38
 1276 221 1276 221 1334.5 279.5 c 128,-1,39
 1393 338 1393 338 1434.5 409 c 128,-1,40
 1476 480 1476 480 1499 561.5 c 128,-1,41
 1522 643 1522 643 1522 731 c 0,42,43
 1522 864 1522 864 1471.5 980.5 c 128,-1,44
 1421 1097 1421 1097 1334 1184 c 128,-1,45
 1247 1271 1247 1271 1130.5 1321.5 c 128,-1,46
 1014 1372 1014 1372 881 1372 c 0,47,48
 793 1372 793 1372 711 1349 c 128,-1,49
 629 1326 629 1326 558 1284.5 c 128,-1,50
 487 1243 487 1243 429 1184.5 c 128,-1,51
 371 1126 371 1126 329.5 1054.5 c 128,-1,52
 288 983 288 983 265 901 c 128,-1,53
 242 819 242 819 242 731 c 256,28,29
918 365 m 0,54,55
 964 365 964 365 1004 377 c 128,-1,56
 1044 389 1044 389 1076.5 409 c 128,-1,57
 1109 429 1109 429 1132 453.5 c 128,-1,58
 1155 478 1155 478 1169 504 c 1,59,60
 1182 495 1182 495 1190 478.5 c 128,-1,61
 1198 462 1198 462 1198 440 c 0,62,63
 1198 412 1198 412 1179 383 c 128,-1,64
 1160 354 1160 354 1121.5 330 c 128,-1,65
 1083 306 1083 306 1025.5 291 c 128,-1,66
 968 276 968 276 891 276 c 0,67,68
 789 276 789 276 712 309 c 128,-1,69
 635 342 635 342 583.5 402 c 128,-1,70
 532 462 532 462 506.5 546 c 128,-1,71
 481 630 481 630 481 733 c 0,72,73
 481 833 481 833 509 916 c 128,-1,74
 537 999 537 999 592.5 1059 c 128,-1,75
 648 1119 648 1119 730 1152.5 c 128,-1,76
 812 1186 812 1186 920 1186 c 0,77,78
 990 1186 990 1186 1043 1174.5 c 128,-1,79
 1096 1163 1096 1163 1130.5 1143.5 c 128,-1,80
 1165 1124 1165 1124 1182.5 1097.5 c 128,-1,81
 1200 1071 1200 1071 1200 1040 c 0,82,83
 1200 1018 1200 1018 1189 1000 c 128,-1,84
 1178 982 1178 982 1159.5 969.5 c 128,-1,85
 1141 957 1141 957 1115.5 950.5 c 128,-1,86
 1090 944 1090 944 1061 944 c 1,87,88
 1061 972 1061 972 1053.5 1000 c 128,-1,89
 1046 1028 1046 1028 1029 1050.5 c 128,-1,90
 1012 1073 1012 1073 984 1086.5 c 128,-1,91
 956 1100 956 1100 915 1100 c 0,92,93
 843 1100 843 1100 792.5 1076 c 128,-1,94
 742 1052 742 1052 710 1005 c 128,-1,95
 678 958 678 958 663.5 889.5 c 128,-1,96
 649 821 649 821 649 733 c 0,97,98
 649 556 649 556 718 460.5 c 128,-1,99
 787 365 787 365 918 365 c 0,54,55
EndSplineSet
EndChar

StartChar: ordfeminine
Encoding: 170 170 108
Width: 883
GlyphClass: 2
Flags: W
LayerCount: 2
Fore
SplineSet
772 782 m 0,0,1
 704 782 704 782 666.5 809.5 c 128,-1,2
 629 837 629 837 629 885 c 0,3,4
 629 910 629 910 632.5 942 c 128,-1,5
 636 974 636 974 639 997 c 1,6,-1
 631 997 l 1,7,8
 605 949 605 949 575.5 910 c 128,-1,9
 546 871 546 871 512 843 c 128,-1,10
 478 815 478 815 438.5 799.5 c 128,-1,11
 399 784 399 784 354 784 c 0,12,13
 303 784 303 784 265.5 801.5 c 128,-1,14
 228 819 228 819 203.5 849.5 c 128,-1,15
 179 880 179 880 167.5 921 c 128,-1,16
 156 962 156 962 156 1010 c 256,17,18
 156 1058 156 1058 168 1111 c 128,-1,19
 180 1164 180 1164 205 1215.5 c 128,-1,20
 230 1267 230 1267 268.5 1313 c 128,-1,21
 307 1359 307 1359 358.5 1394 c 128,-1,22
 410 1429 410 1429 475.5 1449.5 c 128,-1,23
 541 1470 541 1470 621 1470 c 0,24,25
 676 1470 676 1470 712.5 1458 c 128,-1,26
 749 1446 749 1446 780 1427 c 1,27,-1
 852 1456 l 1,28,-1
 922 1456 l 1,29,-1
 846 1083 l 2,30,31
 838 1041 838 1041 830.5 1007.5 c 128,-1,32
 823 974 823 974 823 948 c 0,33,34
 823 895 823 895 866 895 c 0,35,36
 886 895 886 895 908.5 904.5 c 128,-1,37
 931 914 931 914 954 928 c 1,38,-1
 981 879 l 1,39,40
 968 865 968 865 946.5 848 c 128,-1,41
 925 831 925 831 898 816.5 c 128,-1,42
 871 802 871 802 838.5 792 c 128,-1,43
 806 782 806 782 772 782 c 0,0,1
395 1022 m 0,44,45
 395 988 395 988 400 965.5 c 128,-1,46
 405 943 405 943 414 929 c 128,-1,47
 423 915 423 915 434.5 909 c 128,-1,48
 446 903 446 903 459 903 c 0,49,50
 486 903 486 903 515 927.5 c 128,-1,51
 544 952 544 952 569 989.5 c 128,-1,52
 594 1027 594 1027 614 1070 c 128,-1,53
 634 1113 634 1113 643 1151 c 2,54,-1
 692 1346 l 1,55,56
 680 1364 680 1364 654.5 1374 c 128,-1,57
 629 1384 629 1384 604 1384 c 0,58,59
 570 1384 570 1384 541 1366.5 c 128,-1,60
 512 1349 512 1349 489 1319.5 c 128,-1,61
 466 1290 466 1290 448.5 1252 c 128,-1,62
 431 1214 431 1214 419 1174 c 128,-1,63
 407 1134 407 1134 401 1094.5 c 128,-1,64
 395 1055 395 1055 395 1022 c 0,44,45
EndSplineSet
EndChar

StartChar: guillemotleft
Encoding: 171 171 109
Width: 1135
GlyphClass: 2
Flags: W
LayerCount: 2
Fore
SplineSet
143 621 m 1,0,-1
 532 963 l 1,1,-1
 676 963 l 1,2,-1
 383 553 l 1,3,-1
 502 143 l 1,4,-1
 358 143 l 1,5,-1
 121 514 l 1,6,-1
 143 621 l 1,0,-1
555 621 m 1,7,-1
 944 963 l 1,8,-1
 1087 963 l 1,9,-1
 795 553 l 1,10,-1
 913 143 l 1,11,-1
 770 143 l 1,12,-1
 532 514 l 1,13,-1
 555 621 l 1,7,-1
EndSplineSet
EndChar

StartChar: logicalnot
Encoding: 172 172 110
Width: 1145
GlyphClass: 2
Flags: W
LayerCount: 2
Fore
SplineSet
1044 805 m 1,0,-1
 1044 293 l 1,1,-1
 897 293 l 1,2,-1
 897 659 l 1,3,-1
 166 659 l 1,4,-1
 166 805 l 1,5,-1
 1044 805 l 1,0,-1
EndSplineSet
EndChar

StartChar: registered
Encoding: 174 174 112
Width: 1731
GlyphClass: 2
Flags: W
LayerCount: 2
Fore
SplineSet
494 358 m 1,0,-1
 520 358 l 2,1,2
 540 358 540 358 558 360.5 c 128,-1,3
 576 363 576 363 590 370.5 c 128,-1,4
 604 378 604 378 612.5 392 c 128,-1,5
 621 406 621 406 621 430 c 2,6,-1
 621 1030 l 2,7,8
 621 1054 621 1054 612.5 1068 c 128,-1,9
 604 1082 604 1082 590 1089.5 c 128,-1,10
 576 1097 576 1097 558 1099.5 c 128,-1,11
 540 1102 540 1102 520 1102 c 2,12,-1
 494 1102 l 1,13,-1
 494 1174 l 1,14,-1
 862 1174 l 2,15,16
 1214 1174 1214 1174 1214 930 c 0,17,18
 1214 881 1214 881 1198 844 c 128,-1,19
 1182 807 1182 807 1156 780 c 128,-1,20
 1130 753 1130 753 1096.5 734.5 c 128,-1,21
 1063 716 1063 716 1028 705 c 1,22,-1
 1210 412 l 2,23,24
 1220 395 1220 395 1229.5 384.5 c 128,-1,25
 1239 374 1239 374 1252 368 c 128,-1,26
 1265 362 1265 362 1282 360 c 128,-1,27
 1299 358 1299 358 1325 358 c 1,28,-1
 1325 289 l 1,29,-1
 1108 289 l 1,30,-1
 883 670 l 1,31,-1
 774 670 l 1,32,-1
 774 430 l 1,33,34
 775 406 775 406 783.5 392 c 128,-1,35
 792 378 792 378 805.5 370.5 c 128,-1,36
 819 363 819 363 836.5 360.5 c 128,-1,37
 854 358 854 358 874 358 c 2,38,-1
 903 358 l 1,39,-1
 903 289 l 1,40,-1
 494 289 l 1,41,-1
 494 358 l 1,0,-1
774 748 m 1,42,-1
 860 748 l 2,43,44
 915 748 915 748 952.5 759 c 128,-1,45
 990 770 990 770 1012 792 c 128,-1,46
 1034 814 1034 814 1043.5 848 c 128,-1,47
 1053 882 1053 882 1053 928 c 0,48,49
 1053 973 1053 973 1042 1005 c 128,-1,50
 1031 1037 1031 1037 1007 1056.5 c 128,-1,51
 983 1076 983 1076 945.5 1085 c 128,-1,52
 908 1094 908 1094 854 1094 c 2,53,-1
 774 1094 l 1,54,-1
 774 748 l 1,42,-1
129 731 m 256,55,56
 129 835 129 835 156 931.5 c 128,-1,57
 183 1028 183 1028 231.5 1111.5 c 128,-1,58
 280 1195 280 1195 349 1264 c 128,-1,59
 418 1333 418 1333 501.5 1382 c 128,-1,60
 585 1431 585 1431 681 1458 c 128,-1,61
 777 1485 777 1485 881 1485 c 256,62,63
 985 1485 985 1485 1081 1458 c 128,-1,64
 1177 1431 1177 1431 1260.5 1382 c 128,-1,65
 1344 1333 1344 1333 1413 1264 c 128,-1,66
 1482 1195 1482 1195 1531 1111.5 c 128,-1,67
 1580 1028 1580 1028 1607 931.5 c 128,-1,68
 1634 835 1634 835 1634 731 c 256,69,70
 1634 627 1634 627 1607 531 c 128,-1,71
 1580 435 1580 435 1531 351.5 c 128,-1,72
 1482 268 1482 268 1413 199.5 c 128,-1,73
 1344 131 1344 131 1260.5 82 c 128,-1,74
 1177 33 1177 33 1081 6.5 c 128,-1,75
 985 -20 985 -20 881 -20 c 256,76,77
 777 -20 777 -20 681 6.5 c 128,-1,78
 585 33 585 33 501.5 82 c 128,-1,79
 418 131 418 131 349 199.5 c 128,-1,80
 280 268 280 268 231.5 351.5 c 128,-1,81
 183 435 183 435 156 531 c 128,-1,82
 129 627 129 627 129 731 c 256,55,56
242 731 m 256,83,84
 242 643 242 643 265 561.5 c 128,-1,85
 288 480 288 480 329.5 409 c 128,-1,86
 371 338 371 338 429 279.5 c 128,-1,87
 487 221 487 221 558 179.5 c 128,-1,88
 629 138 629 138 711 115 c 128,-1,89
 793 92 793 92 881 92 c 0,90,91
 970 92 970 92 1051.5 115 c 128,-1,92
 1133 138 1133 138 1204.5 179.5 c 128,-1,93
 1276 221 1276 221 1334.5 279.5 c 128,-1,94
 1393 338 1393 338 1434.5 409 c 128,-1,95
 1476 480 1476 480 1499 561.5 c 128,-1,96
 1522 643 1522 643 1522 731 c 0,97,98
 1522 864 1522 864 1471.5 980.5 c 128,-1,99
 1421 1097 1421 1097 1334 1184 c 128,-1,100
 1247 1271 1247 1271 1130.5 1321.5 c 128,-1,101
 1014 1372 1014 1372 881 1372 c 0,102,103
 793 1372 793 1372 711 1349 c 128,-1,104
 629 1326 629 1326 558 1284.5 c 128,-1,105
 487 1243 487 1243 429 1184.5 c 128,-1,106
 371 1126 371 1126 329.5 1054.5 c 128,-1,107
 288 983 288 983 265 901 c 128,-1,108
 242 819 242 819 242 731 c 256,83,84
EndSplineSet
EndChar

StartChar: overscore
Encoding: 175 175 113
Width: 940
GlyphClass: 2
Flags: W
LayerCount: 2
Fore
SplineSet
950 1556 m 1,0,-1
 -10 1556 l 1,1,-1
 -10 1677 l 1,2,-1
 950 1677 l 1,3,-1
 950 1556 l 1,0,-1
EndSplineSet
EndChar

StartChar: degree
Encoding: 176 176 114
Width: 819
GlyphClass: 2
Flags: W
LayerCount: 2
Fore
SplineSet
225 1151 m 0,0,1
 225 1215 225 1215 249 1272 c 128,-1,2
 273 1329 273 1329 315 1371 c 128,-1,3
 357 1413 357 1413 413.5 1437.5 c 128,-1,4
 470 1462 470 1462 535 1462 c 0,5,6
 599 1462 599 1462 656 1437.5 c 128,-1,7
 713 1413 713 1413 755 1371 c 128,-1,8
 797 1329 797 1329 821.5 1272 c 128,-1,9
 846 1215 846 1215 846 1151 c 0,10,11
 846 1086 846 1086 821.5 1030 c 128,-1,12
 797 974 797 974 755 932 c 128,-1,13
 713 890 713 890 656 866 c 128,-1,14
 599 842 599 842 535 842 c 0,15,16
 470 842 470 842 413.5 866 c 128,-1,17
 357 890 357 890 315 932 c 128,-1,18
 273 974 273 974 249 1030 c 128,-1,19
 225 1086 225 1086 225 1151 c 0,0,1
367 1151 m 0,20,21
 367 1116 367 1116 380 1085.5 c 128,-1,22
 393 1055 393 1055 416 1031.5 c 128,-1,23
 439 1008 439 1008 469.5 994.5 c 128,-1,24
 500 981 500 981 535 981 c 0,25,26
 571 981 571 981 602 994.5 c 128,-1,27
 633 1008 633 1008 656 1031.5 c 128,-1,28
 679 1055 679 1055 692 1085.5 c 128,-1,29
 705 1116 705 1116 705 1151 c 0,30,31
 705 1187 705 1187 692 1218.5 c 128,-1,32
 679 1250 679 1250 656 1273 c 128,-1,33
 633 1296 633 1296 602 1309.5 c 128,-1,34
 571 1323 571 1323 535 1323 c 0,35,36
 500 1323 500 1323 469.5 1309.5 c 128,-1,37
 439 1296 439 1296 416 1273 c 128,-1,38
 393 1250 393 1250 380 1218.5 c 128,-1,39
 367 1187 367 1187 367 1151 c 0,20,21
EndSplineSet
EndChar

StartChar: plusminus
Encoding: 177 177 115
Width: 1145
GlyphClass: 2
Flags: W
LayerCount: 2
Fore
SplineSet
1044 0 m 1,0,-1
 166 0 l 1,1,-1
 166 145 l 1,2,-1
 1044 145 l 1,3,-1
 1044 0 l 1,0,-1
678 659 m 1,4,-1
 678 293 l 1,5,-1
 530 293 l 1,6,-1
 530 659 l 1,7,-1
 166 659 l 1,8,-1
 166 805 l 1,9,-1
 530 805 l 1,10,-1
 530 1171 l 1,11,-1
 678 1171 l 1,12,-1
 678 805 l 1,13,-1
 1044 805 l 1,14,-1
 1044 659 l 1,15,-1
 678 659 l 1,4,-1
EndSplineSet
EndChar

StartChar: twosuperior
Encoding: 178 178 116
Width: 819
GlyphClass: 2
Flags: W
LayerCount: 2
Fore
SplineSet
59 586 m 1,0,-1
 88 733 l 1,1,-1
 391 954 l 2,2,3
 453 999 453 999 495 1040.5 c 128,-1,4
 537 1082 537 1082 562 1122 c 128,-1,5
 587 1162 587 1162 597.5 1202.5 c 128,-1,6
 608 1243 608 1243 608 1286 c 0,7,8
 608 1306 608 1306 603.5 1325 c 128,-1,9
 599 1344 599 1344 589 1358.5 c 128,-1,10
 579 1373 579 1373 562.5 1382 c 128,-1,11
 546 1391 546 1391 522 1391 c 0,12,13
 493 1391 493 1391 470 1374 c 128,-1,14
 447 1357 447 1357 429.5 1329 c 128,-1,15
 412 1301 412 1301 400.5 1264.5 c 128,-1,16
 389 1228 389 1228 385 1188 c 1,17,18
 313 1188 313 1188 271 1217 c 128,-1,19
 229 1246 229 1246 229 1292 c 0,20,21
 229 1334 229 1334 251 1369 c 128,-1,22
 273 1404 273 1404 314.5 1429.5 c 128,-1,23
 356 1455 356 1455 415 1469 c 128,-1,24
 474 1483 474 1483 549 1483 c 0,25,26
 613 1483 613 1483 664.5 1469.5 c 128,-1,27
 716 1456 716 1456 752 1432 c 128,-1,28
 788 1408 788 1408 807.5 1374 c 128,-1,29
 827 1340 827 1340 827 1298 c 0,30,31
 827 1255 827 1255 812.5 1215.5 c 128,-1,32
 798 1176 798 1176 762.5 1133.5 c 128,-1,33
 727 1091 727 1091 669 1041.5 c 128,-1,34
 611 992 611 992 524 930 c 2,35,-1
 268 745 l 1,36,-1
 569 745 l 2,37,38
 617 745 617 745 641.5 770 c 128,-1,39
 666 795 666 795 678 829 c 2,40,-1
 694 872 l 1,41,-1
 774 872 l 1,42,-1
 717 586 l 1,43,-1
 59 586 l 1,0,-1
EndSplineSet
EndChar

StartChar: threesuperior
Encoding: 179 179 117
Width: 819
GlyphClass: 2
Flags: W
LayerCount: 2
Fore
SplineSet
360 573 m 0,0,1
 211 573 211 573 135 617.5 c 128,-1,2
 59 662 59 662 59 739 c 0,3,4
 59 767 59 767 70.5 788.5 c 128,-1,5
 82 810 82 810 102.5 825 c 128,-1,6
 123 840 123 840 151 848 c 128,-1,7
 179 856 179 856 211 856 c 1,8,9
 211 827 211 827 220 795.5 c 128,-1,10
 229 764 229 764 249 738.5 c 128,-1,11
 269 713 269 713 301 696.5 c 128,-1,12
 333 680 333 680 379 680 c 0,13,14
 416 680 416 680 448.5 689 c 128,-1,15
 481 698 481 698 505 718.5 c 128,-1,16
 529 739 529 739 543 771 c 128,-1,17
 557 803 557 803 557 848 c 0,18,19
 557 876 557 876 546 902 c 128,-1,20
 535 928 535 928 512.5 947 c 128,-1,21
 490 966 490 966 454.5 977.5 c 128,-1,22
 419 989 419 989 371 989 c 2,23,-1
 303 989 l 1,24,-1
 319 1085 l 1,25,-1
 389 1085 l 2,26,27
 432 1085 432 1085 471 1099.5 c 128,-1,28
 510 1114 510 1114 539.5 1141 c 128,-1,29
 569 1168 569 1168 586.5 1207.5 c 128,-1,30
 604 1247 604 1247 604 1298 c 0,31,32
 604 1339 604 1339 585.5 1365 c 128,-1,33
 567 1391 567 1391 526 1391 c 0,34,35
 493 1391 493 1391 468.5 1376.5 c 128,-1,36
 444 1362 444 1362 426.5 1337 c 128,-1,37
 409 1312 409 1312 398.5 1280 c 128,-1,38
 388 1248 388 1248 383 1212 c 1,39,40
 308 1212 308 1212 262.5 1234.5 c 128,-1,41
 217 1257 217 1257 217 1307 c 0,42,43
 217 1343 217 1343 239 1375 c 128,-1,44
 261 1407 261 1407 302.5 1431 c 128,-1,45
 344 1455 344 1455 404 1469 c 128,-1,46
 464 1483 464 1483 539 1483 c 0,47,48
 612 1483 612 1483 665.5 1468.5 c 128,-1,49
 719 1454 719 1454 754 1428.5 c 128,-1,50
 789 1403 789 1403 806 1369 c 128,-1,51
 823 1335 823 1335 823 1296 c 0,52,53
 823 1242 823 1242 804 1202 c 128,-1,54
 785 1162 785 1162 750.5 1133 c 128,-1,55
 716 1104 716 1104 668.5 1085 c 128,-1,56
 621 1066 621 1066 565 1055 c 1,57,-1
 563 1044 l 1,58,59
 657 1033 657 1033 713.5 987 c 128,-1,60
 770 941 770 941 770 856 c 0,61,62
 770 787 770 787 739 734 c 128,-1,63
 708 681 708 681 653.5 645.5 c 128,-1,64
 599 610 599 610 523.5 591.5 c 128,-1,65
 448 573 448 573 360 573 c 0,0,1
EndSplineSet
EndChar

StartChar: acute
Encoding: 180 180 118
Width: 1182
GlyphClass: 2
Flags: W
LayerCount: 2
Fore
SplineSet
504 1268 m 1,0,1
 532 1297 532 1297 565 1335 c 128,-1,2
 598 1373 598 1373 630.5 1413.5 c 128,-1,3
 663 1454 663 1454 693.5 1494 c 128,-1,4
 724 1534 724 1534 748 1569 c 1,5,-1
 1069 1569 l 1,6,-1
 1063 1548 l 1,7,8
 1047 1530 1047 1530 1019 1505.5 c 128,-1,9
 991 1481 991 1481 955.5 1453 c 128,-1,10
 920 1425 920 1425 879.5 1395.5 c 128,-1,11
 839 1366 839 1366 797 1338 c 128,-1,12
 755 1310 755 1310 714 1284.5 c 128,-1,13
 673 1259 673 1259 637 1241 c 1,14,-1
 498 1241 l 1,15,-1
 504 1268 l 1,0,1
EndSplineSet
EndChar

StartChar: mu
Encoding: 181 181 119
Width: 1386
GlyphClass: 2
Flags: W
LayerCount: 2
Fore
SplineSet
803 188 m 1,0,1
 768 141 768 141 734.5 102.5 c 128,-1,2
 701 64 701 64 664 37 c 128,-1,3
 627 10 627 10 585 -5 c 128,-1,4
 543 -20 543 -20 492 -20 c 0,5,6
 401 -20 401 -20 338 20.5 c 128,-1,7
 275 61 275 61 238 127 c 1,8,9
 231 91 231 91 225.5 53 c 128,-1,10
 220 15 220 15 216.5 -21 c 128,-1,11
 213 -57 213 -57 211 -89.5 c 128,-1,12
 209 -122 209 -122 209 -147 c 0,13,14
 209 -182 209 -182 215.5 -210.5 c 128,-1,15
 222 -239 222 -239 240.5 -260 c 128,-1,16
 259 -281 259 -281 291.5 -294.5 c 128,-1,17
 324 -308 324 -308 375 -313 c 1,18,19
 367 -358 367 -358 343.5 -392 c 128,-1,20
 320 -426 320 -426 286.5 -448 c 128,-1,21
 253 -470 253 -470 212 -481 c 128,-1,22
 171 -492 171 -492 129 -492 c 0,23,24
 100 -492 100 -492 75.5 -484.5 c 128,-1,25
 51 -477 51 -477 33.5 -459.5 c 128,-1,26
 16 -442 16 -442 6 -414 c 128,-1,27
 -4 -386 -4 -386 -4 -344 c 0,28,29
 -4 -283 -4 -283 13 -207 c 128,-1,30
 30 -131 30 -131 57 -34 c 128,-1,31
 84 63 84 63 117 185 c 128,-1,32
 150 307 150 307 182 461 c 2,33,-1
 317 1098 l 1,34,-1
 629 1098 l 1,35,-1
 492 455 l 2,36,37
 489 440 489 440 485 420 c 128,-1,38
 481 400 481 400 477.5 377.5 c 128,-1,39
 474 355 474 355 471.5 332.5 c 128,-1,40
 469 310 469 310 469 291 c 0,41,42
 469 263 469 263 475.5 238 c 128,-1,43
 482 213 482 213 496.5 194.5 c 128,-1,44
 511 176 511 176 532.5 165 c 128,-1,45
 554 154 554 154 584 154 c 0,46,47
 679 154 679 154 744 245.5 c 128,-1,48
 809 337 809 337 850 532 c 2,49,-1
 971 1098 l 1,50,-1
 1282 1098 l 1,51,-1
 1141 432 l 1,52,53
 1128 376 1128 376 1120 327.5 c 128,-1,54
 1112 279 1112 279 1112 236 c 0,55,56
 1112 191 1112 191 1131 167 c 128,-1,57
 1150 143 1150 143 1184 143 c 0,58,59
 1216 143 1216 143 1242.5 155 c 128,-1,60
 1269 167 1269 167 1305 190 c 1,61,-1
 1354 121 l 1,62,63
 1329 95 1329 95 1298 69.5 c 128,-1,64
 1267 44 1267 44 1227 24 c 128,-1,65
 1187 4 1187 4 1138 -8 c 128,-1,66
 1089 -20 1089 -20 1028 -20 c 0,67,68
 965 -20 965 -20 923.5 -2.5 c 128,-1,69
 882 15 882 15 857.5 43.5 c 128,-1,70
 833 72 833 72 823 109.5 c 128,-1,71
 813 147 813 147 813 188 c 1,72,-1
 803 188 l 1,0,1
EndSplineSet
EndChar

StartChar: paragraph
Encoding: 182 182 120
Width: 1284
GlyphClass: 2
Flags: W
LayerCount: 2
Fore
SplineSet
909 1430 m 1,0,-1
 737 1430 l 1,1,-1
 737 -227 l 1,2,-1
 395 -227 l 1,3,-1
 395 -119 l 1,4,-1
 422 -119 l 2,5,6
 456 -119 456 -119 487 -114.5 c 128,-1,7
 518 -110 518 -110 540.5 -94.5 c 128,-1,8
 563 -79 563 -79 576.5 -50 c 128,-1,9
 590 -21 590 -21 590 27 c 2,10,-1
 590 791 l 1,11,-1
 444 791 l 2,12,13
 354 791 354 791 294 823.5 c 128,-1,14
 234 856 234 856 198 911.5 c 128,-1,15
 162 967 162 967 146.5 1039.5 c 128,-1,16
 131 1112 131 1112 131 1192 c 0,17,18
 131 1274 131 1274 148 1341 c 128,-1,19
 165 1408 165 1408 203 1456 c 128,-1,20
 241 1504 241 1504 301.5 1530 c 128,-1,21
 362 1556 362 1556 449 1556 c 2,22,-1
 1251 1556 l 1,23,-1
 1251 1448 l 1,24,-1
 1225 1448 l 2,25,26
 1190 1448 1190 1448 1159.5 1443 c 128,-1,27
 1129 1438 1129 1438 1106.5 1422.5 c 128,-1,28
 1084 1407 1084 1407 1070.5 1378 c 128,-1,29
 1057 1349 1057 1349 1057 1300 c 2,30,-1
 1057 27 l 2,31,32
 1057 -21 1057 -21 1070.5 -50 c 128,-1,33
 1084 -79 1084 -79 1106.5 -94.5 c 128,-1,34
 1129 -110 1129 -110 1159.5 -114.5 c 128,-1,35
 1190 -119 1190 -119 1225 -119 c 2,36,-1
 1251 -119 l 1,37,-1
 1251 -227 l 1,38,-1
 909 -227 l 1,39,-1
 909 1430 l 1,0,-1
EndSplineSet
EndChar

StartChar: cedilla
Encoding: 184 184 122
Width: 682
GlyphClass: 2
Flags: W
LayerCount: 2
Fore
SplineSet
387 -70 m 1,0,1
 428 -75 428 -75 461.5 -90 c 128,-1,2
 495 -105 495 -105 519 -127.5 c 128,-1,3
 543 -150 543 -150 556 -178.5 c 128,-1,4
 569 -207 569 -207 569 -240 c 0,5,6
 569 -306 569 -306 538.5 -353.5 c 128,-1,7
 508 -401 508 -401 457 -432 c 128,-1,8
 406 -463 406 -463 340.5 -477.5 c 128,-1,9
 275 -492 275 -492 205 -492 c 0,10,11
 173 -492 173 -492 129.5 -484.5 c 128,-1,12
 86 -477 86 -477 51 -465 c 1,13,-1
 78 -344 l 1,14,15
 113 -352 113 -352 148 -356 c 128,-1,16
 183 -360 183 -360 211 -360 c 0,17,18
 242 -360 242 -360 270 -354 c 128,-1,19
 298 -348 298 -348 318 -335.5 c 128,-1,20
 338 -323 338 -323 350 -303.5 c 128,-1,21
 362 -284 362 -284 362 -256 c 0,22,23
 362 -236 362 -236 351.5 -219.5 c 128,-1,24
 341 -203 341 -203 323 -190.5 c 128,-1,25
 305 -178 305 -178 280 -171 c 128,-1,26
 255 -164 255 -164 227 -162 c 1,27,-1
 309 18 l 1,28,-1
 426 18 l 1,29,-1
 387 -70 l 1,0,1
EndSplineSet
EndChar

StartChar: onesuperior
Encoding: 185 185 123
Width: 819
GlyphClass: 2
Flags: W
LayerCount: 2
Fore
SplineSet
717 1473 m 1,0,-1
 571 784 l 1,1,2
 566 766 566 766 564.5 751 c 128,-1,3
 563 736 563 736 563 731 c 0,4,5
 563 713 563 713 569.5 702.5 c 128,-1,6
 576 692 576 692 587 686.5 c 128,-1,7
 598 681 598 681 612.5 679.5 c 128,-1,8
 627 678 627 678 643 678 c 2,9,-1
 727 678 l 1,10,-1
 709 588 l 1,11,-1
 131 588 l 1,12,-1
 150 678 l 1,13,-1
 254 678 l 2,14,15
 273 678 273 678 290.5 680.5 c 128,-1,16
 308 683 308 683 322 691 c 128,-1,17
 336 699 336 699 346.5 714.5 c 128,-1,18
 357 730 357 730 362 756 c 2,19,-1
 485 1337 l 1,20,21
 427 1280 427 1280 381.5 1245 c 128,-1,22
 336 1210 336 1210 299 1210 c 0,23,24
 270 1210 270 1210 255 1239.5 c 128,-1,25
 240 1269 240 1269 240 1311 c 1,26,27
 264 1315 264 1315 288 1322 c 128,-1,28
 312 1329 312 1329 338 1340 c 128,-1,29
 364 1351 364 1351 394 1367 c 128,-1,30
 424 1383 424 1383 459 1405 c 2,31,-1
 565 1473 l 1,32,-1
 717 1473 l 1,0,-1
EndSplineSet
EndChar

StartChar: ordmasculine
Encoding: 186 186 124
Width: 834
GlyphClass: 2
Flags: W
LayerCount: 2
Fore
SplineSet
922 1219 m 0,0,1
 922 1176 922 1176 910 1127 c 128,-1,2
 898 1078 898 1078 873 1029 c 128,-1,3
 848 980 848 980 810.5 935 c 128,-1,4
 773 890 773 890 721.5 855.5 c 128,-1,5
 670 821 670 821 605 800.5 c 128,-1,6
 540 780 540 780 461 780 c 0,7,8
 390 780 390 780 332 796.5 c 128,-1,9
 274 813 274 813 233 846 c 128,-1,10
 192 879 192 879 169.5 927 c 128,-1,11
 147 975 147 975 147 1038 c 0,12,13
 147 1084 147 1084 160.5 1134.5 c 128,-1,14
 174 1185 174 1185 200 1233 c 128,-1,15
 226 1281 226 1281 265 1324.5 c 128,-1,16
 304 1368 304 1368 356 1401 c 128,-1,17
 408 1434 408 1434 472 1453.5 c 128,-1,18
 536 1473 536 1473 612 1473 c 0,19,20
 676 1473 676 1473 732.5 1458 c 128,-1,21
 789 1443 789 1443 831 1412 c 128,-1,22
 873 1381 873 1381 897.5 1333 c 128,-1,23
 922 1285 922 1285 922 1219 c 0,0,1
692 1225 m 0,24,25
 692 1293 692 1293 671 1328.5 c 128,-1,26
 650 1364 650 1364 602 1364 c 0,27,28
 550 1364 550 1364 508.5 1331 c 128,-1,29
 467 1298 467 1298 438.5 1247.5 c 128,-1,30
 410 1197 410 1197 394.5 1138 c 128,-1,31
 379 1079 379 1079 379 1028 c 0,32,33
 379 959 379 959 402 921 c 128,-1,34
 425 883 425 883 471 883 c 0,35,36
 526 883 526 883 567.5 917.5 c 128,-1,37
 609 952 609 952 636.5 1004 c 128,-1,38
 664 1056 664 1056 678 1115.5 c 128,-1,39
 692 1175 692 1175 692 1225 c 0,24,25
EndSplineSet
EndChar

StartChar: guillemotright
Encoding: 187 187 125
Width: 1135
GlyphClass: 2
Flags: W
LayerCount: 2
Fore
SplineSet
987 487 m 1,0,-1
 600 143 l 1,1,-1
 457 143 l 1,2,-1
 752 553 l 1,3,-1
 631 963 l 1,4,-1
 774 963 l 1,5,-1
 1010 594 l 1,6,-1
 987 487 l 1,0,-1
575 487 m 1,7,-1
 188 143 l 1,8,-1
 45 143 l 1,9,-1
 340 553 l 1,10,-1
 219 963 l 1,11,-1
 362 963 l 1,12,-1
 598 594 l 1,13,-1
 575 487 l 1,7,-1
EndSplineSet
EndChar

StartChar: questiondown
Encoding: 191 191 129
Width: 1096
GlyphClass: 2
Flags: W
LayerCount: 2
Fore
SplineSet
4 -49 m 256,0,1
 4 40 4 40 43 113.5 c 128,-1,2
 82 187 82 187 150 247.5 c 128,-1,3
 218 308 218 308 311.5 356.5 c 128,-1,4
 405 405 405 405 514 444 c 1,5,-1
 588 627 l 1,6,-1
 719 627 l 1,7,-1
 723 373 l 1,8,9
 632 340 632 340 558.5 300.5 c 128,-1,10
 485 261 485 261 433 210.5 c 128,-1,11
 381 160 381 160 352.5 95.5 c 128,-1,12
 324 31 324 31 324 -53 c 0,13,14
 324 -104 324 -104 335 -143 c 128,-1,15
 346 -182 346 -182 366 -209 c 128,-1,16
 386 -236 386 -236 412.5 -250 c 128,-1,17
 439 -264 439 -264 471 -264 c 0,18,19
 519 -264 519 -264 553.5 -239 c 128,-1,20
 588 -214 588 -214 611 -173 c 128,-1,21
 634 -132 634 -132 647.5 -78 c 128,-1,22
 661 -24 661 -24 668 35 c 1,23,24
 920 35 920 35 920 -123 c 0,25,26
 920 -178 920 -178 887 -226.5 c 128,-1,27
 854 -275 854 -275 792.5 -311 c 128,-1,28
 731 -347 731 -347 643 -368 c 128,-1,29
 555 -389 555 -389 446 -389 c 0,30,31
 344 -389 344 -389 262 -369 c 128,-1,32
 180 -349 180 -349 123 -307.5 c 128,-1,33
 66 -266 66 -266 35 -202 c 128,-1,34
 4 -138 4 -138 4 -49 c 256,0,1
524 926 m 0,35,36
 524 977 524 977 539.5 1012.5 c 128,-1,37
 555 1048 555 1048 580.5 1069.5 c 128,-1,38
 606 1091 606 1091 638 1100.5 c 128,-1,39
 670 1110 670 1110 702 1110 c 0,40,41
 777 1110 777 1110 822.5 1074 c 128,-1,42
 868 1038 868 1038 868 963 c 0,43,44
 868 921 868 921 855.5 887 c 128,-1,45
 843 853 843 853 820 829 c 128,-1,46
 797 805 797 805 764 791.5 c 128,-1,47
 731 778 731 778 690 778 c 0,48,49
 655 778 655 778 624.5 787 c 128,-1,50
 594 796 594 796 571.5 814 c 128,-1,51
 549 832 549 832 536.5 860 c 128,-1,52
 524 888 524 888 524 926 c 0,35,36
EndSplineSet
EndChar

StartChar: AE
Encoding: 198 198 136
Width: 2034
GlyphClass: 2
Flags: W
LayerCount: 2
Fore
SplineSet
2083 1462 m 1,0,-1
 2011 1081 l 1,1,-1
 1866 1081 l 1,2,3
 1867 1088 1867 1088 1868.5 1106 c 128,-1,4
 1870 1124 1870 1124 1871.5 1143.5 c 128,-1,5
 1873 1163 1873 1163 1874.5 1179.5 c 128,-1,6
 1876 1196 1876 1196 1876 1200 c 0,7,8
 1876 1228 1876 1228 1868 1253 c 128,-1,9
 1860 1278 1860 1278 1843 1297 c 128,-1,10
 1826 1316 1826 1316 1798.5 1326.5 c 128,-1,11
 1771 1337 1771 1337 1731 1337 c 2,12,-1
 1458 1337 l 1,13,-1
 1350 825 l 1,14,-1
 1815 825 l 1,15,-1
 1788 702 l 1,16,-1
 1323 702 l 1,17,-1
 1200 125 l 1,18,-1
 1524 125 l 2,19,20
 1572 125 1572 125 1609.5 138.5 c 128,-1,21
 1647 152 1647 152 1675.5 175 c 128,-1,22
 1704 198 1704 198 1723.5 228.5 c 128,-1,23
 1743 259 1743 259 1755 293 c 2,24,-1
 1788 381 l 1,25,-1
 1933 381 l 1,26,-1
 1839 0 l 1,27,-1
 664 0 l 1,28,-1
 686 109 l 1,29,-1
 713 109 l 2,30,31
 745 109 745 109 775.5 113 c 128,-1,32
 806 117 806 117 831 130 c 128,-1,33
 856 143 856 143 874.5 167 c 128,-1,34
 893 191 893 191 901 231 c 2,35,-1
 950 469 l 1,36,-1
 483 469 l 1,37,-1
 362 297 l 2,38,39
 332 254 332 254 318.5 220.5 c 128,-1,40
 305 187 305 187 305 170 c 0,41,42
 305 138 305 138 333 123.5 c 128,-1,43
 361 109 361 109 414 109 c 2,44,-1
 449 109 l 1,45,-1
 426 0 l 1,46,-1
 -90 0 l 1,47,-1
 -68 109 l 1,48,-1
 -43 109 l 2,49,50
 -16 109 -16 109 9 118.5 c 128,-1,51
 34 128 34 128 59.5 147.5 c 128,-1,52
 85 167 85 167 112 197 c 128,-1,53
 139 227 139 227 170 268 c 2,54,-1
 975 1343 l 1,55,-1
 842 1354 l 1,56,-1
 864 1462 l 1,57,-1
 2083 1462 l 1,0,-1
1114 1337 m 1,58,-1
 575 592 l 1,59,-1
 977 592 l 1,60,-1
 1135 1337 l 1,61,-1
 1114 1337 l 1,58,-1
EndSplineSet
EndChar

StartChar: Eth
Encoding: 208 208 146
Width: 1573
GlyphClass: 2
Flags: W
LayerCount: 2
Fore
SplineSet
-27 109 m 1,0,-1
 2 109 l 2,1,2
 34 109 34 109 64.5 113 c 128,-1,3
 95 117 95 117 120 130 c 128,-1,4
 145 143 145 143 163.5 167 c 128,-1,5
 182 191 182 191 190 231 c 2,6,-1
 289 702 l 1,7,-1
 121 702 l 1,8,-1
 147 827 l 1,9,-1
 315 827 l 1,10,-1
 403 1237 l 2,11,12
 406 1248 406 1248 408.5 1262 c 128,-1,13
 411 1276 411 1276 411 1284 c 0,14,15
 411 1306 411 1306 400 1320 c 128,-1,16
 389 1334 389 1334 369.5 1341.5 c 128,-1,17
 350 1349 350 1349 323 1351.5 c 128,-1,18
 296 1354 296 1354 264 1354 c 2,19,-1
 237 1354 l 1,20,-1
 260 1462 l 1,21,-1
 915 1462 l 2,22,23
 1062 1462 1062 1462 1177 1426 c 128,-1,24
 1292 1390 1292 1390 1372 1319.5 c 128,-1,25
 1452 1249 1452 1249 1494 1145 c 128,-1,26
 1536 1041 1536 1041 1536 905 c 0,27,28
 1536 783 1536 783 1510.5 668.5 c 128,-1,29
 1485 554 1485 554 1435.5 453.5 c 128,-1,30
 1386 353 1386 353 1313 269.5 c 128,-1,31
 1240 186 1240 186 1144 126 c 128,-1,32
 1048 66 1048 66 929.5 33 c 128,-1,33
 811 0 811 0 672 0 c 2,34,-1
 -49 0 l 1,35,-1
 -27 109 l 1,0,-1
584 127 m 2,36,37
 728 127 728 127 841 185.5 c 128,-1,38
 954 244 954 244 1032 349.5 c 128,-1,39
 1110 455 1110 455 1151 601 c 128,-1,40
 1192 747 1192 747 1192 922 c 0,41,42
 1192 1029 1192 1029 1167 1107.5 c 128,-1,43
 1142 1186 1142 1186 1095 1237 c 128,-1,44
 1048 1288 1048 1288 981.5 1312.5 c 128,-1,45
 915 1337 915 1337 833 1337 c 2,46,-1
 747 1337 l 1,47,-1
 639 827 l 1,48,-1
 897 827 l 1,49,-1
 870 702 l 1,50,-1
 612 702 l 1,51,-1
 491 127 l 1,52,-1
 584 127 l 2,36,37
EndSplineSet
EndChar

StartChar: multiply
Encoding: 215 215 153
Width: 1145
GlyphClass: 2
Flags: W
LayerCount: 2
Fore
SplineSet
604 631 m 1,0,-1
 303 328 l 1,1,-1
 199 432 l 1,2,-1
 500 735 l 1,3,-1
 199 1036 l 1,4,-1
 303 1139 l 1,5,-1
 604 838 l 1,6,-1
 905 1141 l 1,7,-1
 1010 1036 l 1,8,-1
 707 733 l 1,9,-1
 1010 430 l 1,10,-1
 907 328 l 1,11,-1
 604 631 l 1,0,-1
EndSplineSet
EndChar

StartChar: Oslash
Encoding: 216 216 154
Width: 1622
GlyphClass: 2
Flags: W
LayerCount: 2
Fore
SplineSet
129 545 m 0,0,1
 129 643 129 643 153.5 751 c 128,-1,2
 178 859 178 859 227 963.5 c 128,-1,3
 276 1068 276 1068 349 1162.5 c 128,-1,4
 422 1257 422 1257 518.5 1328.5 c 128,-1,5
 615 1400 615 1400 736 1442.5 c 128,-1,6
 857 1485 857 1485 1001 1485 c 0,7,8
 1163 1485 1163 1485 1296 1417 c 1,9,-1
 1393 1546 l 1,10,-1
 1536 1546 l 1,11,-1
 1391 1354 l 1,12,13
 1471 1285 1471 1285 1519 1178 c 128,-1,14
 1567 1071 1567 1071 1567 922 c 0,15,16
 1567 828 1567 828 1543.5 721 c 128,-1,17
 1520 614 1520 614 1472.5 509 c 128,-1,18
 1425 404 1425 404 1353.5 308 c 128,-1,19
 1282 212 1282 212 1185.5 138.5 c 128,-1,20
 1089 65 1089 65 967.5 21 c 128,-1,21
 846 -23 846 -23 700 -23 c 0,22,23
 619 -23 619 -23 546 -6 c 128,-1,24
 473 11 473 11 408 43 c 1,25,-1
 315 -82 l 1,26,-1
 170 -82 l 1,27,-1
 313 104 l 1,28,29
 227 177 227 177 178 286.5 c 128,-1,30
 129 396 129 396 129 545 c 0,0,1
463 496 m 0,31,32
 463 400 463 400 481 330 c 1,33,-1
 1167 1245 l 1,34,35
 1130 1299 1130 1299 1076.5 1325.5 c 128,-1,36
 1023 1352 1023 1352 958 1352 c 0,37,38
 873 1352 873 1352 803.5 1311 c 128,-1,39
 734 1270 734 1270 679 1201.5 c 128,-1,40
 624 1133 624 1133 583 1044.5 c 128,-1,41
 542 956 542 956 515.5 860.5 c 128,-1,42
 489 765 489 765 476 670.5 c 128,-1,43
 463 576 463 576 463 496 c 0,31,32
1235 969 m 0,44,45
 1235 1012 1235 1012 1231 1051 c 128,-1,46
 1227 1090 1227 1090 1219 1122 c 1,47,-1
 537 213 l 1,48,49
 574 160 574 160 626.5 136.5 c 128,-1,50
 679 113 679 113 741 113 c 0,51,52
 826 113 826 113 895.5 154 c 128,-1,53
 965 195 965 195 1020 263.5 c 128,-1,54
 1075 332 1075 332 1115.5 420.5 c 128,-1,55
 1156 509 1156 509 1182.5 604 c 128,-1,56
 1209 699 1209 699 1222 793.5 c 128,-1,57
 1235 888 1235 888 1235 969 c 0,44,45
EndSplineSet
EndChar

StartChar: Thorn
Encoding: 222 222 160
Width: 1307
GlyphClass: 2
Flags: W
LayerCount: 2
Fore
SplineSet
-47 0 m 1,0,-1
 -25 109 l 1,1,-1
 2 109 l 2,2,3
 34 109 34 109 64.5 113 c 128,-1,4
 95 117 95 117 120 130 c 128,-1,5
 145 143 145 143 163.5 167 c 128,-1,6
 182 191 182 191 190 231 c 2,7,-1
 403 1237 l 1,8,9
 407 1248 407 1248 409.5 1262 c 128,-1,10
 412 1276 412 1276 412 1284 c 0,11,12
 412 1306 412 1306 401 1320 c 128,-1,13
 390 1334 390 1334 370.5 1341.5 c 128,-1,14
 351 1349 351 1349 323.5 1351.5 c 128,-1,15
 296 1354 296 1354 264 1354 c 2,16,-1
 238 1354 l 1,17,-1
 260 1462 l 1,18,-1
 967 1462 l 1,19,-1
 944 1354 l 1,20,-1
 918 1354 l 2,21,22
 884 1354 884 1354 852.5 1349.5 c 128,-1,23
 821 1345 821 1345 795 1332 c 128,-1,24
 769 1319 769 1319 750 1294 c 128,-1,25
 731 1269 731 1269 723 1229 c 2,26,-1
 717 1198 l 1,27,-1
 784 1198 l 2,28,29
 905 1198 905 1198 1001.5 1172.5 c 128,-1,30
 1098 1147 1098 1147 1166 1096.5 c 128,-1,31
 1234 1046 1234 1046 1270.5 971.5 c 128,-1,32
 1307 897 1307 897 1307 799 c 0,33,34
 1307 747 1307 747 1297 689 c 128,-1,35
 1287 631 1287 631 1261.5 575 c 128,-1,36
 1236 519 1236 519 1191 468.5 c 128,-1,37
 1146 418 1146 418 1076.5 379.5 c 128,-1,38
 1007 341 1007 341 909 318 c 128,-1,39
 811 295 811 295 680 295 c 2,40,-1
 526 295 l 1,41,-1
 512 225 l 2,42,43
 510 214 510 214 507 200 c 128,-1,44
 504 186 504 186 504 178 c 0,45,46
 504 156 504 156 515 142.5 c 128,-1,47
 526 129 526 129 546 121.5 c 128,-1,48
 566 114 566 114 593.5 111.5 c 128,-1,49
 621 109 621 109 653 109 c 2,50,-1
 680 109 l 1,51,-1
 657 0 l 1,52,-1
 -47 0 l 1,0,-1
551 414 m 1,53,-1
 635 414 l 2,54,55
 728 414 728 414 792.5 442 c 128,-1,56
 857 470 857 470 897 520 c 128,-1,57
 937 570 937 570 955 640 c 128,-1,58
 973 710 973 710 973 793 c 0,59,60
 973 869 973 869 955.5 923 c 128,-1,61
 938 977 938 977 906.5 1011.5 c 128,-1,62
 875 1046 875 1046 831.5 1061.5 c 128,-1,63
 788 1077 788 1077 737 1077 c 2,64,-1
 692 1077 l 1,65,-1
 551 414 l 1,53,-1
EndSplineSet
EndChar

StartChar: germandbls
Encoding: 223 223 161
Width: 1423
GlyphClass: 2
Flags: W
LayerCount: 2
Fore
SplineSet
895 1460 m 0,0,1
 840 1460 840 1460 797.5 1440.5 c 128,-1,2
 755 1421 755 1421 723.5 1384.5 c 128,-1,3
 692 1348 692 1348 670.5 1295.5 c 128,-1,4
 649 1243 649 1243 637 1176 c 1,5,-1
 381 -16 l 2,6,7
 361 -110 361 -110 326.5 -182 c 128,-1,8
 292 -254 292 -254 248.5 -307 c 128,-1,9
 205 -360 205 -360 154 -395.5 c 128,-1,10
 103 -431 103 -431 49 -452.5 c 128,-1,11
 -5 -474 -5 -474 -60.5 -483 c 128,-1,12
 -116 -492 -116 -492 -168 -492 c 0,13,14
 -208 -492 -208 -492 -243.5 -485.5 c 128,-1,15
 -279 -479 -279 -479 -299 -471 c 1,16,-1
 -270 -358 l 1,17,18
 -253 -363 -253 -363 -229.5 -367 c 128,-1,19
 -206 -371 -206 -371 -174 -371 c 0,20,21
 -129 -371 -129 -371 -93 -351.5 c 128,-1,22
 -57 -332 -57 -332 -27.5 -289.5 c 128,-1,23
 2 -247 2 -247 26 -180 c 128,-1,24
 50 -113 50 -113 72 -18 c 1,25,-1
 279 958 l 1,26,-1
 113 958 l 1,27,-1
 139 1098 l 1,28,-1
 309 1098 l 1,29,-1
 326 1161 l 1,30,31
 353 1277 353 1277 407.5 1356.5 c 128,-1,32
 462 1436 462 1436 538 1485.5 c 128,-1,33
 614 1535 614 1535 708 1557 c 128,-1,34
 802 1579 802 1579 909 1579 c 0,35,36
 1020 1579 1020 1579 1103 1556 c 128,-1,37
 1186 1533 1186 1533 1241.5 1491.5 c 128,-1,38
 1297 1450 1297 1450 1324.5 1391 c 128,-1,39
 1352 1332 1352 1332 1352 1260 c 0,40,41
 1352 1234 1352 1234 1348.5 1201.5 c 128,-1,42
 1345 1169 1345 1169 1340 1135 c 128,-1,43
 1335 1101 1335 1101 1328.5 1067.5 c 128,-1,44
 1322 1034 1322 1034 1315 1006 c 1,45,-1
 1198 1006 l 2,46,47
 1137 1006 1137 1006 1093 994 c 128,-1,48
 1049 982 1049 982 1020.5 960.5 c 128,-1,49
 992 939 992 939 978.5 909 c 128,-1,50
 965 879 965 879 965 842 c 0,51,52
 965 813 965 813 973.5 789 c 128,-1,53
 982 765 982 765 1002 742 c 128,-1,54
 1022 719 1022 719 1056.5 694.5 c 128,-1,55
 1091 670 1091 670 1143 639 c 0,56,57
 1242 582 1242 582 1284.5 509.5 c 128,-1,58
 1327 437 1327 437 1327 338 c 0,59,60
 1327 257 1327 257 1294.5 191 c 128,-1,61
 1262 125 1262 125 1202.5 78 c 128,-1,62
 1143 31 1143 31 1059.5 5.5 c 128,-1,63
 976 -20 976 -20 874 -20 c 0,64,65
 797 -20 797 -20 734 -5 c 128,-1,66
 671 10 671 10 626 39 c 128,-1,67
 581 68 581 68 556.5 109 c 128,-1,68
 532 150 532 150 532 203 c 0,69,70
 532 243 532 243 547 274.5 c 128,-1,71
 562 306 562 306 590 327.5 c 128,-1,72
 618 349 618 349 656.5 360 c 128,-1,73
 695 371 695 371 743 371 c 1,74,75
 743 323 743 323 751 276 c 128,-1,76
 759 229 759 229 777.5 191 c 128,-1,77
 796 153 796 153 825.5 129.5 c 128,-1,78
 855 106 855 106 897 106 c 0,79,80
 965 106 965 106 1000.5 151 c 128,-1,81
 1036 196 1036 196 1036 270 c 0,82,83
 1036 302 1036 302 1030 330.5 c 128,-1,84
 1024 359 1024 359 1007 386 c 128,-1,85
 990 413 990 413 959.5 439 c 128,-1,86
 929 465 929 465 881 494 c 1,87,88
 785 549 785 549 731.5 625 c 128,-1,89
 678 701 678 701 678 801 c 0,90,91
 678 884 678 884 709.5 943.5 c 128,-1,92
 741 1003 741 1003 792.5 1041.5 c 128,-1,93
 844 1080 844 1080 909 1098 c 128,-1,94
 974 1116 974 1116 1042 1116 c 1,95,96
 1052 1163 1052 1163 1057.5 1201.5 c 128,-1,97
 1063 1240 1063 1240 1063 1274 c 0,98,99
 1063 1358 1063 1358 1022 1409 c 128,-1,100
 981 1460 981 1460 895 1460 c 0,0,1
EndSplineSet
EndChar

StartChar: ae
Encoding: 230 230 168
Width: 1802
GlyphClass: 2
Flags: W
LayerCount: 2
Fore
SplineSet
1325 135 m 0,0,1
 1375 135 1375 135 1420 149.5 c 128,-1,2
 1465 164 1465 164 1503 187.5 c 128,-1,3
 1541 211 1541 211 1572 240.5 c 128,-1,4
 1603 270 1603 270 1624 301 c 1,5,6
 1636 286 1636 286 1643.5 262.5 c 128,-1,7
 1651 239 1651 239 1651 213 c 0,8,9
 1651 176 1651 176 1627 135 c 128,-1,10
 1603 94 1603 94 1553.5 59.5 c 128,-1,11
 1504 25 1504 25 1427 2.5 c 128,-1,12
 1350 -20 1350 -20 1245 -20 c 0,13,14
 1058 -20 1058 -20 945.5 55 c 128,-1,15
 833 130 833 130 795 276 c 1,16,-1
 776 276 l 1,17,18
 738 205 738 205 699 149.5 c 128,-1,19
 660 94 660 94 613 56.5 c 128,-1,20
 566 19 566 19 508 -0.5 c 128,-1,21
 450 -20 450 -20 375 -20 c 0,22,23
 302 -20 302 -20 247 8.5 c 128,-1,24
 192 37 192 37 155.5 87 c 128,-1,25
 119 137 119 137 100.5 205.5 c 128,-1,26
 82 274 82 274 82 354 c 256,27,28
 82 434 82 434 100.5 521.5 c 128,-1,29
 119 609 119 609 156 694 c 128,-1,30
 193 779 193 779 247.5 856 c 128,-1,31
 302 933 302 933 373.5 991 c 128,-1,32
 445 1049 445 1049 533 1083.5 c 128,-1,33
 621 1118 621 1118 725 1118 c 0,34,35
 828 1118 828 1118 911 1086.5 c 128,-1,36
 994 1055 994 1055 1065 993 c 1,37,38
 1145 1055 1145 1055 1246.5 1088.5 c 128,-1,39
 1348 1122 1348 1122 1473 1122 c 0,40,41
 1627 1122 1627 1122 1709.5 1058.5 c 128,-1,42
 1792 995 1792 995 1792 881 c 0,43,44
 1792 798 1792 798 1746 721.5 c 128,-1,45
 1700 645 1700 645 1619 586.5 c 128,-1,46
 1538 528 1538 528 1426 493.5 c 128,-1,47
 1314 459 1314 459 1182 459 c 0,48,49
 1165 459 1165 459 1144.5 459 c 128,-1,50
 1124 459 1124 459 1106 461 c 1,51,52
 1103 441 1103 441 1102.5 420.5 c 128,-1,53
 1102 400 1102 400 1102 383 c 0,54,55
 1102 264 1102 264 1157.5 199.5 c 128,-1,56
 1213 135 1213 135 1325 135 c 0,0,1
393 352 m 0,57,58
 393 293 393 293 401.5 253 c 128,-1,59
 410 213 410 213 424.5 188.5 c 128,-1,60
 439 164 439 164 459.5 153.5 c 128,-1,61
 480 143 480 143 504 143 c 0,62,63
 541 143 541 143 581 171 c 128,-1,64
 621 199 621 199 658.5 245.5 c 128,-1,65
 696 292 696 292 729 353.5 c 128,-1,66
 762 415 762 415 786 483 c 1,67,68
 796 536 796 536 810 590.5 c 128,-1,69
 824 645 824 645 843.5 697 c 128,-1,70
 863 749 863 749 887.5 798 c 128,-1,71
 912 847 912 847 944 889 c 1,72,73
 934 904 934 904 914.5 921 c 128,-1,74
 895 938 895 938 869.5 952.5 c 128,-1,75
 844 967 844 967 814.5 977 c 128,-1,76
 785 987 785 987 754 987 c 0,77,78
 694 987 694 987 644.5 956 c 128,-1,79
 595 925 595 925 555 873 c 128,-1,80
 515 821 515 821 484.5 755 c 128,-1,81
 454 689 454 689 433.5 618 c 128,-1,82
 413 547 413 547 403 478 c 128,-1,83
 393 409 393 409 393 352 c 0,57,58
1397 999 m 0,84,85
 1364 999 1364 999 1332.5 981.5 c 128,-1,86
 1301 964 1301 964 1273 933.5 c 128,-1,87
 1245 903 1245 903 1221 862 c 128,-1,88
 1197 821 1197 821 1177 774 c 128,-1,89
 1157 727 1157 727 1142.5 677 c 128,-1,90
 1128 627 1128 627 1120 578 c 1,91,-1
 1139 578 l 2,92,93
 1215 578 1215 578 1280.5 599 c 128,-1,94
 1346 620 1346 620 1394 657.5 c 128,-1,95
 1442 695 1442 695 1469.5 748 c 128,-1,96
 1497 801 1497 801 1497 866 c 0,97,98
 1497 929 1497 929 1471 964 c 128,-1,99
 1445 999 1445 999 1397 999 c 0,84,85
EndSplineSet
EndChar

StartChar: eth
Encoding: 240 240 178
Width: 1260
GlyphClass: 2
Flags: W
LayerCount: 2
Fore
SplineSet
82 410 m 0,0,1
 82 473 82 473 98.5 545 c 128,-1,2
 115 617 115 617 148 688 c 128,-1,3
 181 759 181 759 231 825 c 128,-1,4
 281 891 281 891 349 941 c 128,-1,5
 417 991 417 991 502.5 1021 c 128,-1,6
 588 1051 588 1051 692 1051 c 0,7,8
 743 1051 743 1051 790.5 1036 c 128,-1,9
 838 1021 838 1021 870 995 c 1,10,11
 856 1076 856 1076 823.5 1141 c 128,-1,12
 791 1206 791 1206 741 1260 c 1,13,-1
 420 1110 l 1,14,-1
 449 1253 l 1,15,-1
 643 1343 l 1,16,17
 595 1378 595 1378 541 1402.5 c 128,-1,18
 487 1427 487 1427 428 1446 c 1,19,-1
 467 1571 l 1,20,21
 558 1549 558 1549 644.5 1512 c 128,-1,22
 731 1475 731 1475 809 1421 c 1,23,-1
 1114 1561 l 1,24,-1
 1083 1415 l 1,25,-1
 913 1337 l 1,26,27
 972 1281 972 1281 1021 1215 c 128,-1,28
 1070 1149 1070 1149 1105 1070.5 c 128,-1,29
 1140 992 1140 992 1159 900 c 128,-1,30
 1178 808 1178 808 1178 700 c 0,31,32
 1178 611 1178 611 1160.5 523 c 128,-1,33
 1143 435 1143 435 1107.5 355 c 128,-1,34
 1072 275 1072 275 1018 206.5 c 128,-1,35
 964 138 964 138 890 87.5 c 128,-1,36
 816 37 816 37 721.5 8.5 c 128,-1,37
 627 -20 627 -20 512 -20 c 0,38,39
 417 -20 417 -20 338 6.5 c 128,-1,40
 259 33 259 33 202 86 c 128,-1,41
 145 139 145 139 113.5 220 c 128,-1,42
 82 301 82 301 82 410 c 0,0,1
393 393 m 0,43,44
 393 324 393 324 404.5 275.5 c 128,-1,45
 416 227 416 227 437.5 197 c 128,-1,46
 459 167 459 167 490 153 c 128,-1,47
 521 139 521 139 559 139 c 0,48,49
 614 139 614 139 658 164.5 c 128,-1,50
 702 190 702 190 736 232.5 c 128,-1,51
 770 275 770 275 794.5 330 c 128,-1,52
 819 385 819 385 834.5 444 c 128,-1,53
 850 503 850 503 857 561.5 c 128,-1,54
 864 620 864 620 864 670 c 0,55,56
 864 795 864 795 821.5 852 c 128,-1,57
 779 909 779 909 700 909 c 0,58,59
 644 909 644 909 599.5 883.5 c 128,-1,60
 555 858 555 858 521 815.5 c 128,-1,61
 487 773 487 773 463 719 c 128,-1,62
 439 665 439 665 423.5 607.5 c 128,-1,63
 408 550 408 550 400.5 494 c 128,-1,64
 393 438 393 438 393 393 c 0,43,44
EndSplineSet
EndChar

StartChar: divide
Encoding: 247 247 185
Width: 1145
GlyphClass: 2
Flags: W
LayerCount: 2
Fore
SplineSet
492 1120 m 0,0,1
 492 1190 492 1190 524.5 1217.5 c 128,-1,2
 557 1245 557 1245 606 1245 c 0,3,4
 630 1245 630 1245 651 1238.5 c 128,-1,5
 672 1232 672 1232 687.5 1217.5 c 128,-1,6
 703 1203 703 1203 712 1179 c 128,-1,7
 721 1155 721 1155 721 1120 c 256,8,9
 721 1085 721 1085 712 1061.5 c 128,-1,10
 703 1038 703 1038 687.5 1023 c 128,-1,11
 672 1008 672 1008 651 1001.5 c 128,-1,12
 630 995 630 995 606 995 c 0,13,14
 557 995 557 995 524.5 1023 c 128,-1,15
 492 1051 492 1051 492 1120 c 0,0,1
492 344 m 0,16,17
 492 414 492 414 524.5 441.5 c 128,-1,18
 557 469 557 469 606 469 c 0,19,20
 630 469 630 469 651 462.5 c 128,-1,21
 672 456 672 456 687.5 441.5 c 128,-1,22
 703 427 703 427 712 403 c 128,-1,23
 721 379 721 379 721 344 c 256,24,25
 721 309 721 309 712 285.5 c 128,-1,26
 703 262 703 262 687.5 247 c 128,-1,27
 672 232 672 232 651 225.5 c 128,-1,28
 630 219 630 219 606 219 c 0,29,30
 557 219 557 219 524.5 247 c 128,-1,31
 492 275 492 275 492 344 c 0,16,17
1044 659 m 1,32,-1
 166 659 l 1,33,-1
 166 805 l 1,34,-1
 1044 805 l 1,35,-1
 1044 659 l 1,32,-1
EndSplineSet
EndChar

StartChar: oslash
Encoding: 248 248 186
Width: 1266
GlyphClass: 2
Flags: W
LayerCount: 2
Fore
SplineSet
82 410 m 0,0,1
 82 487 82 487 100 569 c 128,-1,2
 118 651 118 651 154.5 730 c 128,-1,3
 191 809 191 809 246 879.5 c 128,-1,4
 301 950 301 950 375.5 1003 c 128,-1,5
 450 1056 450 1056 544.5 1087 c 128,-1,6
 639 1118 639 1118 754 1118 c 0,7,8
 814 1118 814 1118 868.5 1107 c 128,-1,9
 923 1096 923 1096 971 1073 c 1,10,-1
 1063 1180 l 1,11,-1
 1217 1180 l 1,12,-1
 1071 1001 l 1,13,14
 1122 949 1122 949 1152 871.5 c 128,-1,15
 1182 794 1182 794 1182 688 c 0,16,17
 1182 614 1182 614 1165 533 c 128,-1,18
 1148 452 1148 452 1112.5 373.5 c 128,-1,19
 1077 295 1077 295 1022.5 223.5 c 128,-1,20
 968 152 968 152 894 98 c 128,-1,21
 820 44 820 44 726 12 c 128,-1,22
 632 -20 632 -20 516 -20 c 0,23,24
 379 -20 379 -20 276 33 c 1,25,-1
 182 -82 l 1,26,-1
 27 -82 l 1,27,-1
 180 106 l 1,28,29
 132 160 132 160 107 235.5 c 128,-1,30
 82 311 82 311 82 410 c 0,0,1
553 127 m 0,31,32
 608 127 608 127 652.5 158.5 c 128,-1,33
 697 190 697 190 732.5 241.5 c 128,-1,34
 768 293 768 293 794 359 c 128,-1,35
 820 425 820 425 836.5 495 c 128,-1,36
 853 565 853 565 861.5 632.5 c 128,-1,37
 870 700 870 700 870 754 c 2,38,-1
 870 758 l 1,39,-1
 420 209 l 1,40,41
 440 166 440 166 473.5 146.5 c 128,-1,42
 507 127 507 127 553 127 c 0,31,32
715 981 m 0,43,44
 663 981 663 981 619.5 951.5 c 128,-1,45
 576 922 576 922 540.5 873.5 c 128,-1,46
 505 825 505 825 478 761.5 c 128,-1,47
 451 698 451 698 433 630 c 128,-1,48
 415 562 415 562 405 494.5 c 128,-1,49
 395 427 395 427 395 369 c 1,50,-1
 838 911 l 1,51,52
 818 946 818 946 786.5 963.5 c 128,-1,53
 755 981 755 981 715 981 c 0,43,44
EndSplineSet
EndChar

